<?xml version="1.0" encoding="UTF-8" standalone="no"?><svg xmlns="http://www.w3.org/2000/svg" xmlns:xlink="http://www.w3.org/1999/xlink" fill="#000000" height="49.4" preserveAspectRatio="xMidYMid meet" version="1" viewBox="-0.0 -1.8 137.7 49.4" width="137.7" zoomAndPan="magnify"><defs><radialGradient cx="18.972" cy="12.077" gradientUnits="userSpaceOnUse" id="a" r="109.17" xlink:actuate="onLoad" xlink:show="other" xlink:type="simple"><stop offset="0" stop-color="#f8a02e"/><stop offset="1" stop-color="#f8a02e"/></radialGradient></defs><g id="change1_1"><path d="m131.013,2.352c-5.819-4.181-18.624-1.514-25.112-1.514h-59.637-26.801c-7.089,0-19.465-2.082-19.463,9.248 0,8.699.002,17.401.002,26.1 0,11.407 13.783,8.963 20.732,8.963 2.088,0 25.26.264 25.78.269 .608.006 43.021-.269 45.285-.269l30.05-.001c3.086,0 6.464.426 9.167-1.514 4.164-2.995 3.671-7.991 3.671-12.621-.002-7.154 2.984-23.875-3.674-28.661z" fill="#ffd310"/></g><path d="m129.251,4.022c-5.682-3.838-18.184-1.389-24.519-1.389h-58.228-26.169c-6.92,0-19.004-1.911-19.003,8.489 0,7.984.002,15.973.002,23.957 0,10.471 13.458,8.226 20.242,8.226 2.04,0 24.664.242 25.173.247 .594.006 42.004-.247 44.216-.247l29.339-.001c3.014,0 6.311.393 8.949-1.388 4.067-2.749 3.585-7.336 3.585-11.585-.001-6.568 2.915-21.916-3.587-26.309z" fill="url(#a)"/><g id="change2_1"><path d="m5.879,7.746c2.566,0 1.363,28.217.808,31.119-.924,4.814-3.077-8.944-3.13-10.112-.084-1.88-.888-21.01 2.322-21.007" fill="#f8a02e"/></g><g id="change3_1"><path d="m129.175,7.746c2.566,0 1.362,28.217.808,31.119-.925,4.814-3.076-8.944-3.13-10.112-.085-1.88-.889-21.01 2.322-21.007" fill="#f49a33"/></g><g id="change2_2"><path d="m6.497 5.897c9e-3 -2.216 122.14-1.771 122.15 2e-3 0 1.894-122.13 5.492-122.15-2e-3" fill="#f8a02e"/></g><g id="change3_2"><path d="m7.35,38.631c-.009-2.212 76.487-1.243 82.748-1.232 11.704.018 25.744-.433 37.108.675 8.774.854-14.23,2.221-15.519,2.272-10.517.418-104.372,3.279-104.337-1.715" fill="#f49a33"/></g></svg>