<?xml version="1.0" encoding="UTF-8"?><svg xmlns="http://www.w3.org/2000/svg" xmlns:xlink="http://www.w3.org/1999/xlink" height="954.6" preserveAspectRatio="xMidYMid meet" version="1.0" viewBox="-0.6 22.0 1001.3 954.6" width="1001.3" zoomAndPan="magnify"><g id="change1_1"><path d="M 26 935.714844 C 22.398438 936.984375 19.117188 937.707031 16.148438 937.675781 C 13.171875 937.644531 10.570312 937.085938 8.382812 936.140625 C 4.003906 934.246094 1.292969 930.785156 0.367188 926.863281 C -0.558594 922.953125 0.257812 918.585938 2.933594 914.890625 C 4.273438 913.039062 6.082031 911.351562 8.40625 909.972656 C 10.726562 908.585938 13.507812 907.269531 16.898438 906.476562 C 21.71875 905.445312 27.742188 903.429688 29.074219 907.164062 C 33.257812 919.046875 36.148438 924.742188 36.1875 928.214844 C 36.203125 929.949219 35.5 931.132812 33.878906 932.257812 C 32.273438 933.425781 29.707031 934.394531 26 935.714844"/><path d="M 75.757812 921.734375 C 69.140625 922.601562 64.042969 923.25 60.195312 924.035156 C 56.320312 924.765625 53.535156 925.257812 51.570312 925.699219 C 47.613281 926.519531 46.726562 926.601562 45.847656 924.335938 C 37.5625 902.945312 36.777344 902.722656 38.777344 900.808594 C 40.980469 898.710938 43.097656 896.765625 45.167969 894.972656 C 47.210938 893.121094 49.164062 891.324219 51.121094 889.738281 C 53.058594 888.117188 55.015625 886.734375 56.914062 885.347656 C 58.804688 883.945312 60.707031 882.699219 62.648438 881.601562 C 66.566406 879.484375 70.480469 877.65625 74.804688 876.441406 C 79.175781 875.308594 83.757812 874.429688 88.996094 874.121094 C 95.195312 873.832031 100.097656 874.164062 104.050781 875.46875 C 107.984375 876.734375 110.859375 878.800781 112.65625 881.421875 C 114.671875 884.355469 115.332031 887.988281 114.671875 891.960938 C 113.996094 895.898438 112.101562 900.332031 108.773438 904.308594 C 105.484375 908.34375 101.039062 912.355469 95.382812 915.347656 C 92.566406 916.859375 89.574219 918.34375 86.257812 919.367188 C 82.945312 920.402344 79.429688 921.210938 75.757812 921.734375"/><path d="M 92.367188 943.710938 C 84.796875 947.230469 79.804688 951.316406 77.136719 955.78125 C 74.476562 960.238281 74.039062 964.785156 75.59375 968.476562 C 77.164062 972.203125 80.746094 975.066406 85.992188 975.851562 C 91.226562 976.640625 98.277344 975.609375 106.144531 971.058594 C 108.925781 969.46875 112.164062 967.753906 114.386719 965.855469 C 116.605469 963.949219 117.894531 962.039062 116.945312 960.3125 C 110.902344 949.261719 108.65625 943.261719 105.980469 940.992188 C 103.300781 938.703125 100.28125 940.253906 92.367188 943.710938"/><path d="M 137.238281 910.789062 C 132.898438 916.320312 129.1875 920.386719 126.210938 923.484375 C 123.140625 926.445312 120.789062 928.425781 119.113281 929.871094 C 115.753906 932.757812 115.066406 933.476562 116.292969 935.570312 C 127.902344 955.355469 127.417969 956.234375 130.75 955.410156 C 138.070312 953.574219 144.851562 951.652344 150.863281 949.101562 C 153.902344 947.863281 156.804688 946.5625 159.578125 945.175781 C 162.316406 943.738281 164.882812 942.152344 167.351562 940.503906 C 169.816406 938.847656 172.164062 937.089844 174.394531 935.21875 C 176.5625 933.269531 178.609375 931.195312 180.554688 929 C 182.496094 926.800781 184.328125 924.46875 186.050781 921.992188 C 187.707031 919.433594 189.257812 916.726562 190.703125 913.859375 C 192.394531 910.484375 193.660156 907.441406 194.460938 904.628906 C 195.234375 901.78125 195.617188 899.234375 195.660156 896.980469 C 195.746094 892.472656 194.480469 889.117188 192.296875 886.808594 C 189.847656 884.230469 186.25 882.953125 182.046875 882.855469 C 179.945312 882.808594 177.691406 883.058594 175.347656 883.597656 C 172.972656 884.101562 170.453125 884.839844 167.917969 885.882812 C 165.375 886.917969 162.789062 888.234375 160.214844 889.835938 C 157.589844 891.378906 154.921875 893.140625 152.324219 895.222656 C 147.199219 899.476562 141.914062 904.414062 137.238281 910.789062"/><path d="M 178.585938 838.953125 C 176.203125 841.957031 173.511719 844.03125 170.957031 845.535156 C 168.390625 847.03125 165.875 847.878906 163.519531 848.179688 C 158.753906 848.726562 154.582031 847.011719 151.824219 844.101562 C 149.050781 841.164062 147.660156 837.054688 148.167969 832.511719 C 148.394531 830.207031 149.109375 827.804688 150.417969 825.394531 C 151.714844 822.976562 153.683594 820.625 156.140625 818.121094 C 159.679688 814.652344 164.207031 810.136719 167.121094 812.636719 C 186.117188 829.074219 188.652344 826.761719 178.585938 838.953125"/><path d="M 214.894531 802.078125 C 204.230469 810.105469 198.8125 814.769531 195.863281 817.542969 C 192.882812 820.261719 192.035156 820.679688 190.183594 819.171875 C 172.382812 804.699219 171.574219 804.886719 172.425781 802.269531 C 174.132812 796.386719 175.886719 791.222656 177.699219 786.492188 C 179.398438 781.675781 181.507812 777.5625 183.726562 773.660156 C 185.917969 769.738281 188.714844 766.382812 191.804688 763.113281 C 194.867188 759.832031 198.730469 756.96875 203.058594 754.050781 C 208.140625 750.617188 212.863281 748.636719 216.90625 747.800781 C 220.914062 746.941406 224.414062 747.324219 227.261719 748.734375 C 230.453125 750.308594 232.832031 753.171875 234.246094 756.988281 C 235.601562 760.769531 235.878906 765.441406 235.089844 770.636719 C 234.890625 771.929688 234.628906 773.261719 234.28125 774.605469 C 233.894531 775.929688 233.441406 777.273438 232.914062 778.628906 C 231.855469 781.34375 230.515625 784.113281 228.882812 786.863281 C 227.253906 789.617188 225.136719 792.230469 222.839844 794.816406 C 220.511719 797.382812 217.953125 799.894531 214.894531 802.078125"/><path d="M 240.246094 813.027344 C 235.214844 819.6875 233.128906 825.863281 232.96875 831.023438 C 232.761719 836.128906 234.648438 840.304688 237.847656 842.757812 C 241.035156 845.203125 245.550781 845.910156 250.597656 844.082031 C 255.578125 842.226562 260.953125 837.703125 265.726562 830.015625 C 268.929688 824.492188 273.152344 817.441406 269.796875 815.382812 C 248.390625 802.089844 250.210938 799.003906 240.246094 813.027344"/><path d="M 263.023438 762.320312 C 262.515625 765.804688 261.988281 768.902344 261.441406 771.644531 C 260.816406 774.347656 260.199219 776.699219 259.621094 778.757812 C 258.449219 782.863281 257.460938 785.78125 256.695312 787.851562 C 255.113281 791.96875 254.851562 792.921875 256.949219 794.140625 C 276.785156 805.660156 276.78125 806.65625 279.328125 804.34375 C 282.167969 801.820312 284.667969 799.234375 287.054688 796.6875 C 289.441406 794.140625 291.679688 791.613281 293.769531 789.09375 C 297.804688 783.984375 301.140625 778.851562 303.921875 773.636719 C 306.507812 768.339844 308.472656 762.921875 309.808594 757.265625 C 310.96875 751.539062 311.46875 745.554688 311.304688 739.210938 C 310.488281 724.140625 305.691406 716.796875 299.578125 714.835938 C 292.878906 712.71875 284.503906 717.171875 277.816406 725.742188 C 274.320312 729.988281 271.195312 735.285156 268.707031 741.445312 C 266.019531 747.527344 264.273438 754.617188 263.023438 762.320312"/><path d="M 264.566406 679.40625 C 263.769531 683.164062 262.5625 686.324219 261.082031 688.890625 C 259.492188 691.425781 257.652344 693.371094 255.691406 694.765625 C 251.773438 697.550781 247.386719 698.09375 243.550781 696.859375 C 239.726562 695.628906 236.4375 692.652344 234.699219 688.390625 C 233.832031 686.257812 233.355469 683.796875 233.40625 681.046875 C 233.347656 678.265625 233.792969 675.1875 234.898438 671.8125 C 236.585938 667.078125 238.023438 660.796875 241.929688 661.644531 C 254.226562 664.371094 260.597656 664.914062 263.558594 666.722656 C 265.042969 667.628906 265.671875 668.855469 265.765625 670.832031 C 265.8125 671.824219 265.722656 673 265.542969 674.417969 C 265.328125 675.828125 264.96875 677.46875 264.566406 679.40625"/><path d="M 279.179688 629.621094 C 276.332031 635.683594 274.1875 640.355469 272.785156 644.042969 C 271.332031 647.722656 270.269531 650.355469 269.59375 652.265625 C 268.179688 656.066406 267.773438 656.867188 265.390625 656.410156 C 242.863281 652.085938 242.257812 652.640625 241.703125 649.898438 C 241.105469 646.878906 240.597656 644.015625 240.183594 641.273438 C 239.714844 638.527344 239.242188 635.890625 238.945312 633.359375 C 238.625 630.824219 238.476562 628.394531 238.359375 626.03125 C 238.191406 623.660156 238.15625 621.367188 238.269531 619.117188 C 238.371094 616.871094 238.679688 614.671875 239.027344 612.492188 C 239.347656 610.308594 239.820312 608.152344 240.46875 605.984375 C 241.109375 603.820312 241.957031 601.660156 242.921875 599.445312 C 243.84375 597.210938 244.945312 594.941406 246.242188 592.617188 C 252.175781 581.566406 258.882812 576.386719 265.261719 576.316406 C 272.371094 576.195312 278.964844 582.367188 282.332031 592.347656 C 283.136719 594.828125 283.753906 597.550781 284.140625 600.449219 C 284.507812 603.347656 284.519531 606.414062 284.335938 609.613281 C 284.054688 616.007812 282.222656 622.851562 279.179688 629.621094"/><path d="M 306.628906 627.394531 C 305.550781 635.65625 306.308594 642.039062 308.675781 646.664062 C 311.023438 651.273438 314.640625 654.054688 318.597656 654.707031 C 322.582031 655.363281 326.914062 653.875 330.375 649.890625 C 333.816406 645.917969 336.730469 639.480469 337.097656 630.453125 C 337.257812 627.277344 337.484375 623.644531 337.152344 620.769531 C 336.730469 617.890625 335.808594 615.78125 333.84375 615.652344 C 321.277344 614.796875 315.007812 613.460938 311.65625 614.488281 C 309.980469 615.003906 309.035156 616.101562 308.394531 618.136719 C 307.71875 620.171875 307.238281 623.136719 306.628906 627.394531"/><path d="M 303.3125 572.117188 C 307.824219 585.328125 308.820312 593.136719 309.410156 597.484375 C 310.007812 601.847656 310.246094 602.808594 312.660156 602.90625 C 335.570312 603.804688 336.070312 604.667969 337.179688 601.464844 C 342.148438 587.289062 344.742188 575.160156 344.847656 564.070312 C 344.945312 552.96875 342.539062 542.777344 337.039062 532.421875 C 330.59375 520.253906 323.445312 515.601562 317.097656 515.914062 C 309.992188 516.277344 303.894531 523.0625 300.96875 533.386719 C 298.03125 543.730469 298.253906 557.460938 303.3125 572.117188"/><path d="M 272.613281 493.902344 C 273.964844 510.128906 266.410156 518.574219 258.339844 519.019531 C 250.335938 519.421875 241.816406 511.90625 242.007812 494.945312 C 242.128906 488.929688 242.1875 481.121094 246.15625 481.035156 C 271.386719 480.585938 271.335938 477.09375 272.613281 493.902344"/><path d="M 278.699219 439.023438 C 273.433594 452.222656 272.21875 460.003906 271.410156 464.304688 C 270.664062 468.617188 270.402344 469.5625 267.972656 469.554688 C 245.035156 469.480469 244.53125 470.316406 243.523438 467.109375 C 239.164062 452.9375 236.976562 440.367188 237.773438 427.800781 C 238.675781 415.4375 242.460938 403.878906 249.964844 392.675781 C 254.53125 386.09375 258.816406 381.910156 262.941406 379.617188 C 266.988281 377.324219 270.566406 376.90625 273.605469 377.84375 C 280.445312 380.007812 284.351562 388.621094 285.390625 399.628906 C 286.4375 410.742188 284.59375 424.355469 278.699219 439.023438"/><path d="M 306.125 436.359375 C 305.03125 443.800781 306.628906 449.714844 309.351562 453.605469 C 312.171875 457.535156 316.160156 459.511719 320.1875 459.617188 C 328.265625 459.878906 336.203125 452.515625 336.605469 439.320312 C 336.792969 434.617188 337.28125 428.585938 333.445312 428.015625 C 308.59375 424.417969 308.648438 421.003906 306.125 436.359375"/><path d="M 311.023438 385.863281 C 311.210938 392.4375 311.152344 397.367188 311.210938 401.261719 C 311.183594 405.117188 311.015625 407.835938 311.023438 409.832031 C 310.953125 413.785156 311.039062 414.652344 313.425781 415.105469 C 335.960938 419.382812 336.332031 420.066406 337.820312 417.914062 C 344.320312 408.457031 349.242188 401.148438 352.328125 394.148438 C 355.4375 387.144531 356.375 380.234375 355.785156 371.316406 C 355.207031 360.996094 352.316406 353.800781 347.1875 349.902344 C 344.347656 347.765625 340.863281 346.808594 336.972656 347.175781 C 332.988281 347.449219 329.039062 349.429688 324.984375 352.519531 C 317.21875 358.886719 310.78125 371.214844 311.023438 385.863281"/><path d="M 330.636719 303.792969 C 324.1875 310.179688 318.417969 314 313.222656 315.753906 C 307.917969 317.414062 303.355469 317.027344 300.113281 314.601562 C 296.914062 312.207031 295.035156 307.742188 296.269531 301.828125 C 296.902344 298.890625 298.019531 295.460938 300.339844 291.964844 C 301.496094 290.214844 302.867188 288.40625 304.457031 286.566406 C 305.253906 285.644531 306.105469 284.71875 307.011719 283.785156 C 307.9375 282.863281 309.003906 281.988281 310.082031 281.089844 C 311.625 279.832031 313.277344 278.484375 314.933594 277.226562 C 316.578125 275.960938 318.226562 274.785156 319.875 273.984375 C 323.101562 272.3125 325.78125 271.660156 326.925781 273.265625 C 334.308594 283.46875 338.8125 288.019531 339.59375 291.519531 C 340.4375 295.070312 337.339844 297.183594 330.636719 303.792969"/><path d="M 384.730469 279.625 C 382.894531 279.628906 381.121094 279.554688 379.480469 279.691406 C 377.839844 279.835938 376.28125 279.996094 374.8125 280.167969 C 371.882812 280.539062 369.25 280.816406 367.019531 281.351562 C 362.5625 282.464844 359.363281 283.492188 357.058594 284.21875 C 352.523438 285.859375 351.542969 286.324219 350.296875 284.1875 C 338.714844 264.390625 337.519531 264.511719 340.507812 261.542969 C 353.933594 248.964844 367.984375 241.125 381.519531 237.132812 C 384.871094 236.25 388.210938 235.589844 391.5625 235.078125 C 393.230469 234.839844 394.929688 234.585938 396.578125 234.492188 C 398.214844 234.421875 399.855469 234.394531 401.496094 234.414062 C 404.765625 234.472656 408.113281 234.609375 411.363281 235.136719 C 414.589844 235.695312 417.835938 236.445312 421.113281 237.390625 C 423.054688 237.917969 424.800781 238.539062 426.378906 239.242188 C 427.96875 239.921875 429.421875 240.621094 430.746094 241.339844 C 433.390625 242.777344 435.515625 244.285156 437.171875 245.839844 C 440.414062 249.046875 441.855469 252.347656 441.894531 255.523438 C 441.9375 259.085938 440.238281 262.472656 437.273438 265.460938 C 434.273438 268.5625 430.042969 271.15625 424.910156 273.257812 C 422.335938 274.367188 419.542969 275.3125 416.554688 276.058594 C 413.570312 276.792969 410.390625 277.628906 407.03125 278.074219 C 403.664062 278.460938 400.152344 279.066406 396.429688 279.253906 C 392.695312 279.359375 388.839844 279.671875 384.730469 279.625"/><path d="M 396.902344 304.304688 C 393.476562 305.164062 390.503906 306.226562 388.324219 307.886719 C 386.148438 309.558594 384.566406 311.429688 383.546875 313.378906 C 382.496094 315.269531 382.152344 317.480469 382.214844 319.523438 C 382.285156 321.585938 382.808594 323.570312 383.664062 325.394531 C 384.519531 327.214844 385.703125 328.871094 387.09375 330.265625 C 388.496094 331.675781 390.03125 332.734375 391.882812 333.671875 C 393.695312 334.554688 395.640625 335.085938 397.683594 335.089844 C 399.738281 335.097656 402.199219 334.945312 404.679688 333.921875 C 405.535156 333.535156 406.585938 333.265625 407.589844 332.9375 C 408.59375 332.601562 409.558594 332.210938 410.382812 331.726562 C 412.03125 330.769531 413.121094 329.421875 412.8125 327.519531 C 408.429688 302.800781 411.5 301.738281 396.902344 304.304688"/><path d="M 445.824219 293.597656 C 442.671875 294.707031 439.867188 295.546875 437.417969 296.359375 C 434.972656 297.195312 432.84375 297.863281 430.976562 298.40625 C 427.222656 299.421875 424.644531 300.28125 422.746094 300.777344 C 418.980469 301.839844 418.1875 302.164062 418.46875 304.578125 C 421.121094 327.359375 420.601562 327.910156 423.03125 328.730469 C 433.480469 332.054688 442.65625 334.867188 451.671875 335.378906 C 453.957031 335.539062 456.210938 335.554688 458.460938 335.40625 C 460.769531 335.296875 463.121094 335.0625 465.460938 334.644531 C 470.082031 333.769531 475.15625 332.425781 480.300781 330.238281 C 492.765625 325.28125 498.582031 318.773438 498.980469 312.425781 C 499.4375 305.328125 493.375 298.453125 483.558594 294.304688 C 473.804688 290.210938 459.984375 288.847656 445.824219 293.597656"/><path d="M 525.480469 270.457031 C 509.851562 270.472656 502.332031 261.726562 502.878906 253.714844 C 503.378906 245.664062 512.074219 238.347656 526.828125 239.859375 C 528.128906 240.007812 529.519531 240.164062 530.886719 240.316406 C 532.195312 240.464844 533.472656 240.667969 534.59375 240.980469 C 536.832031 241.609375 538.445312 242.6875 538.417969 244.652344 C 537.988281 269.792969 541.476562 270.164062 525.480469 270.457031"/><path d="M 577.34375 274.855469 C 570.820312 273.132812 565.8125 272.089844 561.910156 271.425781 C 558.003906 270.613281 555.203125 270.195312 553.191406 269.890625 C 549.175781 269.269531 548.308594 269.03125 548.28125 266.605469 C 548.027344 243.667969 547.359375 243.183594 549.957031 242.089844 C 555.675781 239.707031 560.871094 237.847656 565.769531 236.113281 C 570.671875 234.476562 575.28125 233.457031 579.796875 232.671875 C 588.847656 231.402344 597.539062 232.082031 607.679688 235.433594 C 613.621094 237.273438 618.144531 239.675781 621.351562 242.386719 C 624.542969 245.03125 626.410156 247.980469 627.066406 251.097656 C 627.796875 254.5625 627.007812 258.265625 624.859375 261.679688 C 622.707031 265.054688 619.203125 268.21875 614.632812 270.828125 C 613.488281 271.476562 612.28125 272.101562 611.007812 272.664062 C 609.730469 273.191406 608.390625 273.675781 606.996094 274.105469 C 604.210938 274.976562 601.203125 275.652344 598.023438 276.097656 C 594.855469 276.597656 591.484375 276.589844 588.019531 276.402344 C 584.546875 276.179688 580.972656 275.746094 577.34375 274.855469"/><path d="M 584.835938 301.359375 C 568.328125 302.039062 560.285156 310.363281 560.503906 318.386719 C 560.644531 322.367188 562.960938 326.445312 567.507812 329.023438 C 569.78125 330.335938 572.613281 331.335938 575.992188 331.878906 C 579.371094 332.417969 583.304688 332.566406 587.707031 331.847656 C 593.933594 330.894531 601.96875 329.8125 601.46875 325.882812 C 598.390625 300.847656 601.933594 300.402344 584.835938 301.359375"/><path d="M 638.460938 287.601562 C 632.398438 291.210938 627.429688 293.445312 623.507812 295.085938 C 619.585938 296.722656 616.699219 297.765625 614.613281 298.453125 C 610.433594 299.777344 609.527344 300.164062 609.886719 302.566406 C 613.273438 325.253906 612.507812 325.871094 615.863281 326.425781 C 619.5625 327.078125 623.097656 327.433594 626.53125 327.726562 C 629.960938 328.015625 633.285156 328.203125 636.511719 328.28125 C 642.953125 328.398438 648.933594 327.773438 654.664062 326.765625 C 666.054688 324.488281 676.269531 319.847656 685.914062 311.679688 C 691.628906 307.023438 695.128906 302.386719 697.003906 298.34375 C 698.871094 294.285156 699.082031 290.714844 698.035156 287.714844 C 696.863281 284.355469 694.132812 281.707031 690.355469 279.886719 C 686.578125 278.058594 681.789062 277.148438 676.300781 276.90625 C 670.816406 276.683594 664.789062 277.640625 658.351562 279.234375 C 655.144531 280.085938 651.871094 281.21875 648.558594 282.660156 C 645.234375 284.050781 641.84375 285.621094 638.460938 287.601562"/><path d="M 705.472656 238.539062 C 698.433594 241.757812 692.304688 242.03125 687.738281 240.664062 C 683.121094 239.183594 680 235.945312 678.679688 232.148438 C 677.359375 228.34375 677.804688 223.988281 680.246094 220.046875 C 682.65625 215.984375 687.085938 212.464844 693.957031 210.164062 C 698.777344 208.453125 704.949219 206.121094 706.546875 209.722656 C 716.644531 232.804688 719.863281 231.601562 705.472656 238.539062"/><path d="M 754.699219 221.101562 C 751.398438 221.726562 748.476562 222.277344 745.894531 222.765625 C 743.308594 223.273438 741.074219 223.769531 739.136719 224.242188 C 735.273438 225.210938 732.558594 226.027344 730.5625 226.519531 C 726.601562 227.570312 725.703125 227.707031 724.679688 225.503906 C 714.992188 204.714844 714.164062 204.546875 716.136719 202.496094 C 720.519531 198.089844 724.433594 193.90625 728.363281 190.464844 C 732.316406 187.078125 736.035156 183.929688 740.003906 181.519531 C 743.992188 179.144531 748.011719 177.105469 752.4375 175.652344 C 754.652344 174.925781 756.964844 174.34375 759.40625 173.890625 C 761.800781 173.367188 764.316406 172.96875 766.992188 172.703125 C 773.277344 172.082031 778.433594 172.515625 782.394531 173.628906 C 786.382812 174.789062 789.28125 176.800781 791.101562 179.40625 C 795.160156 185.175781 793.878906 194.230469 787.375 202.476562 C 785.769531 204.558594 783.867188 206.613281 781.6875 208.582031 C 779.472656 210.496094 776.945312 212.265625 774.191406 213.917969 C 771.414062 215.535156 768.453125 217.113281 765.160156 218.277344 C 761.875 219.457031 758.375 220.417969 754.699219 221.101562"/><path d="M 772.257812 242.351562 C 768.542969 244.175781 765.582031 246.292969 763.191406 248.425781 C 760.785156 250.527344 759.019531 252.765625 757.820312 255.023438 C 755.429688 259.535156 755.316406 264.121094 757.097656 267.738281 C 758.875 271.34375 762.554688 273.972656 767.757812 274.582031 C 770.359375 274.886719 773.339844 274.6875 776.625 273.859375 C 779.898438 273.007812 783.410156 271.398438 787.167969 269.097656 C 789.804688 267.441406 792.871094 265.640625 794.960938 263.710938 C 797.046875 261.773438 798.222656 259.847656 797.21875 258.152344 C 790.808594 247.308594 788.355469 241.390625 785.621094 239.203125 C 782.882812 237 779.9375 238.613281 772.257812 242.351562"/><path d="M 815.898438 208.5625 C 807.476562 219.816406 801.476562 224.855469 798.277344 227.835938 C 795.042969 230.804688 794.363281 231.503906 795.640625 233.558594 C 807.75 253.015625 807.328125 253.929688 810.566406 253.074219 C 817.644531 251.121094 824.21875 249.160156 830.089844 246.710938 C 835.933594 244.210938 841.296875 241.535156 846.078125 238.324219 C 850.816406 235.050781 855.074219 231.382812 858.914062 227.191406 C 862.652344 222.875 865.949219 217.996094 868.867188 212.472656 C 875.535156 199.265625 875 190.460938 870.789062 185.742188 C 866.023438 180.4375 856.671875 180.082031 846.601562 184.097656 C 841.449219 185.988281 836.15625 189.0625 830.957031 193.164062 C 828.316406 195.164062 825.722656 197.453125 823.21875 200.039062 C 821.964844 201.332031 820.734375 202.699219 819.53125 204.144531 C 818.296875 205.550781 817.078125 207.011719 815.898438 208.5625"/><path d="M 858.792969 137.410156 C 857.488281 138.84375 856.179688 140.101562 854.855469 141.164062 C 853.503906 142.199219 852.152344 143.0625 850.824219 143.761719 C 848.164062 145.171875 845.589844 145.9375 843.191406 146.160156 C 838.414062 146.632812 834.304688 144.859375 831.609375 141.839844 C 828.945312 138.855469 827.679688 134.636719 828.375 129.980469 C 828.734375 127.664062 829.601562 125.25 831.078125 122.84375 C 831.816406 121.640625 832.707031 120.4375 833.765625 119.246094 C 834.789062 118.019531 835.960938 116.785156 837.316406 115.578125 C 841.148438 112.164062 846.058594 107.722656 848.84375 110.386719 C 866.9375 127.839844 869.5625 125.605469 858.792969 137.410156"/><path d="M 897.679688 102.542969 C 892.074219 106.210938 887.753906 109.050781 884.5 111.375 C 881.253906 113.707031 879.070312 115.511719 877.476562 116.785156 C 874.195312 119.246094 873.410156 119.707031 871.625 118.0625 C 854.746094 102.527344 853.914062 102.683594 854.972656 100.050781 C 857.304688 94.261719 859.335938 88.914062 861.699219 84.277344 C 863.988281 79.578125 866.261719 75.300781 869.027344 71.589844 C 874.359375 64.007812 881.121094 58.273438 890.511719 53.195312 C 896.136719 50.28125 900.917969 48.628906 905.035156 48.175781 C 909.167969 47.726562 912.625 48.472656 915.308594 50.179688 C 918.3125 52.085938 920.347656 55.191406 921.308594 59.132812 C 922.289062 63.078125 922.195312 67.855469 920.757812 72.878906 C 919.347656 77.914062 916.921875 83.417969 912.964844 88.484375 C 911.027344 91.046875 908.804688 93.566406 906.300781 95.96875 C 903.742188 98.335938 900.820312 100.515625 897.679688 102.542969"/><path d="M 922.039062 115.511719 C 916.566406 121.71875 914.089844 127.710938 913.511719 132.734375 C 913 137.800781 914.628906 142.078125 917.652344 144.742188 C 920.667969 147.398438 925.085938 148.4375 930.148438 147.03125 C 935.269531 145.6875 940.816406 141.6875 946.023438 134.550781 C 949.78125 129.582031 954.242188 122.875 951.132812 120.554688 C 941.070312 112.984375 936.546875 108.453125 933.175781 107.472656 C 931.492188 106.980469 930.097656 107.371094 928.449219 108.710938 C 926.808594 110.054688 924.90625 112.339844 922.039062 115.511719"/><path d="M 949.441406 67.535156 C 947.625 74.28125 945.964844 79.523438 944.398438 83.464844 C 942.796875 87.382812 941.46875 90.125 940.527344 92.105469 C 938.644531 96.070312 938.3125 97 940.285156 98.414062 C 958.9375 111.769531 958.863281 112.753906 961.535156 110.710938 C 973.355469 101.78125 982.355469 92.960938 988.746094 83.285156 C 991.859375 78.398438 994.488281 73.394531 996.324219 67.957031 C 998.109375 62.484375 999.296875 56.691406 999.859375 50.441406 C 1000.789062 35.542969 996.945312 27.6875 991.191406 24.996094 C 984.738281 22.003906 975.917969 25.339844 968.253906 33.007812 C 964.296875 36.796875 960.496094 41.632812 957.378906 47.480469 C 955.742188 50.363281 954.195312 53.460938 952.878906 56.816406 C 951.523438 60.148438 950.503906 63.808594 949.441406 67.535156"/></g></svg>