<?xml version="1.0" encoding="UTF-8"?><svg xmlns="http://www.w3.org/2000/svg" xmlns:xlink="http://www.w3.org/1999/xlink" height="233.6" preserveAspectRatio="xMidYMid meet" version="1.0" viewBox="0.2 -0.0 266.1 233.6" width="266.1" zoomAndPan="magnify"><g stroke="#000"><g id="change1_1"><path d="m326.74 570.73 1.1885 139.85c0.43625 8.8679 11.479 8.0785 14.064 2.7732l0.69329-1.7828 0.0991-141.23-16.045 0.39616-3e-5 -1e-5z" fill="#a28975" stroke-width="1.109" transform="translate(-301.87 -485.83)"/></g><path d="m303.76 550.12 154.82 1.6642v-10.776h-155.62l0.79234 9.1119z" fill="none" stroke-width="1.109" transform="translate(-301.87 -485.83)"/><g id="change1_2"><path d="m437.56 511.5 1.1885 139.85c0.43624 8.8679 11.479 8.0785 14.064 2.7732l0.6933-1.7828 0.0991-141.23-16.045 0.39617-2e-5 -1e-5z" fill="#a28975" stroke-width="1.109" transform="translate(-301.87 -485.83)"/></g><g id="change1_3"><path d="m444.7 570.73 1.1885 139.85c0.43625 8.8679 11.479 8.0785 14.064 2.7732l0.69329-1.7828 0.0991-141.23-16.045 0.39616-3e-5 -1e-5z" fill="#a28975" stroke-width="1.109" transform="translate(-301.87 -485.83)"/></g><g id="change1_4"><path d="m317.23 548.94 0.79233 24.563 137.07 0.39616v-24.562l-137.87-0.39617z" fill="#a28975" stroke-width="1.109" transform="translate(-301.87 -485.83)"/></g><g id="change1_5"><path d="m541.36 511.5 1.1885 139.85c0.43624 8.8679 11.479 8.0785 14.064 2.7732l0.6933-1.7828 0.0991-141.23-16.045 0.39617-2e-5 -1e-5z" fill="#a28975" stroke-width="1.109" transform="translate(-301.87 -485.83)"/></g><g id="change1_6"><path d="m455.81 573.7 103.63-58.613v-20.423l-104.04 54.865 0.0861 23.576 0.32187 0.59425h-2e-5z" fill="#a28975" stroke-width="1.109" transform="translate(-301.87 -485.83)"/></g><g id="change1_7"><path d="m302.77 540.02 0.99042 9.9042 155.5 1.7828 108.35-57.246v-7.7253l-108.55 54.275-156.29-0.99043z" fill="#a28975" stroke-width="1.109" transform="translate(-301.87 -485.83)"/></g><path d="m459.45 541.03 107.98-53.941 0.19808 7.1764-107.72 57.105-0.46087-10.341z" fill="none" stroke-width="1.109" transform="translate(-301.87 -485.83)"/><g id="change1_8"><path d="m302.42 540.26 136.3-53.883 129.19 0.17335-109.03 54.105-156.47-0.39617z" fill="#a28975" stroke-width="1.106" transform="translate(-301.87 -485.83)"/></g></g></svg>