<?xml version="1.0" encoding="UTF-8" standalone="no"?><svg xmlns="http://www.w3.org/2000/svg" xmlns:xlink="http://www.w3.org/1999/xlink" fill="#000000" height="383" preserveAspectRatio="xMidYMid meet" version="1" viewBox="64.5 64.5 383.0 383.0" width="383" zoomAndPan="magnify"><g fill="#010100" id="change1_1"><path d="M256,64.5C150.24,64.5,64.5,150.24,64.5,256S150.24,447.5,256,447.5c105.76,0,191.5-85.74,191.5-191.5 S361.76,64.5,256,64.5z M256,427.75c-94.85,0-171.75-76.9-171.75-171.75S161.15,84.25,256,84.25c94.85,0,171.75,76.9,171.75,171.75 S350.85,427.75,256,427.75z" fill="inherit"/><path d="M282.96,255.02c17.66-19.02,36.18-37.37,55.33-54.81c3.53-3.21,3.83-8.65,0.65-12.21l-15.29-17.1 c-3.24-3.62-8.8-3.88-12.38-0.61c-19.1,17.4-37.59,35.67-55.28,54.58c-17.56-19.95-34.9-40.28-51.78-60.72 c-3.06-3.7-8.52-4.24-12.23-1.2l-17.71,14.52c-3.73,3.05-4.27,8.56-1.21,12.27c18.18,22.02,36.89,43.92,55.83,65.35 c-20.59,23.95-40.18,49.1-58.35,74.96c-2.79,3.97-1.83,9.45,2.17,12.21l18.86,12.99c3.95,2.72,9.33,1.72,12.08-2.2 c16.38-23.3,33.95-46.01,52.4-67.72c18.24,19.99,36.9,39.81,55.73,59.16c3.36,3.45,8.89,3.51,12.33,0.14l16.36-16.02 c3.43-3.36,3.49-8.85,0.14-12.29C321.11,296.27,301.8,275.73,282.96,255.02z" fill="inherit"/></g></svg>