<?xml version="1.0" encoding="UTF-8"?><svg xmlns="http://www.w3.org/2000/svg" xmlns:xlink="http://www.w3.org/1999/xlink" height="37.0" preserveAspectRatio="xMidYMid meet" version="1.0" viewBox="4.0 6.0 40.0 37.0" width="40.0" zoomAndPan="magnify"><g id="change1_1"><path d="M25.5,36l1.5-4l1-4l-1-2l2-2l2-5l-4,1v-4v-1h-2l-4.1-4.39c0,0,4.472-3.61,8.1-3.61c5,0,15,1,15,1v19 l-6,10L25.5,36z" fill="#8d6e63"/></g><g id="change2_1"><path d="M44 37L44 27 38 32 36 36z" fill="#6d4c41"/></g><g id="change3_1"><path d="M44,35c-3,0-4-2-4-2s-1,2-4,2s-4-2-4-2s-1,2-4,2s-4-2-4-2s-1,2-4,2s-4-2-4-2s-1,2-4,2s-4-2-4-2 s-1,2-4,2v8h4h32h4V35z" fill="#90caf9"/></g><g id="change4_1"><path d="M44,39c-3,0-4-2-4-2s-1,2-4,2s-4-2-4-2s-1,2-4,2s-4-2-4-2s-1,2-4,2s-4-2-4-2s-1,2-4,2s-4-2-4-2 s-1,2-4,2v4h4h32h4V39z" fill="#2196f3"/></g><g id="change5_1"><path d="M29,6c-3.63,0-7.03,1.58-8.46,2.45c-0.08,0.05-0.14,0.1-0.2,0.17c-0.12,0.11-0.21,0.26-0.25,0.43 c-0.06,0.26-0.02,0.54,0.13,0.78l0.68,0.78c0.61-0.39,1.22-0.75,1.57-0.95C23.88,8.86,26.49,8,29,8h15V6C44,6,34,6,29,6z" fill="#7cb342"/></g><g id="change2_2"><path d="M30 18L32 19 29 24 27 20z" fill="#6d4c41"/></g><g id="change2_3"><path d="M40 27L38.131 26.123 41 20 42.059 24.871z" fill="#6d4c41"/></g><g id="change2_4"><path d="M25 15L27 16 30 14 41 14 35 12 29 11z" fill="#6d4c41"/></g><g id="change2_5"><path d="M34.634 30.41L34 25 38.129 17.534 33.533 21.879 31.643 26.404z" fill="#6d4c41"/></g><g id="change2_6"><path d="M29 27L27 32 27 26z" fill="#6d4c41"/></g></svg>