<?xml version="1.0" encoding="UTF-8" standalone="no"?><svg xmlns="http://www.w3.org/2000/svg" xmlns:xlink="http://www.w3.org/1999/xlink" fill="#000000" height="246" preserveAspectRatio="xMidYMid meet" version="1" viewBox="0.0 0.0 246.0 246.0" width="246" zoomAndPan="magnify"><g><g id="change1_1"><path d="m6.86,219.77l20.11,20.11-.43-.42c2.19,2.19,5.21,3.54,8.55,3.54h195.82c3.34,0,6.36-1.35,8.55-3.54s3.54-5.21,3.54-8.55V35.09c0-3.34-1.35-6.36-3.54-8.55l.26.17-19.9-19.85" fill="#fec910"/></g><g id="change2_1"><path d="m230.91,246H35.09c-3.72,0-7.23-1.34-9.99-3.78-.07-.06-.14-.12-.21-.18l-.11-.11c-.12-.11-.24-.23-.36-.35-.06-.06-.12-.12-.17-.19l-19.51-19.51c-1.17-1.17-1.17-3.07,0-4.24,1.17-1.17,3.07-1.17,4.24,0l20,19.99c1.68,1.53,3.83,2.36,6.11,2.36h195.82c2.43,0,4.71-.95,6.43-2.66s2.66-4,2.66-6.43V35.09c0-2.43-.95-4.71-2.66-6.43-.14-.14-.27-.3-.38-.46l-19.26-19.22c-1.17-1.17-1.18-3.07,0-4.24,1.17-1.17,3.07-1.18,4.24,0l19.9,19.85c.18.18.34.39.47.6,2.39,2.74,3.7,6.22,3.7,9.9v195.82c0,4.03-1.57,7.82-4.42,10.67-2.85,2.85-6.64,4.42-10.67,4.42Z"/></g><g id="change3_1"><rect fill="#ffae02" height="220" rx="12.09" ry="12.09" width="220" x="3" y="3"/></g><g id="change2_2"><path d="m56.75,226H15.09c-8.32,0-15.09-6.77-15.09-15.09v-10.79c0-1.66,1.34-3,3-3s3,1.34,3,3v10.79c0,5.01,4.08,9.09,9.09,9.09h41.66c1.66,0,3,1.34,3,3s-1.34,3-3,3Z"/></g><g id="change2_3"><path d="m210.91,226H75.02c-1.66,0-3-1.34-3-3s1.34-3,3-3h135.89c5.01,0,9.09-4.08,9.09-9.09v-125.54c0-1.66,1.34-3,3-3s3,1.34,3,3v125.54c0,8.32-6.77,15.09-15.09,15.09Z"/></g><g id="change2_4"><path d="m3,187.66c-1.66,0-3-1.34-3-3V15.09C0,6.77,6.77,0,15.09,0h195.82c8.32,0,15.09,6.77,15.09,15.09v46.3c0,1.66-1.34,3-3,3s-3-1.34-3-3V15.09c0-5.01-4.08-9.09-9.09-9.09H15.09c-5.01,0-9.09,4.08-9.09,9.09v169.57c0,1.66-1.34,3-3,3Z"/></g></g></svg>