<?xml version="1.0" encoding="UTF-8"?><svg xmlns="http://www.w3.org/2000/svg" xmlns:xlink="http://www.w3.org/1999/xlink" height="239.5" preserveAspectRatio="xMidYMid meet" version="1.0" viewBox="-0.9 -3.4 656.3 239.5" width="656.3" zoomAndPan="magnify"><g><g id="change1_1"><path d="M522.3298,34.7742c32.9988,5.2436,66.2447,12.3163,97.1044,29.5164,15.4372,8.6042,31.9118,22.9282,34.2919,45.3596,1.6196,15.2645-4.1424,30.513-12.5066,40.6826s-19.0409,16.0599-29.6765,21.0125c-76.0548,35.416-141.0617,48.225-218.407,56.0172-38.9337,3.9225-143.1582,8.8173-181.819-.2886s-75.194-33.3732-101.8066-73.0332c-6.5743-9.7975-12.5385-20.7973-20.8932-27.6009C64.103,106.4769,26.7283,129.5906,5.561,103.4129,3.3145,100.6347.7445,96.734.0919,92.714c-.0848-.5224-.167-13.9968.028-14.6551,3.3792-11.4081,48.4836-29.1937,54.1412-34.174C104.4817-.323,154.5127,21.1607,209.8203,20.2698c66.652-1.0736,133.3582-1.6032,200.0217,2.494C447.4027,25.0723,484.9407,28.8331,522.3298,34.7742Z" fill="#ffc36a"/></g><g id="change2_1"><path d="M23.6075,79.0223a18.24051,18.24051,0,0,0,4.3884,8.8886c.2384.2846.4792.5619.7273.8344,19.4459,21.7106,53.3462,3.7461,75.6747,21.2338,7.7039,6.0377,13.0678,15.6414,19.0324,24.2211,24.1432,34.7321,57.8002,58.9605,93.9481,67.5961s144.7244,1.1463,180.3752-4.4483c75.0026-11.7701,126.9437-13.4287,199.2371-42.4176,8.8642-3.5539,17.7723-7.7283,25.2841-14.4981q1.58715-1.4304,3.0844-3.0164c8.0883-8.5967,13.8438-21.6255,12.6591-34.8197-1.7393-19.3876-16.9136-32.071-31.2366-39.8017C578.148,47.338,547.0452,40.5658,516.1346,35.3747c-35.024-5.8819-70.2354-9.8859-105.5003-12.6396-62.5875-4.8846-125.3185-5.7822-188.0106-6.2104-52.0229-.3551-98.587-19.8935-146.7858,17.1983C70.0946,38.1429,22.3572,70.7345,23.6075,79.0223Z" fill="#aedef1"/></g><g id="change3_1"><path d="M19.5671,81.3311a18.23922,18.23922,0,0,0,4.3884,8.8886c.2384.2846.4792.5619.7273.8344,3.5807-2.7123,5.8746-7.2345,8.5091-11.0609,5.7165-8.2999,56.0835-40.1058,65.8576-42.5675,7.901-1.9899,16.179-1.6372,24.3208-1.2723q114.74895,5.13765,229.4979,10.28c77.8786,3.4883,157.0975,7.2272,230.5731,33.2848,23.5205,8.3413,44.0027,22.8126,39.7555,50.8771a33.25482,33.25482,0,0,1-4.9625,12.1458q1.5873-1.4304,3.0845-3.0164c8.0883-8.5966,13.8437-21.6254,12.6591-34.8197-1.7393-19.3875-16.9136-32.0709-31.2366-39.8016-28.6337-15.4565-59.7365-22.2288-90.6471-27.4199-35.0241-5.8819-70.2354-9.8859-105.5004-12.6396-62.5874-4.8846-125.3184-5.7822-188.0105-6.2104C166.5604,18.4784,119.9963-1.06,71.7975,36.0318,66.0541,40.4518,18.3168,73.0434,19.5671,81.3311Z" fill="#90b9c9"/></g><g id="change4_1"><path d="M294.7278,222.8658c-33.9034,0-67.5975-1.5219-86.6965-6.0846a161.35749,161.35749,0,0,1-56.7965-26.46,195.83325,195.83325,0,0,1-46.2953-47.4829c-1.3799-1.985-2.72-4.0057-4.0159-5.9597-4.3887-6.6164-8.5336-12.8662-13.4207-16.6941-8.0879-6.3354-18.9043-6.6345-31.4287-6.9806-8.0638-.2226-16.4021-.4532-24.5359-2.47C21.4216,108.2253,13.4536,103.3754,7.179,95.907A29.21632,29.21632,0,0,1,.2785,81.4814C-.9259,73.493,4.5746,65.9663,22.0767,51.6534c10.4766-8.5673,22.6101-17.2966,29.8596-22.512,2.2442-1.6147,4.1826-3.0091,4.9366-3.5894A118.38762,118.38762,0,0,1,117.1142.9738c19.4995-2.2396,39.1399-.1812,58.134,1.8097,12.8575,1.3476,26.1526,2.7412,39.466,2.832,62.1554.4243,128.3731,1.2707,194.5139,6.4343,39.4964,3.0834,75.3659,7.3814,109.6579,13.1399h.0003c31.8663,5.3514,65.638,12.6156,96.7134,29.3886,22.8971,12.3589,35.9484,29.4554,37.7434,49.4414,1.3982,15.5707-4.5454,32.0709-15.8993,44.1377-9.8147,10.4314-21.6744,16.0828-33.0291,20.6362-71.6673,28.7376-129.8313,42.4019-214.6049,50.4168C371.8232,220.911,333.1421,222.8658,294.7278,222.8658ZM22.2093,80.4406a14.3223,14.3223,0,0,0,1.2845,1.7592c7.1929,8.5614,17.2901,9.2649,33.169,9.7037,14.2318.3932,30.3625.839,43.9804,11.506,7.5996,5.953,12.9061,13.9538,18.038,21.6911,1.2897,1.9444,2.5078,3.7811,3.755,5.5753,23.5161,33.8298,55.6727,57.049,90.5463,65.3801,33.8195,8.0795,133.8135,5.8174,174.8217,1.9405,82.5381-7.8038,139.0964-21.0787,208.6799-48.9806,9.0867-3.6441,18.4581-8.0391,25.4406-15.4602,5.5942-5.9459,11.2101-16.3263,10.1952-27.6302-1.1409-12.703-10.1041-23.6699-26.6415-32.5959-28.3433-15.2982-60.0641-22.0781-90.1213-27.1255-33.666-5.6534-68.9236-9.8764-107.7873-12.9104-65.4441-5.1092-131.2291-5.9483-193.001-6.37-14.3543-.098-28.1756-1.5467-41.5417-2.9477-37.3886-3.9187-69.6784-7.303-103.1582,18.4628-1.0269.7902-2.8018,2.0672-5.4884,3.9998C58.2084,50.8792,47.8781,58.311,38.617,65.6875,28.4585,73.7788,24.0632,78.2541,22.2093,80.4406Zm-1.2705,1.7158Z" fill="#fff"/></g></g></svg>