<?xml version="1.0" encoding="UTF-8"?><svg xmlns="http://www.w3.org/2000/svg" xmlns:xlink="http://www.w3.org/1999/xlink" height="130.0" preserveAspectRatio="xMidYMid meet" version="1.0" viewBox="0.3 -0.1 131.2 130.0" width="131.2" zoomAndPan="magnify"><defs><linearGradient id="h" xlink:actuate="onLoad" xlink:show="other" xlink:type="simple" xmlns:xlink="http://www.w3.org/1999/xlink"><stop offset="0"/><stop offset=".5" stop-color="#fff"/><stop offset="1"/></linearGradient><linearGradient id="i" xlink:actuate="onLoad" xlink:show="other" xlink:type="simple" xmlns:xlink="http://www.w3.org/1999/xlink"><stop offset="0" stop-color="#fff" stop-opacity="0"/><stop offset=".5" stop-color="#fff" stop-opacity=".594"/><stop offset="1" stop-color="#fff" stop-opacity="0"/></linearGradient><linearGradient id="c" xlink:actuate="onLoad" xlink:show="other" xlink:type="simple" xmlns:xlink="http://www.w3.org/1999/xlink"><stop offset="0"/><stop offset="1" stop-opacity="0"/></linearGradient><linearGradient id="a" xlink:actuate="onLoad" xlink:show="other" xlink:type="simple" xmlns:xlink="http://www.w3.org/1999/xlink"><stop offset="0" stop-color="#3d3d52"/><stop offset=".5"/><stop offset="1" stop-color="#82878d"/></linearGradient><linearGradient id="e" xlink:actuate="onLoad" xlink:show="other" xlink:type="simple" xmlns:xlink="http://www.w3.org/1999/xlink"><stop offset="0"/><stop offset=".8" stop-color="#434241"/><stop offset="1" stop-color="#7f7d7f"/></linearGradient><linearGradient id="d" xlink:actuate="onLoad" xlink:show="other" xlink:type="simple" xmlns:xlink="http://www.w3.org/1999/xlink"><stop offset="0" stop-color="#d7d5d7"/><stop offset=".25" stop-color="#3a3f2d"/><stop offset=".476" stop-color="#7d7d8d"/><stop offset="1"/></linearGradient><linearGradient id="b" xlink:actuate="onLoad" xlink:show="other" xlink:type="simple" xmlns:xlink="http://www.w3.org/1999/xlink"><stop offset="0" stop-color="#fff"/><stop offset="1" stop-color="#fff" stop-opacity="0"/></linearGradient><linearGradient id="f" xlink:actuate="onLoad" xlink:show="other" xlink:type="simple" xmlns:xlink="http://www.w3.org/1999/xlink"><stop offset="0" stop-opacity="0"/><stop offset=".5" stop-color="#fff" stop-opacity=".479"/><stop offset="1" stop-opacity="0"/></linearGradient><linearGradient id="g" xlink:actuate="onLoad" xlink:show="other" xlink:type="simple" xmlns:xlink="http://www.w3.org/1999/xlink"><stop offset="0" stop-color="#6f7275" stop-opacity=".51"/><stop offset=".575" stop-color="#edede7" stop-opacity=".823"/><stop offset=".75" stop-color="#d2cfd5" stop-opacity=".059"/><stop offset=".793" stop-color="#313332" stop-opacity=".278"/><stop offset=".867" stop-color="#181919" stop-opacity=".388"/><stop offset="1" stop-opacity=".521"/></linearGradient><linearGradient gradientUnits="userSpaceOnUse" id="p" x1="10.966" x2="15.271" xlink:actuate="onLoad" xlink:show="other" xlink:type="simple" xmlns:xlink="http://www.w3.org/1999/xlink" y1="20.713" y2="26.748"><stop offset="0" stop-color="#fff" stop-opacity=".396"/><stop offset="1" stop-opacity=".594"/></linearGradient><linearGradient gradientUnits="userSpaceOnUse" id="C" x1="19.028" x2="19.67" xlink:actuate="onLoad" xlink:show="other" xlink:type="simple" xmlns:xlink="http://www.w3.org/1999/xlink" y1="23.574" y2="26.973"><stop offset="0" stop-color="#fff"/><stop offset=".528" stop-color="#fff"/><stop offset=".633" stop-color="#7d7d7f"/><stop offset=".633" stop-color="#bebebf" stop-opacity=".498"/><stop offset="1" stop-color="#fff"/></linearGradient><linearGradient gradientUnits="userSpaceOnUse" id="k" x1="7.952" x2="9.934" xlink:actuate="onLoad" xlink:href="#a" xlink:show="other" xlink:type="simple" xmlns:xlink="http://www.w3.org/1999/xlink" y1="54.243" y2="3.219"/><linearGradient gradientUnits="userSpaceOnUse" id="l" x1="-25.431" x2="-23.67" xlink:actuate="onLoad" xlink:href="#b" xlink:show="other" xlink:type="simple" xmlns:xlink="http://www.w3.org/1999/xlink" y1="50.236" y2="18.375"/><linearGradient gradientUnits="userSpaceOnUse" id="m" x1="35.548" x2="35.12" xlink:actuate="onLoad" xlink:href="#c" xlink:show="other" xlink:type="simple" xmlns:xlink="http://www.w3.org/1999/xlink" y1="17.46" y2="22.286"/><linearGradient gradientUnits="userSpaceOnUse" id="n" x1="39.157" x2="46.455" xlink:actuate="onLoad" xlink:href="#d" xlink:show="other" xlink:type="simple" xmlns:xlink="http://www.w3.org/1999/xlink"/><linearGradient gradientUnits="userSpaceOnUse" id="o" x1="52.488" x2="43.593" xlink:actuate="onLoad" xlink:href="#e" xlink:show="other" xlink:type="simple" xmlns:xlink="http://www.w3.org/1999/xlink" y1="64.583" y2="28"/><linearGradient gradientUnits="userSpaceOnUse" id="q" x1="10.966" x2="15.271" xlink:actuate="onLoad" xlink:href="#a" xlink:show="other" xlink:type="simple" xmlns:xlink="http://www.w3.org/1999/xlink" y1="20.713" y2="26.748"/><linearGradient gradientUnits="userSpaceOnUse" id="r" x1="30.781" x2="13.128" xlink:actuate="onLoad" xlink:href="#b" xlink:show="other" xlink:type="simple" xmlns:xlink="http://www.w3.org/1999/xlink" y1="10.279" y2="36.354"/><linearGradient gradientUnits="userSpaceOnUse" id="s" x1="6.282" x2="21.608" xlink:actuate="onLoad" xlink:href="#f" xlink:show="other" xlink:type="simple" xmlns:xlink="http://www.w3.org/1999/xlink" y1="36.881" y2="35.467"/><linearGradient gradientUnits="userSpaceOnUse" id="t" x1="30.984" x2="31.153" xlink:actuate="onLoad" xlink:href="#b" xlink:show="other" xlink:type="simple" xmlns:xlink="http://www.w3.org/1999/xlink" y1="12.174" y2="15.976"/><linearGradient gradientUnits="userSpaceOnUse" id="u" x1="47.003" x2="62.957" xlink:actuate="onLoad" xlink:href="#f" xlink:show="other" xlink:type="simple" xmlns:xlink="http://www.w3.org/1999/xlink" y1="56.348" y2="38.173"/><linearGradient gradientUnits="userSpaceOnUse" id="v" x1="47.392" x2="64.097" xlink:actuate="onLoad" xlink:href="#f" xlink:show="other" xlink:type="simple" xmlns:xlink="http://www.w3.org/1999/xlink" y1="57.541" y2="38.054"/><linearGradient gradientUnits="userSpaceOnUse" id="w" x1="47.74" x2="65.27" xlink:actuate="onLoad" xlink:href="#f" xlink:show="other" xlink:type="simple" xmlns:xlink="http://www.w3.org/1999/xlink" y1="58.809" y2="38.073"/><linearGradient gradientUnits="userSpaceOnUse" id="x" x1="48.097" x2="67.029" xlink:actuate="onLoad" xlink:href="#f" xlink:show="other" xlink:type="simple" xmlns:xlink="http://www.w3.org/1999/xlink" y1="59.748" y2="38.181"/><linearGradient gradientUnits="userSpaceOnUse" id="y" x1="48.41" x2="68.408" xlink:actuate="onLoad" xlink:href="#f" xlink:show="other" xlink:type="simple" xmlns:xlink="http://www.w3.org/1999/xlink" y1="61.037" y2="38.256"/><linearGradient gradientUnits="userSpaceOnUse" id="z" x1="-27.424" x2="-9.505" xlink:actuate="onLoad" xlink:href="#d" xlink:show="other" xlink:type="simple" xmlns:xlink="http://www.w3.org/1999/xlink" y1="4.617" y2="-15.003"/><linearGradient gradientUnits="userSpaceOnUse" id="A" x1="-13.628" x2="-15.685" xlink:actuate="onLoad" xlink:href="#b" xlink:show="other" xlink:type="simple" xmlns:xlink="http://www.w3.org/1999/xlink" y1="44.072" y2="38.93"/><linearGradient gradientUnits="userSpaceOnUse" id="B" x1="-15.725" x2="-15.484" xlink:actuate="onLoad" xlink:href="#b" xlink:show="other" xlink:type="simple" xmlns:xlink="http://www.w3.org/1999/xlink" y1="37.387" y2="40.039"/><linearGradient gradientUnits="userSpaceOnUse" id="E" x2="0" xlink:actuate="onLoad" xlink:href="#b" xlink:show="other" xlink:type="simple" xmlns:xlink="http://www.w3.org/1999/xlink" y1="37.387" y2="41.244"/><linearGradient gradientUnits="userSpaceOnUse" id="F" x2="0" xlink:actuate="onLoad" xlink:href="#b" xlink:show="other" xlink:type="simple" xmlns:xlink="http://www.w3.org/1999/xlink" y1="31.216" y2="41.244"/><linearGradient gradientUnits="userSpaceOnUse" id="G" x1="13.108" x2="37.385" xlink:actuate="onLoad" xlink:href="#b" xlink:show="other" xlink:type="simple" xmlns:xlink="http://www.w3.org/1999/xlink" y1="7.99" y2="21.437"/><linearGradient gradientUnits="userSpaceOnUse" id="H" x1="51.657" x2="46.318" xlink:actuate="onLoad" xlink:href="#b" xlink:show="other" xlink:type="simple" xmlns:xlink="http://www.w3.org/1999/xlink" y1="27.85" y2="28.363"/><linearGradient gradientUnits="userSpaceOnUse" id="I" x1="-15.372" x2="-15.765" xlink:actuate="onLoad" xlink:href="#b" xlink:show="other" xlink:type="simple" xmlns:xlink="http://www.w3.org/1999/xlink" y1="15.479" y2="17.386"/><linearGradient gradientUnits="userSpaceOnUse" id="K" x1="-19.628" x2="1.707" xlink:actuate="onLoad" xlink:href="#d" xlink:show="other" xlink:type="simple" xmlns:xlink="http://www.w3.org/1999/xlink" y1="82.528" y2="51.451"/><linearGradient gradientUnits="userSpaceOnUse" id="M" x1="29.745" x2="23.744" xlink:actuate="onLoad" xlink:href="#c" xlink:show="other" xlink:type="simple" xmlns:xlink="http://www.w3.org/1999/xlink" y1="22.502" y2="14.78"/><linearGradient gradientUnits="userSpaceOnUse" id="N" x1="13.795" x2="14.318" xlink:actuate="onLoad" xlink:href="#b" xlink:show="other" xlink:type="simple" xmlns:xlink="http://www.w3.org/1999/xlink" y1="20.026" y2="22.299"/><linearGradient gradientUnits="userSpaceOnUse" id="J" x1="33.18" x2="74.5" xlink:actuate="onLoad" xlink:href="#d" xlink:show="other" xlink:type="simple" xmlns:xlink="http://www.w3.org/1999/xlink" y1="93.138" y2="33.767"/><linearGradient gradientUnits="userSpaceOnUse" id="O" x1="50.298" x2="45.631" xlink:actuate="onLoad" xlink:href="#g" xlink:show="other" xlink:type="simple" xmlns:xlink="http://www.w3.org/1999/xlink" y1="49.355" y2="33.098"/><linearGradient gradientUnits="userSpaceOnUse" id="P" x1="61.752" x2="79.937" xlink:actuate="onLoad" xlink:href="#h" xlink:show="other" xlink:type="simple" xmlns:xlink="http://www.w3.org/1999/xlink" y1="60.654" y2="38.029"/><linearGradient gradientUnits="userSpaceOnUse" id="Q" x1="70.564" x2="58.749" xlink:actuate="onLoad" xlink:href="#i" xlink:show="other" xlink:type="simple" xmlns:xlink="http://www.w3.org/1999/xlink" y1="38.4" y2="54.726"/><linearGradient gradientUnits="userSpaceOnUse" id="R" x1="-17.65" x2="-25.448" xlink:actuate="onLoad" xlink:href="#f" xlink:show="other" xlink:type="simple" xmlns:xlink="http://www.w3.org/1999/xlink" y1="62.816" y2="73.344"/><linearGradient gradientUnits="userSpaceOnUse" id="S" x1="24.808" x2="36.136" xlink:actuate="onLoad" xlink:href="#c" xlink:show="other" xlink:type="simple" xmlns:xlink="http://www.w3.org/1999/xlink" y1="56.213" y2="53.014"/><linearGradient gradientUnits="userSpaceOnUse" id="T" x1="98.276" x2="105.41" xlink:actuate="onLoad" xlink:href="#i" xlink:show="other" xlink:type="simple" xmlns:xlink="http://www.w3.org/1999/xlink" y1="76.882" y2="71.017"/><linearGradient gradientUnits="userSpaceOnUse" id="U" x1="60.62" x2="67.488" xlink:actuate="onLoad" xlink:href="#i" xlink:show="other" xlink:type="simple" xmlns:xlink="http://www.w3.org/1999/xlink" y1="49.055" y2="42.626"/><linearGradient gradientUnits="userSpaceOnUse" id="V" x1="64.81" x2="106.71" xlink:actuate="onLoad" xlink:href="#h" xlink:show="other" xlink:type="simple" xmlns:xlink="http://www.w3.org/1999/xlink" y1="74.969" y2="41.439"/><linearGradient gradientUnits="userSpaceOnUse" id="W" x1="75.624" x2="124.23" xlink:actuate="onLoad" xlink:href="#g" xlink:show="other" xlink:type="simple" xmlns:xlink="http://www.w3.org/1999/xlink"/><linearGradient gradientUnits="userSpaceOnUse" id="X" x1="75.661" x2="109.64" xlink:actuate="onLoad" xlink:href="#c" xlink:show="other" xlink:type="simple" xmlns:xlink="http://www.w3.org/1999/xlink" y1="95.916" y2="49.878"/><radialGradient cx="-38.021" cy="48.719" gradientTransform="matrix(-.99287 .00312 -.00432 -.37789 -75.54 58.902)" gradientUnits="userSpaceOnUse" id="j" r="35.16" xlink:actuate="onLoad" xlink:show="other" xlink:type="simple" xmlns:xlink="http://www.w3.org/1999/xlink"><stop offset="0" stop-opacity=".177"/><stop offset="1" stop-opacity="0"/></radialGradient><radialGradient cx="13.306" cy="26.271" gradientTransform="matrix(1.2005 -.04 .0273 .81929 -3.385 5.5)" gradientUnits="userSpaceOnUse" id="D" r="1.607" xlink:actuate="onLoad" xlink:href="#e" xlink:show="other" xlink:type="simple" xmlns:xlink="http://www.w3.org/1999/xlink"/><radialGradient cx="-16.328" cy="39.316" gradientUnits="userSpaceOnUse" id="L" r="1.929" xlink:actuate="onLoad" xlink:href="#b" xlink:show="other" xlink:type="simple" xmlns:xlink="http://www.w3.org/1999/xlink"/></defs><path d="m-3.0909 46.182a34.909 8.7273 0 1 1 -69.818 0 34.909 8.7273 0 1 1 69.818 0z" fill="url(#j)" transform="matrix(1.8333 0 0 4.0705 134.11 -95.332)"/><path d="m34,12.4375-7,.5625-.8125.8125h-.09375c-.45454,0-1.37784.37216-2.46875,1.28125s-1.09375,3.375-1.09375,3.375c.00157.01409.02836.01771.03125.03125l-.0625.0625c0,0-11.5,2.94681-14.5,3.4375s-3,5-3,5l2,17.46875c1.67813,3.71527 11,4.03768 11,1.53125 0-3 2-2.5 2-2.5s5.11788-1.19731 8.8125-2.03125c.13342.17402.20232.39535.34375.5625 .21891.25871.32093.60578.5625.84375 .93924,1.85288 2.32095,3.36169 4,4.5l.03125.03125c.71981.74891 1.64544,1.24572 2.53125,1.78125 2.09478,2.52549 5.12462,4.1875 8.59375,4.1875 6.30315,0 11.40625-5.26882 11.40625-11.78125 0-3.62011-1.66952-6.74152-4.15625-8.90625-.18478-.20742-.30058-.46288-.5-.65625-.58714-.89838-1.412-1.53112-2.1875-2.21875v-8.8125c0,0-.4375-.01204-.4375-.53125s-.59375-1.46875-.59375-1.46875-1.87144,0-2-1-.84375-1-.84375-1-1.24985-.34694-2.51547-.47194-1.38282-.02806-2.54703-.02806c-1.92847-4.04979-6.5-4.0625-6.5-4.0625z" fill="url(#k)" fill-rule="evenodd" transform="matrix(2.3624 0 0 2.4537 -9.034 -30.007)"/><path d="m-18 18.375s-1.6458 1.1384-6.5312 1.7812-1.2894-1.9312-4.375-1.0312-5.0312 10.031-5.0312 10.031-0.75 2.8519-0.75 4.4375c0 3.5929 1.6479 6.7213 4.125 8.9062-0.1932-0.3063-0.42748-0.57824-0.59375-0.90625-0.24157-0.23797-0.34359-0.58504-0.5625-0.84375-0.14143-0.16715-0.21033-0.38848-0.34375-0.5625l-0.125 0.03125c-0.5815-1.3733-1.0312-2.8196-1.0312-4.4062 0-6.8116 5.577-12.312 12.438-12.312 2.7322 0 4.889 1.2176 6.625 2.5312l-3.8438-7.6562z" fill="url(#l)" transform="matrix(2.3624 0 0 2.4537 133.4 -27.486)"/><path d="m27.374 22.568s2.1961-2.9232 3.2246-3.1803 2.5713 0 4.1141-0.12856 6.2997-0.89995 6.2997-0.89995-1.6553 3.7938-2.6838 3.9224-6.8173-1.7255-10.955 0.28645z" fill="url(#m)" fill-rule="evenodd" transform="matrix(2.0667 0 0 2.4537 2.424 -27.675)"/><path d="m42.57752,16.33361c-1.48848-.01876-1.46668.07894-2.07752.19764 .31374.61334.6779,1.19674.96875,1.8125 .00392.0083-.00392.02295 0,.03125 2.02925.16838 5.34375.25 5.34375.25 0,.09091-.35511-.80398-.71875-1.53125-.64772-.42692-2.08214-.74138-3.51623-.76014z" fill="url(#n)" fill-rule="evenodd" transform="matrix(2.3624 0 0 2.4537 -8.877 -29.721)"/><path d="m47.75 32.5c-6.4735 0-11.719 5.2453-11.719 11.719 0 0.91915 0.28646 1.7471 0.5 2.5938 1.7891 1.9898 4.303 3.3125 7.1875 3.3125 5.3936 0 9.75-4.3877 9.75-9.7812 0-3.1318-1.5501-5.8052-3.8438-7.5938-0.61423-0.11671-1.2207-0.25-1.875-0.25z" fill="url(#o)" transform="matrix(1.742 0 0 1.8093 16.265 -3.874)"/><path d="m15.171 26.748a2.8927 1.5749 0 1 1 -5.7854 0 2.8927 1.5749 0 1 1 5.7854 0z" fill="url(#p)" stroke="url(#q)" stroke-linecap="round" stroke-linejoin="round" stroke-opacity=".25" stroke-width=".468" transform="matrix(2.5654 0 0 2.5949 -12.448 -31.659)"/><path d="m25.456 19.517s-2.5713 10.671-2.5713 11.957-0.12857 5.914 2.4427 8.4853 2.4427 3.0856 2.4427 3.0856l-9.5138 0.64283-0.77139-17.356-1.0285-0.77139 0.64283-3.0856-6.2997 1.5428s-4.666-0.04947-5.8322 2.7375c-0.22194 0.53039-0.71814-0.77139-0.71814-0.77139s0.16354-1.8973 1.9129-3.5024c0.47364-0.43461 1.0377 2.0506 2.8376 1.4078s6.8139-1.9285 9.1281-2.4427 7.5853-1.6713 7.3282-1.9285z" fill="url(#r)" fill-rule="evenodd" transform="matrix(2.3624 0 0 2.4537 -7.223 -29.379)"/><path d="m16.842 26.33s0.77139 4.2426-8.3567 2.5713c-2.1856 0.51426-0.38569 3.0856 0 3.857s2.8284 9.7709 2.5713 11.828-0.3857 2.5713-0.3857 2.5713 6.1711 1.1571 7.5853-1.2856c0-7.3563-1.2856-19.542-1.4142-19.542z" fill="url(#s)" fill-rule="evenodd" transform="matrix(2.3624 0 0 2.4537 -9.652 -29.063)"/><path d="m26.741 12.831s4.1141 1.1571 5.1426 3.5998 8.3567-0.38569 8.3567-0.38569-3.0856-3.7284-5.6568-3.857-7.8425 0.64282-7.8425 0.64282z" fill="url(#t)" fill-rule="evenodd" transform="matrix(2.3624 0 0 2.4537 -8.134 -29.694)"/><path d="m47.75 32.5c-6.4735 0-11.719 5.2453-11.719 11.719 0 0.91915 0.28646 1.7471 0.5 2.5938 1.7891 1.9898 4.303 3.3125 7.1875 3.3125 5.3936 0 9.75-4.3877 9.75-9.7812 0-3.1318-1.5501-5.8052-3.8438-7.5938-0.61423-0.11671-1.2207-0.25-1.875-0.25z" fill="none" stroke="url(#u)" stroke-linecap="round" stroke-linejoin="round" stroke-width=".2" transform="matrix(2.1676 0 0 2.2284 -2.219 -19.409)"/><path d="m47.75 32.5c-6.4735 0-11.719 5.2453-11.719 11.719 0 0.91915 0.28646 1.7471 0.5 2.5938 1.7891 1.9898 4.303 3.3125 7.1875 3.3125 5.3936 0 9.75-4.3877 9.75-9.7812 0-3.1318-1.5501-5.8052-3.8438-7.5938-0.61423-0.11671-1.2207-0.25-1.875-0.25z" fill="none" stroke="url(#v)" stroke-linecap="round" stroke-linejoin="round" stroke-width=".2" transform="matrix(2.0702 0 0 2.0783 1.554 -13.428)"/><path d="m47.75 32.5c-6.4735 0-11.719 5.2453-11.719 11.719 0 0.91915 0.28646 1.7471 0.5 2.5938 1.7891 1.9898 4.303 3.3125 7.1875 3.3125 5.3936 0 9.75-4.3877 9.75-9.7812 0-3.1318-1.5501-5.8052-3.8438-7.5938-0.61423-0.11671-1.2207-0.25-1.875-0.25z" fill="none" stroke="url(#w)" stroke-linecap="round" stroke-linejoin="round" stroke-width=".2" transform="matrix(1.9728 0 0 1.9531 5.484 -8.705)"/><path d="m47.75 32.5c-6.4735 0-11.719 5.2453-11.719 11.719 0 0.91915 0.28646 1.7471 0.5 2.5938 1.7891 1.9898 4.303 3.3125 7.1875 3.3125 5.3936 0 9.75-4.3877 9.75-9.7812 0-3.1318-1.5501-5.8052-3.8438-7.5938-0.61423-0.11671-1.2207-0.25-1.875-0.25z" fill="none" stroke="url(#x)" stroke-linecap="round" stroke-linejoin="round" stroke-width=".2" transform="matrix(1.8266 0 0 1.8779 11.809 -6.043)"/><path d="m47.75 32.5c-6.4735 0-11.719 5.2453-11.719 11.719 0 0.91915 0.28646 1.7471 0.5 2.5938 1.7891 1.9898 4.303 3.3125 7.1875 3.3125 5.3936 0 9.75-4.3877 9.75-9.7812 0-3.1318-1.5501-5.8052-3.8438-7.5938-0.61423-0.11671-1.2207-0.25-1.875-0.25z" fill="none" stroke="url(#y)" stroke-linecap="round" stroke-linejoin="round" stroke-width=".2" transform="matrix(1.7292 0 0 1.7778 15.952 -2.353)"/><path d="m-18.84375-16.375c-6.86048,0-12.4375,5.50087-12.4375,12.3125 0,1.58662.44975,3.03293 1.03125,4.40625l.125-.03125c.13342.17402.20232.39535.34375.5625 .21891.25871.32093.60577.5625.84375 .93924,1.85288 2.32095,3.36168 4,4.5l.03125.03125c.71981.74891 1.64544,1.24572 2.53125,1.78125 1.09567,1.32095 2.46365,2.35952 4,3.09375-1.22699-.64871-2.38682-1.4392-3.3125-2.46875-.24471-.97029-.5625-1.91543-.5625-2.96875 0-7.41842 6.01908-13.4375 13.4375-13.4375 .74978,0 1.42111.17876 2.125.3125 1.97137,1.53721 3.47094,3.62193 4.09375,6.09375-.45013-2.85421-1.87281-5.32766-3.9375-7.125-.18478-.20742-.30058-.46288-.5-.65625-.58714-.89838-1.412-1.53112-2.1875-2.21875v-.15625c-1.2138-1.35288-4.81339-4.875-9.34375-4.875z" fill="url(#z)" fill-rule="evenodd" transform="matrix(2.4201 0 0 2.4437 129.9 70.375)"/><g id="change1_1"><path d="m-14.528 40.087a2.6999 2.6999 0 1 1 -5.3997 0 2.6999 2.6999 0 1 1 5.3997 0z" fill="#500" fill-opacity=".229" transform="matrix(3.1499 0 0 3.2716 145.32 -62.981)"/></g><path d="m-14.528 40.087a2.6999 2.6999 0 1 1 -5.3997 0 2.6999 2.6999 0 1 1 5.3997 0z" fill="url(#A)" transform="matrix(2.3624 0 0 2.4537 130.67 -31.587)"/><path d="m-14.399 39.316a1.9285 1.9285 0 1 1 -3.857 0 1.9285 1.9285 0 1 1 3.857 0z" fill="url(#B)" transform="matrix(1.26 0 0 1.3086 112.82 13.274)"/><path d="m21.277 25.816a1.6071 1.6071 0 1 1 -3.2141 0 1.6071 1.6071 0 1 1 3.2141 0z" fill="url(#C)" stroke="#000" stroke-linecap="round" stroke-linejoin="round" stroke-opacity=".569" stroke-width=".371" transform="matrix(2.3624 0 0 2.4537 -6.615 -28.905)"/><path d="m14.914 27.005a1.6071 1.1249 0 1 1 -3.2141 0 1.6071 1.1249 0 1 1 3.2141 0z" fill="url(#D)" transform="matrix(2.3624 0 0 2.4537 -10.715 -28.59)"/><path d="m-14.399 39.316a1.9285 1.9285 0 1 1 -3.857 0 1.9285 1.9285 0 1 1 3.857 0z" fill="url(#E)" transform="matrix(.70873 0 0 .73611 52.034 5.972)"/><path d="m-14.399 39.316a1.9285 1.9285 0 1 1 -3.857 0 1.9285 1.9285 0 1 1 3.857 0z" fill="url(#F)" transform="matrix(1.3584 0 0 .65432 42.823 10.568)"/><path d="m30.636 19.091s0.36364-1.8182 1.4546-2.0909 7.5454-0.90909 7.5454-0.90909 1.5454 1.6364 1 2.1818-8.3636 1.4546-10 0.81818z" fill="url(#G)" fill-rule="evenodd" transform="matrix(1.8529 0 0 2.3844 12.101 -26.544)"/><path d="m43.091 23s5.2727-1.4545 5.5454-1.9091-0.09091-0.63636-0.09091-0.63636l0.63636 0.72727 0.36364 8.1818-4.9091-3.0909-1.5454-3.2727z" fill="url(#H)" fill-rule="evenodd" transform="matrix(2.063 0 0 2.4537 6.137 -29.336)"/><path d="m-13.727 16.227a2.7273 0.31818 0 1 1 -5.4546 0 2.7273 0.31818 0 1 1 5.4546 0z" fill="url(#I)" transform="matrix(2.1197 .19075 -.16529 2.4463 130.63 -24.85)"/><path d="m70.719 39.5c-7.1873 0-13.031 5.2945-13.031 11.875 0 1.5328 0.4533 2.9545 1.0625 4.2812 0.0295-0.00615 0.0431-0.02635 0.0625-0.03125-0.43229-1.0867-0.78125-2.216-0.78125-3.4375 0-6.7279 6.1651-12.156 13.75-12.156 0.98158 0 1.8563 0.34009 2.7188 0.6875-1.1344-0.68795-2.3643-1.2188-3.7812-1.2188z" fill="url(#J)" fill-rule="evenodd" transform="matrix(2.4309 0 0 2.5926 -82.86 -68.479)"/><path d="m-35.28125,46.375c-6.98468,0-12.65625,5.52717-12.65625,12.375 0,1.59505.43922,3.05689 1.03125,4.4375l.125-.03125c.13584.17495.19976.39446.34375.5625 .22287.26008.34781.60451.59375.84375 .65145,1.269 1.57087,2.31047 2.59375,3.25-.0631-.11093-.1365-.21579-.21875-.3125-.14732-.17323-.20477-.4134-.34375-.59375l-.125.03125c-.60569-1.42325-1.09375-2.91819-1.09375-4.5625 0-7.05932 5.82285-12.75 12.96875-12.75 3.74601,0 6.48409,2.13139 8.25,3.78125-.57552-.75162-1.26817-1.35536-1.96875-1.96875v-.15625c-1.23578-1.36007-4.88762-4.90625-9.5-4.90625z" fill="url(#K)" fill-rule="evenodd" transform="matrix(2.3624 0 0 2.4173 171.61 -76.859)"/><path d="m-14.399 39.316a1.9285 1.9285 0 1 1 -3.857 0 1.9285 1.9285 0 1 1 3.857 0z" fill="url(#L)" transform="matrix(2.2961 -.20972 .09365 1.106 54.913 -5.016)"/><path d="m24.12895,16.71334c.02745-.20638.70003.34464.93958.53015 .32745.22434.66338.41624.97254.65782 .26595.22736.41619.23005.73382.12835 .49635-.11662 1.00941-.1334 1.52253-.12044 1.16994-.0119 1.00964-.16189.14172.32256 .14497-.19609.29583-.38694.44958-.57618l1.38545-.0871c-.14583.16991-.30877.3399-.44247.52858-.90198.62416-1.36001,1.01394-2.41378.90165-.48681.02103-.96693.06218-1.44895.11334-.40646.00289-.68956-.15085-.99345-.42132-.34182-.18307-.69519-.35299-1.02442-.56348-.3805-.28054-.8128-.55206-.9891-1.00067l1.16698-.41325z" fill="url(#M)" transform="matrix(2.5004 .43658 -.27812 .88615 -6.95 -12.383)"/><path d="m7.9091 21.727 10.571-2.5981s1.6107 0.59809 1.0652 0.96173-9.3636 3.0909-9.3636 3.0909-2.2727 0.81818-2.2727-1.4545z" fill="url(#N)" fill-rule="evenodd" transform="matrix(2.3624 0 0 2.4537 -7.648 -30.073)"/><path d="m10.799 46.772s0-9.8995-1.6713-13.242-1.2856-4.6283-1.0285-5.1426" fill="none" stroke="#fff" stroke-linecap="round" stroke-linejoin="round" stroke-opacity=".202" stroke-width=".2" transform="matrix(2.3624 0 0 2.4537 -9.28 -27.99)"/><g id="change2_1"><path d="m-36.255 33.144a0.77139 0.38569 0 1 1 -1.5428 0 0.77139 0.38569 0 1 1 1.5428 0z" fill="#ffa700" transform="matrix(1.0512 -1.2342 1.1883 1.0918 64.102 -39.548)"/></g><path d="m-14.399 39.316a1.9285 1.9285 0 1 1 -3.857 0 1.9285 1.9285 0 1 1 3.857 0z" fill="url(#B)" transform="matrix(.41598 0 0 .43205 96.222 49.284)"/><path d="m70.719 39.5c-7.1873 0-13.031 5.2945-13.031 11.875 0 1.5328 0.4533 2.9545 1.0625 4.2812 0.0295-0.00615 0.0431-0.02635 0.0625-0.03125-0.43229-1.0867-0.78125-2.216-0.78125-3.4375 0-6.7279 6.1651-12.156 13.75-12.156 0.98158 0 1.8563 0.34009 2.7188 0.6875-1.1344-0.68795-2.3643-1.2188-3.7812-1.2188z" fill="url(#J)" fill-rule="evenodd" transform="matrix(2.554 0 0 2.5227 -81.906 -56.242)"/><path d="m47.75 32.5c-6.4735 0-11.432 6.4658-11.75 13.858 1.7891 1.9898 4.8346 3.767 7.7191 3.767 5.3936 0 9.75-4.3877 9.75-9.7812 0-3.1318-1.5501-5.8052-3.8438-7.5938-0.61423-0.11671-1.2207-0.25-1.875-0.25z" fill="url(#O)" opacity=".41" transform="matrix(2.3502 0 0 2.4537 -8.24 -28.632)"/><path d="m70.719 39.5c-7.1873 0-13.031 5.2945-13.031 11.875 0 1.5328 0.4533 2.9545 1.0625 4.2812 0.0295-0.00615 0.0431-0.02635 0.0625-0.03125-0.43229-1.0867-0.78125-2.216-0.78125-3.4375 0-6.7279 6.1651-12.156 13.75-12.156 0.98158 0 1.8563 0.34009 2.7188 0.6875-1.1344-0.68795-2.3643-1.2188-3.7812-1.2188z" fill="url(#P)" fill-rule="evenodd" transform="matrix(2.5924 0 0 2.561 -79.344 -54.246)"/><path d="m70.719 39.5c-7.1873 0-13.031 5.2945-13.031 11.875 0 1.5328 0.4533 2.9545 1.0625 4.2812 0.0295-0.00615 0.0431-0.02635 0.0625-0.03125-0.43229-1.0867-0.78125-2.216-0.78125-3.4375 0-6.7279 6.1651-12.156 13.75-12.156 0.98158 0 1.8563 0.34009 2.7188 0.6875-1.1344-0.68795-2.3643-1.2188-3.7812-1.2188z" fill="url(#Q)" fill-rule="evenodd" opacity=".346" transform="matrix(2.4263 0 0 2.4951 -86.474 -68.772)"/><path d="m-25.281 55.719c-0.11073 0-0.20251 0.05945-0.3125 0.0625 0.42079 0.03921 0.84184 0.10995 1.25 0.1875 2.0571 1.604 3.4375 4.0038 3.4375 6.8125 0 4.8372-3.9128 8.75-8.75 8.75-2.5869 0-4.833-1.1842-6.4375-2.9688-0.19151-0.75935-0.4375-1.4882-0.4375-2.3125 0-1.3512 0.28576-2.626 0.75-3.8125-0.72941 1.5277-1.2188 3.1938-1.2188 5 0 0.91915 0.28646 1.7471 0.5 2.5938 1.7891 1.9898 4.303 3.3125 7.1875 3.3125 5.3936 0 9.75-4.3877 9.75-9.7812 0-3.1318-1.5501-5.8052-3.8438-7.5938-0.61423-0.1167-1.2207-0.25-1.875-0.25z" fill="url(#R)" transform="matrix(2.816 0 0 2.8513 179.16 -107.15)"/><path d="m-14.399 39.316a1.9285 1.9285 0 1 1 -3.857 0 1.9285 1.9285 0 1 1 3.857 0z" fill="url(#L)" transform="matrix(1.1717 -.58223 .30492 .67115 78.82 -21.411)"/><path d="m33.306 78.888s-0.37634-40.08-3.0107-43.091-7.5268-3.9516-9.4085-4.1397 9.0322-2.258 9.0322-2.258 6.7741 10.161 3.3871 49.489z" fill="url(#S)" fill-rule="evenodd"/><path d="m91.094 66.531-1.3438 1.7188 2.4062 3c0.97136-0.87347 1.7021-1.528 2.25-2-0.75282-0.59963-3.3125-2.7188-3.3125-2.7188zm5.6562 4.625c-0.97992 0.72933-1.9682 1.4269-2.9688 2.125l2.4062 3.0312c1.5062-0.94851 2.7309-1.8471 3.4688-2.7812-1.2925-1.0582-1.9026-1.5672-2.9062-2.375zm5.5625 4.5625c-1.2803 1.1373-2.6146 2.2127-4 3.2188l2.375 3c1.1302-0.68997 3.6224-2.2993 5.0312-3.2812-1.4338-1.2416-1.9652-1.7322-3.4062-2.9375zm9.1562 8.0938c-1.726 1.6848-3.4957 3.3304-5.5312 4.6875l1.3438 1.6875c1.985-1.5655 3.926-3.1799 5.7188-4.9375-0.44687-0.45293-1.0092-0.93872-1.5312-1.4375zm3.0938 3.125c-1.1283 1.5551-2.3842 3.0071-3.8438 4.375-0.45946 0.48162-0.99641 0.8621-1.5 1.2812l2.0312 2.5625s3.68-3.4285 4.6875-5.8438c0.15549-0.37277-0.4444-1.2883-1.375-2.375z" fill="url(#T)" fill-rule="evenodd"/><path d="m70.719 39.5c-7.1873 0-13.031 5.2945-13.031 11.875 0 1.5328 0.4533 2.9545 1.0625 4.2812 0.0295-0.00615 0.0431-0.02635 0.0625-0.03125-0.43229-1.0867-0.78125-2.216-0.78125-3.4375 0-6.7279 6.1651-12.156 13.75-12.156 0.98158 0 1.8563 0.34009 2.7188 0.6875-1.1344-0.68795-2.3643-1.2188-3.7812-1.2188z" fill="url(#U)" fill-rule="evenodd" transform="matrix(2.4499 0 0 2.4951 -76.634 -56.708)"/><path d="m83.125 35.781 4.6533 5.2158-4.6533-5.2158zm4.1562 0 4.6221 5.2158-4.6221-5.2158zm3.6562 0.46875 4.8096 5.0283-4.8096-5.0283zm-11.75 0.28125 4.6221 5.2158-4.6221-5.2158zm15.531 0.46875 4.8096 4.7622-4.8096-4.7622zm-19 0.59375 4.0283 5.4497-4.0283-5.4497zm23.125 0.90625 4.8096 4.7622-4.8096-4.7622zm-26.562 0.8125 4.1221 5.3872-4.1221-5.3872zm30.156 0.875 4.8096 4.7622-4.8096-4.7622zm-33.344 1.5938 4.0908 5.356-4.0908-5.356zm-3.5867 2.9456 4.49 5.2542-4.49-5.2542zm-2.2571 3.0544 4.1221 5.3872-4.1221-5.3872zm-2.25 3.4062 4.1221 5.3872-4.1221-5.3872zm-1.5 3.375 3.5586 5.3872-3.5586-5.3872zm-0.9375 3.0312 3.5586 5.356-3.5586-5.356zm-0.375 2.8125 3.5586 5.3872-3.5586-5.3872zm-0.1875 3.375 3.5586 5.3872-3.5586-5.3872zm-0.375 2.6562 3.5586 5.356-3.5586-5.356zm0.1875 3 3.5586 5.3872-3.5586-5.3872zm0.75 3.4062 3.5586 5.3872-3.5586-5.3872z" fill="none" stroke="url(#V)" stroke-dasharray="1.5000000 1.5000000" stroke-linecap="round" stroke-linejoin="round" stroke-opacity=".277" stroke-width="1.5" transform="translate(1.629 .487)"/><path d="m123.48 75.044c0 11.164-10.551 20.225-23.551 20.225s-24.669-9.8719-25.465-21.079c-0.54507-7.6714 12.465-19.37 25.465-19.37s23.551 9.0606 23.551 20.225z" fill="none" stroke="url(#W)" stroke-linecap="round" stroke-linejoin="round" stroke-width=".614" transform="matrix(.88082 -.57502 .51843 .97697 -26.996 61.051)"/><path d="m75.044 85.954s-3.1934-10.911-1.5967-14.902 6.1206-10.911 7.185-11.975 2.6611 0 2.6611 0 8.5156-6.3867 10.644-7.185 1.5967-2.395 1.5967-2.395 3.4595-1.3306 5.3222-1.0644 8.7817 1.8628 8.7817 1.8628-5.5884-1.5967-11.177 0.79834-13.306 6.6528-16.499 10.378-7.9834 12.507-6.9189 24.482z" fill="url(#X)" fill-rule="evenodd"/></svg>