<?xml version="1.0" encoding="UTF-8" standalone="no"?><svg xmlns="http://www.w3.org/2000/svg" xmlns:xlink="http://www.w3.org/1999/xlink" baseProfile="tiny" fill="#000000" height="2873.7" preserveAspectRatio="xMidYMid meet" version="1.2" viewBox="596.0 62.3 1807.7 2873.7" width="1807.7" zoomAndPan="magnify"><g><g id="change1_1"><path d="M1664.3,2151l3.3,377.8l0.7,72.5c73,0.9,142.9,2.5,192.5,4.2c53.2,1.8,85.1,3.8,108.6,9.3 c28.8,6.8,45,17.6,64.2,36.6c14.9,14.7,32,35.4,48.7,57.7c18,23.9,35.4,49.8,48.9,72.5c26.5,44.2,38.4,76.1,50.3,108h0.1l0,0v0.1 l0,0l-17.4,6.5l-48.6,18.3v-0.1v-0.1c-10.8-28.7-21.6-57.5-44.9-96.5c-12.5-20.9-28.5-44.6-44.7-66.4c-14.7-19.6-29.5-37.4-42.2-50 c-9.5-9.4-17.2-14.7-30.3-17.8c-18.6-4.3-46.8-6-94.9-7.6c-49.6-1.7-118.4-3.3-189.5-4.3l2.1,234.5l-70.5,0.6l-2.2-235.8 c-51.6-0.3-101.9-0.3-144.3,0.3c-58.5,0.9-101.6,3-135.4,9.3c-30.3,5.6-52.7,14.8-73,30.2c-21.6,16.5-42.2,40.6-62.3,68.8 c-20.6,28.9-41.2,63.2-61.8,97.4l-60.6-36.4c21-34.8,42-69.5,64.9-101.9c23.7-33.2,48.9-62.4,77.1-83.9 c29.7-22.6,61.3-35.8,102.9-43.5c38.1-7.1,84.6-9.4,147-10.4c42.6-0.7,93-0.8,144.8-0.4l-0.7-71.2l-3.4-377.9L1664.3,2151z" fill="#ffae02"/></g><g id="change2_1"><path d="M1673.1,2150.9l3.4,377.8l0.6,63.9c32.8,0.4,64.7,1,94.3,1.7c33.8,0.8,64.5,1.6,89.7,2.4 c27.1,0.9,48.6,1.8,65.9,3.3c18.1,1.4,32.3,3.3,44.5,6.2c15.4,3.6,27.3,8.4,38.2,14.7c10.7,6.4,20.1,14.2,30.2,24.2 c7.4,7.4,15.4,16.1,23.5,25.7c8.4,10,17.3,21.2,26.2,33c9.2,12.3,18.1,24.7,26.2,36.9c8.4,12.3,16.2,24.7,23.2,36.3 c13.4,22.5,23.1,41.9,31.1,59.7c6.5,14.6,11.8,28.2,16.8,41.5h0.1l3.1,8.3l0,0l3.1,8.2l0.1,0.2l-8.4,3.1l-17.3,6.4v0.1l-48.7,18.3 l-8.3,3.1l-3.1-8.3l0,0l-0.6-1.6v-0.2c-5.2-13.8-10.4-27.7-17-42.4c-6.8-15.3-15.1-31.9-26.7-51.1c-6.1-10.2-13.1-21.2-20.8-32.7 c-7.7-11.3-15.5-22.5-23.4-32.9c-7.3-9.8-14.8-19.3-22.1-28c-6.8-8-13.2-15.1-19.1-21c-4.3-4.3-8.1-7.6-12.2-10 c-3.9-2.3-8.3-4.1-14-5.4c-8.8-2.1-20.1-3.5-35-4.7c-15.6-1.2-34.5-1.9-58.1-2.8c-25.5-0.8-55.8-1.7-88.8-2.4 c-29-0.7-60.1-1.2-91.7-1.7l2,225.6l0.1,8.8l-8.8,0.1l-70.5,0.6h-8.8l-0.1-8.8l-2-227.1c-23.7-0.2-47.1-0.3-69.4-0.2 c-23.3,0.1-45.6,0.3-66.1,0.6c-28.9,0.4-54.2,1.2-76.6,2.6c-22,1.4-40.9,3.4-57.3,6.5c-14.5,2.7-27.2,6.2-38.5,10.9 c-11.2,4.7-21.2,10.4-30.8,17.6c-10.2,7.8-20.3,17.6-30.4,28.8c-10.1,11.4-20.1,24.2-29.9,38c-10.3,14.5-20.6,30.1-30.7,46.2 c-9.2,14.8-20.1,32.8-30.8,50.6l-4.5,7.5l-7.6-4.5l-60.5-36.5l-7.6-4.5l4.6-7.6c10.3-17,20.6-34.1,31.8-52 c10.9-17.2,21.9-34.1,33.5-50.4c12-16.8,24.4-32.7,37.5-47.1c13.1-14.5,26.9-27.6,41.5-38.7c15.4-11.7,31.3-21,48.8-28.4 c17.5-7.3,36.4-12.7,57.7-16.7c19.5-3.6,41-6,65.4-7.6c24.1-1.6,51.5-2.4,83-2.9c20.6-0.3,43-0.5,66.6-0.5 c22.4-0.1,45.7,0,69.4,0.1l-0.6-62.3l-3.3-377.8l-0.1-8.8l8.8-0.1l70.5-0.6h8.8L1673.1,2150.9z M1658.9,2528.9l-3.3-369.1 l-52.8,0.4l3.3,369.1l0.7,71.3l0.1,8.9l-8.9-0.1c-26.7-0.2-53.2-0.3-78.3-0.2c-23.3,0-45.7,0.2-66.3,0.5 c-30.9,0.5-57.9,1.3-82.2,2.9c-23.9,1.6-44.7,3.8-63.3,7.4c-20.1,3.8-37.9,8.8-54.1,15.6c-16.1,6.8-30.8,15.4-45,26.2 c-13.7,10.4-26.7,22.7-39.1,36.4c-12.5,13.9-24.5,29.2-36.2,45.5c-11.4,16-22.3,32.7-32.9,49.6c-8.8,14-17.9,28.9-27.1,44.1 l45.5,27.3c8.4-13.8,16.9-27.8,26.5-43.2c10.5-16.8,20.9-32.8,31.2-47.2c10.3-14.3,20.6-27.7,31.1-39.4c10.7-12,21.6-22.5,33-31.2 c10.8-8.1,22.1-14.6,34.7-19.9c12.5-5.1,26.2-9,42-12c17.3-3.2,36.9-5.3,59.4-6.8c22.2-1.4,47.8-2.2,77.5-2.6 c20.5-0.3,42.8-0.5,66.4-0.6c25.1-0.1,51.4,0,78.1,0.2l8.7,0.1l0.1,8.7l2,227l52.9-0.4l-2.1-225.7l-0.1-8.9l9,0.1 c34.9,0.5,69.1,1.1,100.8,1.8c33.3,0.8,63.8,1.6,89,2.4c24.4,0.8,43.7,1.7,58.8,2.8c15.9,1.2,27.9,2.7,37.7,5 c7.4,1.8,13.5,4.2,19.1,7.6c5.5,3.3,10.3,7.4,15.5,12.5c6.4,6.3,13.1,13.8,20.2,22.1c7.3,8.7,15,18.5,22.7,28.8 c8.4,11.2,16.5,22.6,23.9,33.6c7.6,11.3,14.9,22.6,21.3,33.5c11.9,19.7,20.6,37,27.7,53.1c5.8,13,10.4,25,14.9,36.8l40.4-15.2h0.1 l8.9-3.3l0,0l0.1-0.1c-4.9-13-10-26.3-16.5-40.7c-7.6-17.1-17-35.9-30.1-57.7c-6.6-11-14.4-23.1-22.7-35.5 c-8.4-12.4-17-24.7-25.7-36.2c-8.4-11.2-17-22.1-25.5-32.2c-7.9-9.3-15.5-17.6-22.5-24.6c-9.1-9-17.4-16-26.7-21.6 c-9.2-5.4-19.6-9.5-33.2-12.7c-11.2-2.7-24.7-4.4-41.8-5.9c-17.8-1.4-38.9-2.3-65.1-3.2c-25.4-0.9-56-1.7-89.4-2.4 c-32.3-0.8-67.2-1.3-102.8-1.8l-8.6-0.1l-0.1-8.6L1658.9,2528.9z" fill="#ffae02"/></g><g id="change1_2"><path d="M1520.8,2041.6c6.5,56.7,19.5,162.5,26.8,218.3c7.3,55.8,9,61.8,33.2,65.1 c24.2,3.3,70.7,4,95.9,2.1c25.2-1.9,29-6.5,36.2-62.9c7.3-56.4,17.8-164.7,23.6-216.2c5.8-51.6,6.6-46.4-0.9-48.1 c-7.6-1.8-23.7-10.5-62-16.8c-38.3-6.3-98.7-10.1-129-8.1C1514.4,1977,1514.4,1984.8,1520.8,2041.6L1520.8,2041.6z" fill="#ffae02" fill-rule="evenodd"/></g><g id="change2_2"><path d="M1529.6,2040.6c3.2,27.5,8,68.3,13.1,109.7c5.2,42.1,10.2,82.6,13.6,108.5c3.6,26.9,5.7,41.8,9.4,49.4 c2.7,5.3,7.3,6.8,16.2,8c11.4,1.6,28.2,2.6,45,2.9c18,0.4,36.2,0.2,49.1-0.8c9.6-0.8,15-1.8,17.9-6.8c4.3-7.1,6.9-21.6,10.3-48.5 c4.6-36.4,10.8-95.9,16.1-146.9c2.8-27.4,5.5-52.4,7.4-69.2c1-9,1.8-15.5,2.4-20.8c1-8.8,1.7-14.5,1.9-18.1 c-2.3-0.7-4.7-1.5-7.8-2.7c-9.3-3.4-25-9.1-52.1-13.6c-18.8-3.1-43.3-5.5-66.8-7c-23.2-1.5-45.5-1.9-60.3-0.9 c-10.9,0.7-16.3,2-17.8,6.6C1524.9,1998,1526.5,2013.3,1529.6,2040.6L1529.6,2040.6z M1525.2,2152.4c-4.8-39.7-9.8-80.4-13.1-109.8 l0,0c-3.3-29.6-5-46.5-1.5-57.5c4.5-14,14.3-17.6,33.5-18.9c15.5-1,38.5-0.6,62.5,0.9c23.9,1.5,49,4.1,68.4,7.3 c29,4.8,45.5,10.9,55.4,14.5c3.3,1.2,5.7,2.1,7.1,2.4c0.5,0.1,0.9,0.2,1.3,0.2c7.4,1.3,10.9,1.8,11,13.2c0.1,4.3-0.7,10.9-2.1,23.5 c-0.8,5.9-1.6,13.2-2.4,20.7c-2.1,18.8-4.6,42.8-7.4,69.1c-5.3,50.7-11.4,109.7-16.2,147.3c-3.8,29.5-6.8,45.6-12.5,55.3 c-7.1,12-16.2,14.1-31.8,15.4c-13.1,1-32,1.3-50.7,0.8c-17.6-0.4-35-1.4-47.1-3.1c-15.3-2.1-23.6-5.2-29.7-17.6 c-4.9-10.1-7.4-26.1-11.1-55C1535,2231.2,1529.9,2191.1,1525.2,2152.4L1525.2,2152.4z" fill="#ffae02"/></g><g id="change1_3"><path d="M1091.4,2927.4c37.8,0,68.6-30.8,68.6-68.5c0-37.8-30.8-68.5-68.6-68.5 c-37.7,0-68.5,30.8-68.5,68.5C1022.8,2896.6,1053.7,2927.4,1091.4,2927.4L1091.4,2927.4z" fill="#ffae02" fill-rule="evenodd"/></g><g id="change2_3"><path d="M1091.4,2781.4c21.4,0,40.8,8.7,54.7,22.6c14,14,22.7,33.3,22.7,54.7c0,21.4-8.7,40.7-22.7,54.7 c-14,14-33.3,22.6-54.7,22.6c-21.3,0-40.7-8.7-54.7-22.6c-14-14-22.7-33.3-22.7-54.7c0-21.4,8.7-40.7,22.7-54.7 C1050.7,2790.1,1070,2781.4,1091.4,2781.4L1091.4,2781.4z M1133.6,2816.6c-10.9-10.8-25.7-17.5-42.3-17.5 c-16.5,0-31.3,6.7-42.2,17.5c-10.8,10.8-17.5,25.7-17.5,42.2c0,16.5,6.7,31.4,17.5,42.2c10.9,10.8,25.7,17.5,42.2,17.5 c16.5,0,31.4-6.7,42.3-17.5c10.8-10.8,17.5-25.7,17.5-42.2C1151.1,2842.4,1144.4,2827.4,1133.6,2816.6L1133.6,2816.6z" fill="#ffae02"/></g><g id="change1_4"><path d="M1636,2927.4c37.8,0,68.5-30.8,68.5-68.5c0-37.8-30.8-68.5-68.5-68.5 s-68.5,30.8-68.5,68.5C1567.5,2896.6,1598.2,2927.4,1636,2927.4L1636,2927.4z" fill="#ffae02" fill-rule="evenodd"/></g><g id="change2_4"><path d="M1636,2781.4c21.3,0,40.7,8.7,54.7,22.6c14,14,22.6,33.3,22.6,54.7c0,21.4-8.7,40.7-22.6,54.7 c-14,14-33.4,22.6-54.7,22.6c-21.4,0-40.7-8.7-54.7-22.6c-14-14-22.6-33.3-22.6-54.7c0-21.4,8.6-40.7,22.6-54.7 C1595.3,2790.1,1614.6,2781.4,1636,2781.4L1636,2781.4z M1678.2,2816.6c-10.8-10.8-25.7-17.5-42.2-17.5c-16.5,0-31.4,6.7-42.2,17.5 c-10.9,10.8-17.6,25.7-17.6,42.2c0,16.5,6.7,31.4,17.6,42.2c10.8,10.8,25.7,17.5,42.2,17.5c16.5,0,31.4-6.7,42.2-17.5 c10.8-10.8,17.5-25.7,17.5-42.2C1695.7,2842.4,1689,2827.4,1678.2,2816.6L1678.2,2816.6z" fill="#ffae02"/></g><g id="change1_5"><path d="M2138.3,2927.4c37.8,0,68.5-30.8,68.5-68.5c0-37.8-30.8-68.5-68.5-68.5 c-37.8,0-68.5,30.8-68.5,68.5C2069.8,2896.6,2100.6,2927.4,2138.3,2927.4L2138.3,2927.4z" fill="#ffae02" fill-rule="evenodd"/></g><g id="change2_5"><path d="M2138.3,2781.4c21.4,0,40.7,8.7,54.7,22.6c14,14,22.6,33.3,22.6,54.7c0,21.4-8.7,40.7-22.6,54.7 c-14,14-33.3,22.6-54.7,22.6c-21.4,0-40.7-8.7-54.7-22.6c-14-14-22.6-33.3-22.6-54.7c0-21.4,8.7-40.7,22.6-54.7 C2097.6,2790.1,2117,2781.4,2138.3,2781.4L2138.3,2781.4z M2180.6,2816.6c-10.8-10.8-25.7-17.5-42.2-17.5s-31.4,6.7-42.2,17.5 s-17.5,25.7-17.5,42.2c0,16.5,6.7,31.4,17.5,42.2c10.8,10.8,25.7,17.5,42.2,17.5s31.4-6.7,42.2-17.5c10.8-10.8,17.5-25.7,17.5-42.2 C2198,2842.4,2191.3,2827.4,2180.6,2816.6L2180.6,2816.6z" fill="#ffae02"/></g><g id="change1_6"><path d="M1403.2,1465.4c93.6,0.8,187.2,1.5,271.4,2.7c85.4,1.3,161.4,2.8,218.4,5.3c59.6,2.6,100.7,6.1,132.4,12.4 c34.8,7,59.3,17.3,83.6,33.1c23.8,15.5,46.6,36,66.6,60.3c19.1,23.1,35.9,49.8,48.7,78.7c25.2,57.2,34,121,42.8,184.9l0.2,0.4l0,0 l-35.7,4.3l-34.3,4.6l-0.1-0.4h-0.1l0,0h0.1c-8-58.5-16.1-116.9-37.5-165.3c-10.1-22.8-23.3-43.9-38.4-62.2 c-15.7-19-33-34.7-50.6-46.1c-16.3-10.7-33.5-17.8-59-22.8c-28.6-5.8-66.4-8.9-121.6-11.4c-57.7-2.5-132.7-4.1-216.1-5.3 c-84.6-1.3-177.8-2-271-2.8L1403.2,1465.4z" fill="#ffae02"/></g><g id="change2_6"><path d="M1403.2,1456.6c46.8,0.4,93.6,0.8,139.2,1.3c45.6,0.4,90.1,0.9,132.1,1.5c42.9,0.6,83.2,1.3,119.9,2.2 c37,0.8,70.4,1.9,98.7,3.1c29.9,1.3,55.2,2.8,77.1,4.8c22.1,2.1,40.7,4.6,56.6,7.8c18,3.6,33.3,8,47.4,13.7 c14,5.6,26.7,12.5,39.3,20.6c12.4,7.9,24.4,17.3,36,27.8c11.5,10.4,22.5,21.9,32.7,34.1c9.9,12,19.2,25,27.7,38.8 c8.3,13.5,15.8,27.5,22.2,42c25.6,58,34.5,122.3,43.4,186.5l0.2,0.5l0.1,0.8l0,0l1.1,8.8l-8.8,1.1l-35.7,4.3l0,0l-34.3,4.6 l-8.8,1.2v-0.5h-0.3l-1.1-8.8l0,0l-1-7.9c-3.7-26.4-7.4-52.7-12.5-77.8c-5.6-27.4-12.8-53.5-23.2-77.1 c-4.8-10.9-10.4-21.4-16.5-31.3c-6.3-10.1-13.2-19.7-20.7-28.8c-7.5-9.1-15.5-17.5-23.6-24.9c-8.2-7.4-16.6-14-25-19.5 c-7.7-4.9-15.5-9.1-24.5-12.6c-9-3.6-19.2-6.4-31.4-8.9c-14.2-2.8-30.5-5-49.9-6.8c-19.7-1.8-42.8-3.2-70.4-4.3 c-29.1-1.3-62.2-2.3-98.3-3.2c-36.5-0.8-76.1-1.6-117.6-2.2c-42.4-0.6-86.7-1.1-132.2-1.5c-45.5-0.4-92.2-0.8-138.8-1.3h-8.8v-8.9 l0.6-70.5l0.1-8.9L1403.2,1456.6z M1542.3,1475.5c-42.8-0.4-86.5-0.8-130.4-1.2l-0.4,52.9c43.7,0.3,87.3,0.7,130,1.1 c45.6,0.4,90.1,0.9,132.4,1.5c41.9,0.6,81.5,1.3,117.8,2.2c36.6,0.9,69.9,1.9,98.6,3.2c27.7,1.2,51,2.6,71.2,4.4 c20.4,1.8,37.3,4.1,51.7,7c13.2,2.6,24.3,5.9,34.3,9.8c10.1,3.9,19.1,8.7,27.7,14.3c9.3,6.1,18.4,13.2,27.2,21.2 c8.8,8,17.3,17,25.3,26.7c7.9,9.5,15.3,19.9,22.1,30.9c6.6,10.7,12.5,21.8,17.6,33.3c10.9,24.8,18.5,52.1,24.3,80.6 c5.2,25.7,9,52.2,12.7,78.8l25.7-3.5h0.2l26.7-3.3c-8.4-60.3-17.3-120.5-41-174c-6.2-14-13.2-27.3-21-39.9 c-8-13-16.9-25.2-26.4-36.8c-9.8-11.8-20.1-22.6-30.8-32.3c-10.9-9.8-22.2-18.6-33.8-26.2c-11.7-7.5-23.4-13.8-36.4-19 c-12.9-5.2-27.2-9.4-44.2-12.8c-15.7-3.1-33.6-5.5-54.7-7.5c-21.5-1.9-46.5-3.4-76.3-4.8c-28.7-1.3-61.8-2.3-98.4-3.1 c-36.9-0.9-77.1-1.6-119.7-2.2C1632.3,1476.4,1587.9,1475.9,1542.3,1475.5L1542.3,1475.5z" fill="#ffae02"/></g><g id="change1_7"><path d="M628.8,706.4c-6.5,12.1-11.6,29.1-15.4,53.2c-10.7,68.9-10.7,196,21.5,401.1 c32.2,205.2,96.4,488.5,153.1,640.8c56.7,152.4,105.6,173.7,254.9,186.8c149.3,13,398.9,17.6,639.2,18.4 c240.4,0.8,471.6-2.3,591.8-32.9c120.3-30.7,129.5-88.8,112.6-125.6c-16.9-36.7-59.7-52-147.8-47.4c-88,4.5-221.2,29.1-336.9,33.7 c-115.6,4.5-213.5-10.8-282.5-43.7c-68.9-32.9-108.7-83.4-135.5-254.9c-17.8-113.8-16-118.9-29.2-268.1 c-10.1-113.7,74-258.7,39.6-399.3c-25-102.2-140.4-175.2-210.7-245.8c-51.3-51.6-107.1-99.3-140.1-177.3 c-32.9-78.1-43-186.8-69.9-256.6c-26.9-69.8-70.6-100.7-126.9-111.7c-56.3-11-125.3-2-174.2,27.7c-48.9,29.7-77.7,80.1-88.8,128.5 c-10.9,48.4-4.1,94.5,0.8,130.5c4.8,35.9,7.9,61.3,1.4,99.7c-6.4,38.4-22.1,89.4-35.8,140.9C642,636,634.3,667.7,628.8,706.4 L628.8,706.4z M878.8,416.8c-3.4,15.5-6.9,33.7-5.4,62.2c1.5,28.5,7.9,67.4,22.4,88.7c14.5,21.4,37.1,25.3,60.2,26.3 c23.1,1,46.7-1,53.8-10c7.1-9.1-2.3-25.3-13.6-41.8c-11.4-16.4-25-32.9-43.1-60.7c-18.2-27.8-41-66.8-54.2-79.8 C885.7,388.5,882.3,401.3,878.8,416.8L878.8,416.8z M803.2,442.3c0,22.4,0.9,56.7-1.2,81.3c-2.1,24.6-7.3,39.4-21.1,43 c-14,3.7-36.7-3.7-46.8-10.5c-10-6.9-7.4-13-1.1-25.8c6.4-12.7,16.6-31.8,29.3-54.7c12.6-22.9,27.7-49.6,34.8-57.7 C804.1,409.7,803.2,420,803.2,442.3L803.2,442.3z" fill="#ffae02" fill-rule="evenodd"/></g><g id="change2_7"><path d="M636.6,710.7c-3,5.4-5.7,12.1-8,20.2c-2.4,8.4-4.6,18.4-6.4,30c-5.9,37.1-8.4,91.5-4.4,166.6 c3.3,62.6,11.3,139.2,25.8,231.9c16.8,107.1,42.3,235.3,71,355.1c26.1,109.4,54.8,211.5,81.7,284c27.7,74.3,53.2,116.6,89.4,141.4 c36.4,24.9,84.8,33.3,158,39.6c68.5,6,157.6,10.2,256.9,13c118.4,3.4,251.4,4.9,381.6,5.3c120,0.4,237.8-0.2,340.6-4.7 c102.2-4.4,189.5-12.8,249-28c20.3-5.2,37.3-11.1,51.3-17.5c28.5-13.1,45.1-28.2,53.7-43.4c8.1-14.4,8.9-28.9,5.6-41.6 c-1-3.8-2.3-7.5-3.8-10.9c-7.4-16-20.6-27.5-42-34.5c-22.7-7.4-54.4-10-97.4-7.8c-38.7,2-86.9,8-138.6,14.5 c-64.2,8-133.6,16.6-198.2,19.2c-58.2,2.3-112.2-0.4-160.2-7.9c-48.6-7.4-91.2-19.8-126.4-36.7c-36-17.1-64.4-39-87.4-79.1 c-22.5-39-39.4-95.5-53-182.4c-14-89.4-16-112.1-22.4-188.4c-2.1-24.9-4.6-54.8-6.9-80.3c-4.4-49.8,8.4-104.4,22-161.9 c17.9-76.1,37-157.3,17.8-236.1c-17.9-73.4-85.7-132.4-147.6-186.3c-21.6-18.8-42.4-36.9-60.8-55.4c-6.9-6.9-13.9-13.8-20.9-20.7 c-45.6-44.8-91.8-90.2-121-159.5c-18.1-42.9-29.3-94.1-40-143.3c-9-41.7-17.8-81.9-30-113.4c-12.9-33.3-29.7-57.4-49.8-74.3 c-20.1-16.8-43.8-26.7-70.5-31.9c-27.9-5.4-58.9-5.8-89-1c-28.5,4.6-56,13.7-78.9,27.7c-21.9,13.3-39.6,31-53.3,50.8 c-15.5,22.5-25.8,47.6-31.4,72.1c-10.3,45.3-4.3,89.3,0.5,124.1l0.4,3.1c2.5,18.2,4.5,33.8,5.1,49.9c0.5,16.2-0.3,32.8-3.7,52.5 c-4.7,28.3-14.4,63.3-24.7,100.4c-3.7,13.3-7.4,26.9-11.3,41.4c-4.1,15.5-8.1,31.2-11.7,48c-3.7,16.6-6.9,34-9.6,53.1l-0.3,1.5 L636.6,710.7z M611.6,726.1c2.6-8.7,5.4-16.1,8.7-22.4c2.8-19.1,6-36.4,9.6-52.8c3.6-16.6,7.7-32.7,12-48.7 c3.6-13.5,7.5-27.7,11.4-41.6c10.1-36.4,19.6-70.9,24.2-98.4c3.1-18.6,3.9-34,3.4-49.1c-0.6-15.2-2.5-30.3-4.9-48.1l-0.4-3.2 c-5-36.1-11.3-81.9-0.3-130.4c6.1-26.6,17.3-53.8,34.2-78.1c15-21.8,34.4-41.3,58.6-55.9c24.9-15.1,54.7-25.2,85.3-30 c32.1-5.1,65.3-4.8,95.1,1.1c29.6,5.8,55.9,16.8,78.5,35.7c22.5,18.8,41,45.1,55,81.5c12.7,33,21.6,73.8,30.8,116 c10.6,48.6,21.6,99.1,38.9,140.3c27.8,65.9,72.7,110.1,117.2,153.7c7,6.9,14,13.9,21.1,20.9c17.5,17.6,38.3,35.7,59.8,54.4 c63.9,55.7,133.9,116.6,153.1,195.5c20.3,83,0.7,166.3-17.7,244.2c-13.3,56.2-25.8,109.6-21.6,156.4c3.6,40.2,5.4,62.1,6.9,80.4 c6.4,76.4,8.4,99.1,22.1,187.1c13.2,84.6,29.5,139.1,50.9,176.3c20.9,36.4,46.8,56.2,79.7,72c33.7,16.1,74.7,28,121.5,35.2 c47,7.3,99.6,9.9,156.8,7.6c63.3-2.5,132.7-11.1,196.8-19.1c51.7-6.4,100-12.5,140-14.5c45.1-2.3,78.9,0.5,103.8,8.6 c26.3,8.7,42.9,23.3,52.4,44c2,4.4,3.7,9,4.9,13.8c4.3,16.7,3.3,35.8-7.3,54.7c-10.2,18.1-29.4,35.9-61.8,50.6 c-15.1,6.9-33.1,13.3-54.3,18.6c-60.6,15.5-149.1,24-252.6,28.5c-102.9,4.5-221,5.1-341.4,4.7c-130.5-0.4-263.8-1.9-382-5.3 c-100.3-2.9-189.9-7.1-258-13c-76.1-6.6-126.8-15.5-166.4-42.6c-39.7-27.2-67-71.9-96-149.9c-27.2-73-56.1-176-82.3-286 c-28.7-120.3-54.4-249-71.2-356.5c-14.7-93.4-22.6-170.7-26.1-233.7c-4-76.3-1.3-132,4.6-170.2C606.6,745.8,609,735.2,611.6,726.1 L611.6,726.1z M887.4,418.7c-1.7,7.4-3.3,15.5-4.3,25.2l0,0c-1.1,9.7-1.6,20.9-0.8,34.6c0.8,15.3,3,33.7,7.3,50.6 c3.3,13.1,7.8,25.1,13.5,33.6c6.1,8.9,13.9,14.3,22.6,17.5c9.4,3.4,19.9,4.5,30.7,5c12,0.5,24.1,0.2,33.5-1.6 c6.5-1.3,11.3-2.8,13-5.1c1.3-1.7,0.6-5.1-1.1-9.4c-2.6-6.4-7.4-14-12.9-21.8c-4.3-6.3-8.4-11.7-12.8-17.7 c-8.8-11.8-18.7-25.3-30.5-43.3c-4.3-6.5-9.7-15.1-15.2-23.9c-14.2-22.4-28.8-45.5-37.8-54.4c-1.5-1.5,0.3-4.8-0.7-3.8 C890.3,406.2,888.9,412.1,887.4,418.7L887.4,418.7z M865.5,442c1.1-10.4,2.9-19.1,4.7-27.1c2-8.9,4-17,8.2-22.1 c6.8-8,15-9,26.7,2.5c10.4,10.3,25.5,34.3,40.2,57.6c4.9,7.8,9.8,15.5,15.1,23.7c11.9,18.1,21.5,31.1,29.8,42.5 c4.9,6.6,9.4,12.7,13.2,18.1c5.9,8.6,11.4,17.3,14.7,25.4c3.9,10.1,4.4,19.3-1.4,26.7c-4.7,6-13.2,9.7-23.7,11.6 c-10.9,2.1-24.2,2.4-37.4,1.8c-12.4-0.5-24.6-1.8-36-6c-12-4.3-22.7-11.7-31.1-24.1c-7.1-10.5-12.4-24.4-16.1-39.3 c-4.5-18-6.9-37.6-7.8-53.9C863.9,464.6,864.4,452.5,865.5,442L865.5,442z M812,442.3c0,8.8,0.1,12.7,0.1,16.8 c0.2,20.9,0.4,46.2-1.2,65.3c-1.2,13.2-3.2,24-6.9,32.3c-4.5,9.7-11.1,16-20.9,18.6c-7.8,2-17.3,1.4-26.4-0.7 c-10.7-2.3-21.2-6.8-27.5-11v-0.1c-7.9-5.3-10.9-11-10.6-18.3c0.3-5.8,2.9-11.4,6.6-18.7c3.3-6.6,7.6-14.8,12.6-24.2 c5.3-9.9,10.9-20.4,16.7-30.8c6.4-11.5,13.4-24,19.6-34.7c6.5-10.9,12.4-20.1,16.3-24.6c6.1-7.1,11.4-8.1,17-3.4 c4.8,4.2,4.7,12.7,4.6,26.4C812,435.8,812,433.7,812,442.3L812,442.3z M794.4,459.2c-0.1-8-0.1-15.5-0.1-16.9c0-2.8,0-2.4,0-4.9 c-1.6,2.5-3.3,5.3-5,8.3c-6.2,10.4-13,22.7-19.3,34.2c-6.7,12-12.3,22.2-16.7,30.6c-5,9.4-9.3,17.6-12.5,23.9 c-2.7,5.3-4.6,9.3-4.7,11.5c0,0.7,0.8,1.6,2.8,3v-0.1c4.8,3.3,13,6.6,21.5,8.5c6.7,1.5,13.3,2.1,18.1,0.8c4.2-1.2,7.1-4.1,9.3-8.9 c2.8-6.1,4.3-15,5.3-26.3C794.8,504,794.7,479.5,794.4,459.2L794.4,459.2z" fill="#ffae02"/></g><g id="change3_1"><path d="M1675.9,1445.7c72-2.1,209-1.8,282.4,11.1c73.3,12.9,82.9,38.2,83.5,61.9 c0.6,23.7-7.9,45.9-32.8,56.9c-25,11.1-66.3,11.1-135.4,11.1c-69.1,0-165.9,0-217.6-6.5c-51.6-6.5-58.2-19.6-61.6-41.1 c-3.4-21.6-3.8-51.9-0.6-69.3C1597.1,1452.4,1604,1447.8,1675.9,1445.7L1675.9,1445.7z" fill="#fec910" fill-rule="evenodd"/></g><g id="change2_8"><path d="M1675.7,1436.9c41.8-1.3,105.4-1.7,165.8,0.8c44.4,1.8,87.1,5,118.3,10.4c38.5,6.8,60.7,17.1,73.5,29.2 c13.9,13,17,27.4,17.3,41.3c0.3,14.1-2.3,27.9-9.1,39.7c-6.1,10.6-15.5,19.5-29,25.5c-13.5,6-31,8.9-54.1,10.4 c-22.6,1.4-50.3,1.4-84.8,1.4c-69.2,0-166.1,0-218.7-6.6c-27.7-3.5-43.5-9-53.3-16.8c-10.8-8.6-13.9-19-15.9-31.8 c-1.8-11.3-2.8-24.9-2.9-37.9c-0.1-12.9,0.7-25.2,2.3-34.4c2.3-12,5.8-19.6,21.3-24.6C1618.4,1439.8,1638.8,1438,1675.7,1436.9 L1675.7,1436.9z M1840.8,1455.3c-60.1-2.4-123.2-2-164.6-0.8c-35.1,1.1-54.1,2.7-64.4,5.9c-6.8,2.2-8.3,5.6-9.3,11 c-1.5,8.1-2.3,19.2-2.1,31c0.1,12.1,1,24.7,2.7,35.3c1.4,8.9,3.3,15.8,9.5,20.7c7.3,5.8,20.5,10,44.5,13 c50.8,6.4,147.6,6.4,216.5,6.4c34.5,0,62.2,0,83.7-1.3c21.1-1.3,36.8-3.8,48.1-8.9c9.8-4.3,16.5-10.7,20.9-18.1 c5-8.8,6.9-19.4,6.7-30.5c-0.3-9.9-2.3-20.1-11.7-28.8c-10.4-9.8-29.8-18.5-64.6-24.7C1926.2,1460.2,1884.3,1457,1840.8,1455.3 L1840.8,1455.3z" fill="#ffae02"/></g><g id="change3_2"><path d="M1330.9,1126.4c2.9,120.8,6.9,284,16.7,404.9c9.9,120.8,25.6,199.5,88.8,302.7 c27.3,44.7,63.7,94,97.1,142.3c6.9,9.9,13.6,19.8,20.1,29.6c42.7,0.4,85.7,0.7,128.5,0.8c19.7,0,39.4,0.1,58.9,0.1 c218.6,0,422.5-4.9,532.9-33c120.3-30.7,129.5-88.8,112.6-125.6c-15.4-33.5-52.4-49.1-125.5-48.1c-7.1,0.1-14.5,0.3-22.2,0.8 c-15,0.8-31.3,2.1-48.5,3.8c-84.3,8.4-192.4,26-288.4,29.8c-115.6,4.5-213.5-10.8-282.5-43.7c-68.8-32.8-108.6-83.3-135.4-254.2 c0-0.3-0.1-0.4-0.1-0.7c-4.5-28.9-7.8-50.9-10.4-69.9c-7.4-55.8-8.9-87-18.8-198.2c-10.1-113.7,74-258.7,39.6-399.3 c-25-102.2-140.4-175.2-210.7-245.8c-51.3-51.6-107.1-99.3-140.1-177.3c-32.9-78.1-43-186.8-69.9-256.6 c-26.9-69.8-70.6-100.7-126.9-111.7c-17.5-3.4-36.2-4.9-55.1-4.4c0.1,0.1,0.2,0.2,0.2,0.3c22.6,36.6,80,70.5,108.4,147.7 c28.4,77.2,27.9,197.6,77.1,309.4c49.1,111.8,147.9,214.9,198.3,305.9C1325.9,926.9,1328,1005.5,1330.9,1126.4L1330.9,1126.4z" fill="#fec910" fill-rule="evenodd"/></g><g id="change2_9"><path d="M1338.2,1126.2l0.1,2.5c2.9,120.3,6.9,281.7,16.6,402c4.8,60.1,11.2,109.6,24.1,156.6 c12.9,47,32.4,91.8,63.7,142.8c19.7,32.2,44.2,67,69,102.1c8.9,12.8,18,25.7,27.8,39.9c3.8,5.5,7.4,10.5,10.3,14.9 c2.4,3.6,5,7.4,7.9,11.6c19.6,0.2,39.4,0.3,59.1,0.4c21.8,0.2,43.7,0.3,65.4,0.3c9.9,0,19.7,0,29.5,0.1c9.9,0,19.6,0,29.4,0 c109.1,0,214.6-1.3,306.7-6c91.6-4.7,169.7-12.9,224.4-26.8c20.4-5.2,37.4-11.1,51.5-17.6c28.9-13.3,45.7-28.6,54.4-44 c8.3-14.8,9-29.7,5.7-42.7c-1-4-2.3-7.7-3.9-11.1c-6.9-15-18.6-26-37.1-33.3c-19.4-7.6-46-11.1-81.6-10.7 c-3.4,0.1-6.9,0.2-10.7,0.3c-3.4,0.2-7.2,0.3-11.2,0.5c-7.1,0.4-14.9,0.9-23.2,1.6c-8.6,0.8-16.9,1.5-24.9,2.3 c-27.2,2.8-58.3,6.6-90.7,10.7c-64.2,7.9-133.6,16.6-198.1,19.1c-58.2,2.3-111.9-0.3-159.9-7.8c-48.4-7.4-90.9-19.7-126.1-36.5 c-35.7-17-63.8-38.7-86.7-78.3c-22.3-38.9-39.3-95-52.8-181.4l-0.1-0.8c-2.5-16-4.5-28.9-5.9-38.7c-1.6-10.9-3.1-21.1-4.4-31.3 c-5.3-39.9-7.6-66.9-12-118.3c-2.1-24.3-4.5-53.6-6.9-80.3c-4.3-49.5,8.4-104,22-161.4c18-76.2,37.1-157.6,17.8-236.8 c-18-73.9-85.9-133-148-187c-21.6-18.8-42.5-36.9-60.7-55.3c-6.9-6.9-14-13.8-21-20.7c-45.5-44.7-91.6-90.1-120.7-159 c-18-42.8-29.2-94-39.9-143.2c-9.1-41.7-17.9-82-30.1-113.6c-13-33.7-29.9-57.8-50.3-74.9c-20.3-17-44.2-27-71.2-32.3 c-8.4-1.7-17.1-2.8-26.1-3.5c-4.4-0.4-8.9-0.6-13.4-0.8c6.8,8.4,15.3,17.2,24.5,26.7c26,26.9,57.7,59.5,76.8,111.5 c12,32.7,18.9,72.6,26.4,116.2c10.4,60.4,22.1,128.2,50.5,192.6c28.5,64.9,74.2,127.2,117.2,185.8c30.5,41.7,59.8,81.5,80.8,119.5 c25.6,46.3,38.9,89.5,46.2,136.5C1335.6,1015.4,1336.7,1065.5,1338.2,1126.2L1338.2,1126.2z M1323.6,1129.1l-0.1-2.5 c-1.4-60.2-2.7-109.8-9.8-155.5c-7-45.3-19.8-86.8-44.5-131.5c-20.6-37.1-49.6-76.6-79.8-118c-43.5-59.3-89.7-122.2-118.8-188.5 c-29.1-66.1-41-134.8-51.5-196.1c-7.4-42.9-14.2-82.2-25.8-113.6c-18.1-49.1-48.5-80.5-73.5-106.3c-13.8-14.2-26-26.7-34.2-40.1 h-0.1l-0.2-0.3l-6.7-10.9l12.8-0.3c9.9-0.3,19.6,0,28.8,0.8c9.4,0.8,18.8,2,27.7,3.8c29.4,5.8,55.5,16.7,77.9,35.4 c22.2,18.6,40.6,44.7,54.6,80.9c12.6,32.8,21.6,73.5,30.8,115.7c10.6,48.6,21.6,99.2,39,140.5c27.9,66.2,73,110.5,117.4,154.3 c7.1,6.9,14.1,13.8,21.1,20.8c17.6,17.6,38.4,35.8,59.9,54.6c63.8,55.5,133.5,116.2,152.7,194.6c20.1,82.7,0.6,165.8-17.7,243.5 c-13.3,56.4-25.9,109.8-21.7,156.9c3.5,39,5.4,61.6,7,80.4c4.3,51.6,6.6,78.7,11.8,117.5c1.3,8.9,2.7,19.1,4.4,31.2 c2,13.1,3.9,25.7,5.9,38.5l0.1,0.8c13.2,84.5,29.6,139.1,51.1,176.3c21,36.5,47.1,56.6,80.2,72.4c33.8,16.2,75,28.1,122,35.3 c47,7.3,99.8,9.9,157,7.7c63.4-2.5,132.8-11.2,197-19.1c31.6-4,62-7.8,90.9-10.7c9.2-0.9,17.7-1.7,25.2-2.3 c7.9-0.7,15.7-1.2,23.7-1.6c3.7-0.3,7.5-0.4,11.4-0.5c3.7-0.2,7.4-0.3,11-0.3c37.5-0.5,66,3.3,87.2,11.6 c22.2,8.8,36.6,22.3,45.1,40.9c2,4.3,3.7,8.9,4.8,13.5c4.2,16.4,3.3,35.1-7.2,53.6c-10,17.9-29,35.4-61.1,50.1 c-15,6.9-32.8,13.2-54,18.6c-55.7,14.2-134.6,22.5-227.2,27.2c-92.1,4.8-198,6-307.5,6c-9.8,0-19.6,0-29.4-0.1 c-9.8,0-19.6,0-29.5-0.1c-21.7,0-43.6-0.2-65.4-0.3c-21.1-0.2-42.1-0.3-63-0.5h-3.9l-2.2-3.3c-2.9-4.3-6.3-9.3-9.9-14.7 c-3.8-5.5-7.2-10.4-10.2-14.8c-8.4-12.2-18.2-26-27.8-39.7c-24.9-35.3-49.5-70.2-69.5-103c-32-52.2-52-98.3-65.3-146.7 c-13.2-48.3-19.7-98.5-24.7-159.3C1330.5,1412,1326.5,1250,1323.6,1129.1L1323.6,1129.1z" fill="#ffae02"/></g></g></svg>