<?xml version="1.0" encoding="UTF-8"?><svg xmlns="http://www.w3.org/2000/svg" xmlns:xlink="http://www.w3.org/1999/xlink" height="138.5" preserveAspectRatio="xMidYMid meet" version="1.0" viewBox="28.5 143.3 369.7 138.5" width="369.7" zoomAndPan="magnify"><g><g id="change1_1"><path d="M 69.546875 216.828125 C 71.160156 217.308594 83.492188 223.988281 85 216.828125 C 86.507812 209.664062 79.722656 207.402344 82.738281 205.144531 C 85.753906 202.882812 89.523438 205.894531 90.652344 201.75 C 91.78125 197.605469 89.144531 196.476562 92.535156 195.34375 C 95.929688 194.214844 97.8125 193.082031 99.320312 195.34375 C 100.828125 197.605469 106.105469 196.097656 105.726562 191.574219 C 105.351562 187.054688 102.375 184.039062 105.746094 182.90625 C 109.117188 181.777344 111.382812 189.3125 114.019531 184.789062 C 116.65625 180.269531 119.671875 178.386719 118.164062 173.859375 C 116.65625 169.339844 109.496094 165.570312 115.527344 165.570312 C 121.554688 165.570312 122.3125 174.238281 126.457031 168.585938 C 130.601562 162.933594 124.570312 155.019531 128.339844 154.265625 C 132.109375 153.511719 132.488281 157.277344 135.125 154.265625 C 137.761719 151.246094 137.386719 145.597656 141.53125 144.84375 C 145.675781 144.089844 144.167969 143.335938 146.808594 147.855469 C 149.445312 152.378906 151.328125 155.394531 155.101562 152.757812 C 158.867188 150.117188 164.519531 147.851562 164.144531 153.886719 C 163.769531 159.921875 166.027344 161.800781 168.667969 161.800781 C 171.304688 161.800781 172.4375 161.046875 173.945312 166.324219 C 175.449219 171.601562 182.234375 179.140625 184.496094 173.859375 C 186.757812 168.585938 180.726562 161.800781 187.886719 163.6875 C 195.050781 165.570312 195.804688 171.601562 198.0625 167.078125 C 200.324219 162.554688 194.296875 157.277344 199.949219 157.277344 C 205.601562 157.277344 207.863281 156.535156 210.5 159.921875 C 213.140625 163.308594 215.398438 159.921875 218.792969 159.921875 C 222.183594 159.921875 227.085938 161.800781 227.839844 165.570312 C 228.59375 169.339844 229.722656 172.355469 232.359375 171.601562 C 235 170.847656 240.273438 171.601562 238.390625 174.238281 C 236.507812 176.878906 235.753906 176.878906 235.753906 178.761719 C 235.753906 180.644531 236.882812 182.34375 240.273438 182.0625 C 243.667969 181.777344 247.4375 188.183594 244.796875 189.3125 C 242.160156 190.445312 236.507812 189.691406 238.390625 191.574219 C 240.273438 193.460938 243.179688 191.574219 245.683594 194.589844 C 248.191406 197.605469 247.699219 200.621094 245.683594 200.996094 C 243.667969 201.375 236.882812 200.242188 238.769531 202.507812 C 240.652344 204.765625 246.683594 211.550781 250.074219 206.648438 C 253.464844 201.75 248.566406 196.851562 254.21875 196.851562 C 259.871094 196.851562 254.597656 186.300781 263.265625 187.054688 C 271.933594 187.808594 273.441406 198.359375 276.457031 192.707031 C 279.472656 187.054688 276.457031 181.777344 280.980469 184.039062 C 285.5 186.300781 286.632812 191.199219 285.125 192.707031 C 283.617188 194.214844 288.140625 199.488281 291.152344 194.96875 C 294.171875 190.445312 296.429688 184.035156 298.691406 189.691406 C 298.691406 189.691406 298.683594 196.476562 300.949219 196.851562 C 303.214844 197.230469 305.855469 193.085938 306.984375 196.851562 C 308.113281 200.621094 306.230469 202.882812 305.101562 202.882812 C 303.96875 202.882812 300.953125 202.507812 302.460938 204.390625 C 303.96875 206.273438 301.652344 206.273438 307.332031 206.273438 C 313.015625 206.273438 319.046875 208.910156 316.40625 211.175781 C 313.769531 213.4375 308.867188 212.683594 308.113281 214.566406 C 307.363281 216.449219 306.230469 219.476562 310 219.847656 C 313.769531 220.21875 314.667969 217.59375 317.046875 219.847656 C 319.421875 222.105469 324.320312 222.855469 324.699219 218.335938 C 325.074219 213.8125 323.945312 207.78125 326.960938 213.058594 C 329.976562 218.335938 332.988281 221.179688 331.105469 221.640625 C 329.222656 222.105469 324.320312 222.855469 327.714844 225.117188 C 331.105469 227.378906 337.136719 223.609375 336.382812 227.757812 C 335.628906 231.902344 333.367188 234.164062 331.480469 234.539062 C 329.597656 234.917969 325.074219 231.148438 327.335938 234.539062 C 329.597656 237.933594 331.988281 238.308594 336.445312 237.933594 C 340.902344 237.554688 345.050781 233.644531 343.917969 238.050781 C 342.789062 242.457031 339.773438 243.210938 338.265625 243.964844 C 336.757812 244.71875 335.628906 246.222656 339.019531 246.601562 C 342.410156 246.976562 347.683594 243.964844 347.308594 246.601562 C 346.933594 249.238281 344.671875 254.515625 342.035156 255.644531 C 339.394531 256.777344 336.382812 260.546875 340.902344 261.300781 C 345.425781 262.054688 345.425781 254.894531 350.324219 257.90625 C 355.226562 260.921875 357.109375 263.9375 357.109375 265.824219 C 357.109375 267.707031 361.632812 261.675781 366.15625 258.660156 C 370.679688 255.644531 377.085938 256.023438 377.460938 260.546875 C 377.839844 265.070312 378.59375 265.78125 383.492188 266.179688 C 388.390625 266.574219 391.40625 261.261719 391.78125 266.179688 C 392.160156 271.097656 398.191406 271.476562 394.046875 274.867188 C 389.898438 278.261719 386.507812 281.273438 379.347656 280.894531 C 372.1875 280.519531 36.757812 280.929688 36.757812 280.929688 C 36.757812 280.929688 31.105469 274.867188 32.988281 271.851562 C 34.875 268.839844 39.398438 272.980469 38.265625 267.707031 C 37.136719 262.429688 34.859375 261.675781 32.605469 259.792969 C 30.351562 257.90625 28.46875 254.515625 30.726562 253.761719 C 32.988281 253.007812 35.628906 257.90625 36.003906 252.632812 C 36.382812 247.355469 34.496094 246.601562 33.367188 242.078125 C 32.234375 237.554688 31.859375 233.03125 35.628906 234.917969 C 39.398438 236.800781 40.902344 243.210938 42.789062 240.195312 C 44.671875 237.179688 45.28125 237.179688 44.601562 232.277344 C 43.917969 227.378906 44.296875 225.871094 47.3125 226.625 C 50.328125 227.378906 50.703125 231.148438 53.339844 230.019531 C 55.980469 228.886719 53.71875 227.378906 55.226562 223.234375 C 56.734375 219.089844 57.863281 218.335938 60.125 219.84375 C 62.386719 221.351562 65.023438 224.742188 65.402344 222.855469 C 65.777344 220.972656 64.753906 215.402344 69.546875 216.828125" fill="#356a36"/></g><g id="change2_1"><path d="M 299.117188 257.355469 C 301.996094 249.4375 301.636719 233.25 307.394531 240.445312 C 313.148438 247.640625 317.105469 252.316406 314.230469 253.035156 C 311.351562 253.757812 304.15625 252.316406 310.632812 256.273438 C 317.105469 260.230469 320.074219 244.761719 324.527344 249.4375 C 328.980469 254.113281 331.855469 256.632812 327.539062 258.433594 C 323.222656 260.230469 315.308594 262.390625 321.0625 265.628906 C 326.820312 268.863281 342.648438 265.269531 337.253906 269.945312 C 331.855469 274.621094 345.054688 281.816406 347.269531 274.261719 C 349.484375 266.707031 357.398438 268.507812 359.558594 270.664062 C 361.71875 272.824219 368.191406 271.382812 369.992188 267.066406 C 371.328125 263.859375 376.035156 262.046875 378.367188 264.417969 C 377.832031 263.605469 377.617188 262.394531 377.460938 260.546875 C 377.085938 256.023438 370.679688 255.644531 366.15625 258.660156 C 361.632812 261.675781 357.109375 267.707031 357.109375 265.824219 C 357.109375 263.9375 355.226562 260.921875 350.324219 257.90625 C 345.425781 254.894531 345.425781 262.054688 340.902344 261.300781 C 336.382812 260.546875 339.394531 256.777344 342.035156 255.644531 C 344.671875 254.515625 346.933594 249.238281 347.308594 246.601562 C 347.683594 243.964844 342.410156 246.976562 339.019531 246.601562 C 335.628906 246.222656 336.757812 244.71875 338.265625 243.964844 C 339.773438 243.210938 342.789062 242.457031 343.917969 238.050781 C 345.050781 233.644531 340.902344 237.554688 336.445312 237.933594 C 331.988281 238.308594 329.597656 237.933594 327.335938 234.539062 C 325.074219 231.148438 329.597656 234.917969 331.480469 234.539062 C 333.367188 234.164062 335.628906 231.902344 336.382812 227.757812 C 337.136719 223.609375 331.105469 227.378906 327.714844 225.117188 C 324.320312 222.855469 329.222656 222.105469 331.105469 221.640625 C 332.988281 221.179688 329.976562 218.335938 326.960938 213.058594 C 323.945312 207.78125 325.074219 213.8125 324.699219 218.335938 C 324.320312 222.855469 319.421875 222.105469 317.046875 219.847656 C 314.667969 217.59375 313.769531 220.21875 310 219.847656 C 306.230469 219.476562 307.363281 216.449219 308.113281 214.566406 C 308.867188 212.683594 313.769531 213.4375 316.40625 211.175781 C 319.046875 208.910156 313.015625 206.273438 307.332031 206.273438 C 301.652344 206.273438 303.96875 206.273438 302.460938 204.390625 C 300.953125 202.507812 303.96875 202.882812 305.101562 202.882812 C 306.230469 202.882812 308.113281 200.621094 306.984375 196.851562 C 305.855469 193.085938 303.214844 197.230469 300.949219 196.851562 C 298.683594 196.476562 298.691406 189.691406 298.691406 189.691406 C 296.429688 184.035156 294.171875 190.445312 291.152344 194.96875 C 288.140625 199.488281 283.617188 194.214844 285.125 192.707031 C 286.632812 191.199219 285.5 186.300781 280.980469 184.039062 C 276.457031 181.777344 279.472656 187.054688 276.457031 192.707031 C 273.441406 198.359375 271.933594 187.808594 263.265625 187.054688 C 254.597656 186.300781 259.871094 196.851562 254.21875 196.851562 C 248.566406 196.851562 253.464844 201.75 250.074219 206.648438 C 246.683594 211.550781 240.652344 204.765625 238.769531 202.507812 C 236.882812 200.242188 243.667969 201.375 245.683594 200.996094 C 247.699219 200.621094 248.191406 197.605469 245.683594 194.589844 C 243.179688 191.574219 240.273438 193.460938 238.390625 191.574219 C 236.507812 189.691406 242.160156 190.445312 244.796875 189.3125 C 247.4375 188.183594 243.667969 181.777344 240.273438 182.0625 C 236.882812 182.34375 235.753906 180.644531 235.753906 178.761719 C 235.753906 176.878906 236.507812 176.878906 238.390625 174.238281 C 240.273438 171.601562 235 170.847656 232.359375 171.601562 C 229.722656 172.355469 228.59375 169.339844 227.839844 165.570312 C 227.085938 161.800781 222.183594 159.921875 218.792969 159.921875 C 215.398438 159.921875 213.140625 163.308594 210.5 159.921875 C 207.863281 156.535156 205.601562 157.277344 199.949219 157.277344 C 194.296875 157.277344 200.324219 162.554688 198.0625 167.078125 C 195.804688 171.601562 195.050781 165.570312 187.886719 163.6875 C 180.726562 161.800781 186.757812 168.585938 184.496094 173.859375 C 182.234375 179.140625 175.449219 171.601562 173.945312 166.324219 C 172.4375 161.046875 171.304688 161.800781 168.667969 161.800781 C 166.027344 161.800781 163.769531 159.921875 164.144531 153.886719 C 164.519531 147.851562 158.867188 150.117188 155.101562 152.757812 C 151.328125 155.394531 149.445312 152.378906 146.808594 147.855469 C 144.167969 143.335938 145.675781 144.089844 141.53125 144.84375 C 137.386719 145.597656 137.761719 151.246094 135.125 154.265625 C 132.488281 157.277344 132.109375 153.511719 128.339844 154.265625 C 124.570312 155.019531 130.601562 162.933594 126.457031 168.585938 C 122.3125 174.238281 121.554688 165.570312 115.527344 165.570312 C 109.496094 165.570312 116.65625 169.339844 118.164062 173.859375 C 119.671875 178.386719 116.65625 180.269531 114.019531 184.789062 C 111.382812 189.3125 109.117188 181.777344 105.746094 182.90625 C 102.375 184.039062 105.351562 187.054688 105.726562 191.574219 C 106.105469 196.097656 100.828125 197.605469 99.320312 195.34375 C 97.8125 193.082031 95.929688 194.214844 92.535156 195.34375 C 89.144531 196.476562 91.78125 197.605469 90.652344 201.75 C 89.523438 205.894531 85.753906 202.882812 82.738281 205.144531 C 79.722656 207.402344 86.507812 209.664062 85 216.828125 C 83.492188 223.988281 71.160156 217.308594 69.546875 216.828125 C 64.753906 215.402344 65.777344 220.972656 65.402344 222.855469 C 65.023438 224.742188 62.386719 221.351562 60.125 219.84375 C 57.863281 218.335938 56.734375 219.089844 55.226562 223.234375 C 53.71875 227.378906 55.980469 228.886719 53.339844 230.019531 C 50.703125 231.148438 50.328125 227.378906 47.3125 226.625 C 44.296875 225.871094 43.917969 227.378906 44.601562 232.277344 C 45.28125 237.179688 44.671875 237.179688 42.789062 240.195312 C 40.902344 243.210938 39.398438 236.800781 35.628906 234.917969 C 31.859375 233.03125 32.234375 237.554688 33.367188 242.078125 C 34.496094 246.601562 36.382812 247.355469 36.003906 252.632812 C 35.628906 257.90625 32.988281 253.007812 30.726562 253.761719 C 28.46875 254.515625 30.351562 257.90625 32.605469 259.792969 C 34.859375 261.675781 37.136719 262.429688 38.265625 267.707031 C 39.398438 272.980469 34.875 268.839844 32.988281 271.851562 C 31.105469 274.867188 36.757812 280.929688 36.757812 280.929688 C 36.757812 280.929688 39.730469 280.925781 45.121094 280.921875 C 44.988281 280.710938 40.128906 273.179688 42.609375 272.824219 C 45.128906 272.464844 44.769531 279.300781 47.648438 272.824219 C 50.523438 266.347656 49.445312 263.46875 47.648438 264.1875 C 45.847656 264.90625 43.691406 267.929688 42.96875 264.082031 C 42.25 260.230469 38.320312 256.632812 41.90625 256.632812 C 45.488281 256.632812 49.761719 260.589844 49.425781 256.632812 C 49.085938 252.675781 48.726562 252.316406 46.925781 251.238281 C 45.128906 250.15625 41.136719 249.4375 44.929688 248 C 48.726562 246.5625 49.085938 246.203125 53.042969 248 C 57 249.796875 56.28125 259.511719 60.238281 254.113281 C 64.195312 248.71875 74.628906 250.878906 73.910156 254.476562 C 73.191406 258.074219 90.457031 268.507812 90.816406 260.230469 C 91.179688 251.957031 82.542969 260.230469 81.464844 254.113281 C 80.386719 248 78.226562 241.605469 84.703125 246.78125 C 91.179688 251.957031 102.933594 257.355469 100.652344 252.675781 C 98.375 248 100.890625 247.519531 98.375 244.882812 C 95.855469 242.242188 87.582031 239.007812 94.414062 239.363281 C 101.25 239.726562 103.050781 249.4375 107.367188 245.839844 C 111.683594 242.242188 107.726562 243.628906 113.480469 239.335938 C 119.238281 235.046875 119.238281 244.042969 122.835938 244.402344 C 126.433594 244.761719 117.347656 232.171875 126.566406 236.484375 C 135.789062 240.804688 137.945312 244.761719 138.664062 239.007812 C 139.386719 233.25 137.238281 230.011719 130.9375 230.011719 C 124.636719 230.011719 121.398438 232.527344 119.597656 228.214844 C 117.800781 223.894531 121.039062 219.21875 114.203125 221.378906 C 107.367188 223.535156 112.761719 230.730469 105.570312 228.214844 C 98.375 225.695312 96.214844 227.492188 96.574219 222.457031 C 96.933594 217.421875 95.378906 212.820312 100.652344 212.601562 C 105.929688 212.382812 102.898438 205.546875 109.628906 209.144531 C 116.359375 212.742188 123.464844 223.535156 126.566406 215.621094 C 129.671875 207.707031 127.164062 202.308594 130.9375 205.90625 C 134.707031 209.503906 134 216.699219 130.9375 218.140625 C 127.871094 219.578125 125.367188 223.175781 130.9375 223.535156 C 136.507812 223.894531 136.414062 220.296875 138.800781 215.621094 C 141.183594 210.945312 146.222656 210.945312 144.78125 215.980469 C 143.34375 221.019531 135.789062 221.019531 140.824219 222.816406 C 145.863281 224.613281 154.496094 224.613281 151.976562 219.21875 C 149.460938 213.824219 143.34375 208.785156 148.378906 210.945312 C 153.414062 213.101562 151.976562 223.175781 158.453125 220.296875 C 164.929688 217.421875 172.972656 214.183594 164.8125 209.863281 C 156.652344 205.546875 154.136719 212.382812 153.058594 207.347656 C 151.976562 202.308594 157.015625 198.351562 153.058594 197.632812 C 149.097656 196.914062 151.617188 197.992188 145.863281 197.632812 C 140.105469 197.273438 136.507812 198.351562 133.628906 194.035156 C 130.75 189.71875 128.234375 187.199219 124.273438 191.878906 C 120.320312 196.554688 116.632812 201.949219 115.957031 198.351562 C 115.28125 194.753906 115.640625 187.921875 120.679688 186.480469 C 125.714844 185.039062 135.789062 185.039062 135.429688 180.726562 C 135.070312 176.40625 131.113281 178.925781 135.070312 176.40625 C 139.023438 173.890625 139.386719 180.003906 142.621094 176.40625 C 145.863281 172.808594 142.984375 173.527344 141.542969 169.933594 C 140.105469 166.335938 138.664062 155.148438 146.941406 163.082031 C 155.214844 171.011719 159.171875 175.6875 154.855469 177.128906 C 150.539062 178.566406 142.984375 184.683594 149.097656 184.324219 C 155.214844 183.960938 157.015625 173.171875 159.171875 177.847656 C 161.332031 182.523438 151.976562 189.71875 157.015625 191.15625 C 162.050781 192.597656 167.445312 187.199219 166.367188 193.675781 C 165.289062 200.152344 160.019531 209.144531 164.8125 207.347656 C 169.605469 205.546875 173.5625 201.949219 172.84375 196.195312 C 172.125 190.4375 166.726562 186.121094 171.402344 186.121094 C 176.082031 186.121094 184.355469 189.359375 182.195312 183.960938 C 180.039062 178.566406 182.558594 176.046875 185.433594 176.40625 C 188.3125 176.769531 191.292969 183.601562 194.300781 179.644531 C 197.308594 175.6875 203.78125 185.039062 200.183594 187.921875 C 196.585938 190.796875 188.054688 194.035156 194.300781 196.554688 C 200.546875 199.074219 203.421875 206.628906 205.941406 197.992188 C 208.460938 189.359375 212.066406 191.15625 212.601562 186.480469 C 213.136719 181.804688 206.660156 180.363281 205.222656 176.769531 C 203.78125 173.171875 204.289062 163.457031 208.53125 167.773438 C 212.777344 172.089844 214.402344 177.484375 218.085938 177.484375 C 221.769531 177.484375 230.765625 180.726562 227.167969 186.121094 C 223.570312 191.519531 211.699219 195.476562 220.691406 197.632812 C 229.683594 199.789062 237.238281 194.753906 233.28125 200.871094 C 229.324219 206.984375 221.050781 209.582031 219.972656 212.601562 C 218.894531 215.621094 208.820312 223.808594 221.769531 220.613281 C 234.722656 217.421875 243.714844 207.0625 240.839844 212.601562 C 237.960938 218.140625 234.003906 228.933594 225.367188 227.492188 C 216.734375 226.054688 199.464844 227.132812 205.582031 231.8125 C 211.699219 236.484375 224.648438 230.730469 220.691406 235.769531 C 216.734375 240.804688 208.460938 241.882812 204.863281 240.085938 C 201.265625 238.285156 204.140625 231.089844 195.867188 237.925781 C 187.59375 244.761719 201.726562 243.324219 194.300781 246.5625 C 186.875 249.796875 178.960938 238.644531 176.800781 245.121094 C 174.640625 251.597656 169.964844 262.390625 185.074219 257.714844 C 200.183594 253.035156 200.546875 245.839844 206.300781 251.957031 C 212.058594 258.074219 196.015625 268.507812 208.53125 262.75 C 221.050781 256.992188 212.058594 250.15625 220.332031 248.359375 C 228.605469 246.5625 232.5625 254.835938 233.644531 245.839844 C 234.722656 236.847656 227.167969 232.171875 236.878906 230.730469 C 246.59375 229.292969 253.070312 230.371094 251.269531 222.457031 C 249.472656 214.539062 251.632812 209.863281 255.226562 210.226562 C 258.824219 210.585938 266.382812 213.101562 263.144531 204.828125 C 259.90625 196.554688 257.769531 192.597656 266.03125 196.914062 C 274.296875 201.230469 273.949219 217.421875 281.496094 209.863281 C 289.046875 202.308594 295.464844 203.75 294.59375 208.066406 C 293.722656 212.382812 276.453125 217.695312 287.246094 220.613281 C 298.039062 223.535156 303.4375 220.296875 302.355469 224.613281 C 301.277344 228.933594 298.398438 229.292969 296.238281 230.730469 C 294.082031 232.171875 275.308594 231.8125 284.695312 237.207031 C 294.082031 242.605469 304.785156 230.730469 302.492188 237.566406 C 300.199219 244.402344 295.628906 246.921875 292.515625 248 C 289.40625 249.078125 272.152344 252.316406 281.496094 256.273438 C 290.84375 260.230469 296.238281 265.269531 299.117188 257.355469" fill="#2e532e"/></g><g id="change2_2"><path d="M 383.492188 266.179688 C 381.023438 265.980469 379.609375 265.699219 378.761719 264.890625 C 379.34375 265.71875 379.703125 266.898438 379.703125 268.507812 C 379.703125 274.042969 378.15625 277.070312 374.921875 280.839844 C 377.410156 280.855469 378.929688 280.875 379.347656 280.894531 C 386.507812 281.273438 389.898438 278.261719 394.046875 274.867188 C 398.191406 271.476562 392.160156 271.097656 391.78125 266.179688 C 391.40625 261.261719 388.390625 266.574219 383.492188 266.179688" fill="#2e532e"/></g></g></svg>