<?xml version="1.0" encoding="UTF-8"?><svg xmlns="http://www.w3.org/2000/svg" xmlns:xlink="http://www.w3.org/1999/xlink" clip-rule="evenodd" fill-rule="evenodd" height="48.9" preserveAspectRatio="xMidYMid meet" stroke-linejoin="round" stroke-miterlimit="2" version="1.0" viewBox="-0.0 0.0 220.0 48.9" width="220.0" zoomAndPan="magnify"><g id="change1_1"><path d="M279,2046.44L59,2046.44L59,2052.89L279,2052.89L279,2046.44ZM279,2004L59,2004L59,2010.45L279,2010.45L279,2004Z" fill="#a5a5a5" transform="translate(-59 -2004)"/></g><g id="change2_1"><path d="M496.716 719.298H917.903V1140.4850000000001H496.716z" fill="#464a51" transform="matrix(.52233 0 0 .08543 -259.452 -55)"/></g><g id="change3_1"><path d="M265.25,2514.78C265.25,2513.09 263.881,2511.72 262.194,2511.72L240.806,2511.72C239.119,2511.72 237.75,2513.09 237.75,2514.78C237.75,2516.46 239.119,2517.83 240.806,2517.83L262.194,2517.83C263.881,2517.83 265.25,2516.46 265.25,2514.78ZM210.25,2514.78C210.25,2513.09 208.881,2511.72 207.194,2511.72L185.806,2511.72C184.119,2511.72 182.75,2513.09 182.75,2514.78C182.75,2516.46 184.119,2517.83 185.806,2517.83L207.194,2517.83C208.881,2517.83 210.25,2516.46 210.25,2514.78ZM155.25,2514.78C155.25,2513.09 153.881,2511.72 152.194,2511.72L130.806,2511.72C129.119,2511.72 127.75,2513.09 127.75,2514.78C127.75,2516.46 129.119,2517.83 130.806,2517.83L152.194,2517.83C153.881,2517.83 155.25,2516.46 155.25,2514.78ZM100.25,2514.78C100.25,2513.09 98.881,2511.72 97.194,2511.72L75.806,2511.72C74.119,2511.72 72.75,2513.09 72.75,2514.78C72.75,2516.46 74.119,2517.83 75.806,2517.83L97.194,2517.83C98.881,2517.83 100.25,2516.46 100.25,2514.78Z" fill="#bfbfbf" transform="translate(-59 -2490.33)"/></g></svg>