<?xml version="1.0" encoding="UTF-8"?><svg xmlns="http://www.w3.org/2000/svg" xmlns:xlink="http://www.w3.org/1999/xlink" height="501.2" preserveAspectRatio="xMidYMid meet" version="1.0" viewBox="-1.1 -1.1 303.9 501.2" width="303.9" zoomAndPan="magnify"><g id="change1_1"><path d="M287.45,154.21c0,0-29.65-5.62-36.33,3.29c-0.69,0.92,0,240.38,0,240.38h4.33l0.26-46.25 c6.4,0.46,22.71,1.96,28.74,2.53l0.39,43.72h4.32L287.45,154.21z M258.03,157.5h22.38l0.32,15.44c-6.07,0.07-17.3,0.46-22.89,0.65 L258.03,157.5z M257.79,178.02l23.03-0.75l0.36,17.71l-23.61,1.4L257.79,178.02z M257.49,202.36l23.77-3.08l0.34,16.31l-24.29,1.64 L257.49,202.36z M257.27,221.51l24.41-2.3l0.35,16.85h-24.93L257.27,221.51z M257.04,240.6c5.87-0.18,18.38-0.6,25.06-0.97 l0.65,31.53h-26.08L257.04,240.6z M256.63,275.17l26.19-0.83l0.31,15.17h-26.67L256.63,275.17z M256.4,294.21l26.81-0.68l0.31,15.09 l-27.3,0.8L256.4,294.21z M256.16,314.23c5.97-0.52,21.06-1.32,27.44-1.65l0.38,18.53c-6.2,0.03-22.06,0.1-28.02,0.05L256.16,314.23 z M255.76,347.73l0.17-14.06l28.13,0.95l0.31,15.24L255.76,347.73z M166.76,3.28c-0.22,0.33-0.37,2.64-0.46,6.23h-11.28 c0-3.48-0.01-5.62-0.02-5.64c-0.07-0.12-1.67-0.48-2,0c-0.89,0.61-0.35,61.75,0,62.24l2-0.48c0,0,0-2.13,0.01-5.59l11.56-0.38 c0.11,6.81,0.2,11.42,0.2,11.42l57.03,1.57c0,0-1.2-64.98-3.59-69.36C217.8-1.1,169.74-1.09,166.76,3.28z M166.26,11.69 c-0.03,2.09-0.05,4.48-0.06,7.09c-3.54-0.03-8.79-0.06-11.17-0.02c0-2.6,0-4.99,0-7.06H166.26z M166.4,48.17h-11.38 c0-2.52,0-5.18,0.01-7.91h11.29C166.33,42.95,166.36,45.61,166.4,48.17z M155.02,38.12c0-2.57,0-5.16,0-7.72h11.2 c0.02,2.54,0.04,5.12,0.06,7.7C162.89,38.13,157.47,38.15,155.02,38.12z M166.21,28.24c-3.39,0-8.75,0-11.19,0c0-2.36,0-4.66,0-6.85 l11.17-0.24C166.19,23.4,166.2,25.79,166.21,28.24z M155,57.56c0-2.07,0-4.45,0.01-7.04h11.42c0.03,2.5,0.07,4.88,0.1,7.08 C162.99,57.55,157.47,57.49,155,57.56z" fill="#ABA9A4"/></g><g id="change2_1"><path d="M295.26,116.44h-5.28l1.61,37.87l-4.13-0.1l-0.9-37.77h-7.06l0.92,38.75l-4.12-0.02 c0,0-0.62-30.42-0.78-38.72h-8.79l-0.21,38.67l-5.04-0.03l0.21-38.64h-8.31l-1.23,38.59l-3.56-0.02l0.21-38.58h-7.13l1.21-4.25 h52.38V116.44z M295.26,213.17h-52.38l-1.21,4.25h6.99l1.1,39.39l3.91-0.95v-38.45h6.43c0.8,8.15,2.14,37.02,2.14,37.02l4.5-0.9 l-1.92-36.12h8.76l2.49,38.45h4.34l-1.62-38.45h6.17l1.8,37.02h4.83l-1.31-37.02h4.99V213.17z" fill="#D35B38"/></g><g id="change3_1"><path d="M11.4,74.46c3.68-1.47,230.52-7.36,232,0s2.21,425.54,0,425.54c-0.82,0-32.94,0-73.03,0 c-24.08,0-51.4-43.66-75.81,0c-45.2,0-83.16,0-83.16,0S7.72,75.93,11.4,74.46z" fill="#D9865A"/></g><g id="change2_2"><path d="M300.71,362.75c0,0-3.29-0.02-9.16-0.06l-0.18-33.66h3.88v-4.25h-52.38l-1.21,4.25h8.53l-1.42,33.4 c-5.83-0.03-12.01-0.07-18.46-0.1c-0.32-7.87-1.42-21.42-4.96-37.66c-5.67-25.96-37.89-18.8-42.25-6.56 c-3.16,8.85-2.9,31.91-2.51,43.98c-7.86-0.03-15.83-0.06-23.82-0.09c-0.05-12.46-0.47-34.17-3.86-46.83 c-4.91-18.35-37.44-13.43-43.29-0.66c-5.29,11.55-2.74,35.63-1.07,47.35c-6.48-0.01-12.84-0.02-19.03-0.02 c-0.36-10.21-1.45-27.13-4.75-44.05c-5.24-26.86-42.92-23.91-48.36-6.88c-4.32,13.51-3.72,39.78-3.12,51.06 c-18.82,0.13-30.79,0.37-31.39,0.77c-3.04,2.03-1.52,16.72-1.52,16.72c1.01,3.04,298.31,1.52,300.33,0 C302.74,377.95,300.71,362.75,300.71,362.75z M286.8,329.03l1.07,33.63c-2.7-0.02-5.78-0.04-9.2-0.06l-0.18-33.58H286.8z M273.45,329.03l0.18,33.55c-3.01-0.02-6.23-0.04-9.64-0.06c0.19-9.07,0.56-27.34,0.68-33.49H273.45z M253.63,329.03h7.06 l-0.79,33.47c-2.28-0.01-4.64-0.03-7.06-0.04L253.63,329.03z M0.9,80.58c-2.03-1.52,0-16.72,0-16.72s248.71-2.03,251.75,0 c3.04,2.03,1.52,16.72,1.52,16.72C253.16,83.62,2.93,82.1,0.9,80.58z M1.46,250.95c0.28-0.71,11.62-1.16,29.72-1.42 c-0.24-9.17-0.26-25.17,1.85-37.03c3.14-17.6,28.6-16.66,35.83-9.11c5.95,6.21,7.43,35.66,7.77,45.85c7.65-0.01,15.64-0.01,23.86,0 c-0.76-7.8-1.7-23.22,0.6-38.05c3.26-21.04,38.15-17.33,42.89-1.78c1.32,4.34,1.3,29.15,1.23,39.98c10.34,0.05,20.7,0.11,30.89,0.17 c0.29-5.24,0.82-14.24,1.75-29.69c2.12-35.21,34-27.32,40.98-18.52c5.56,7.01,5.15,36.75,4.76,48.56 c42.53,0.35,74.09,0.71,74.09,0.71s2.53,13.68,0,15.7c-2.53,2.03-294.59,2.41-295.48-0.12C2.19,266.2,0.49,253.42,1.46,250.95z M223.71,148.61c42.25-0.1,73.97-0.15,75.09,0.01c3.39,0.49,1.01,14.19,0,16.64c-1.01,2.45-294.58,0.65-297.64,0 c-1.96-0.41,1.07-17.61,3.03-16.64c0.36,0.18,10.59,0.28,27.03,0.32c-0.37-12.73-0.51-40.19,4.81-46.89 c6.98-8.8,38.85-16.7,40.98,18.52c0.86,14.23,1.37,22.99,1.68,28.38c9.83-0.01,20.23-0.03,30.96-0.05 c-0.07-11.35-0.04-34.61,1.24-38.8c4.75-15.55,39.63-19.26,42.89,1.78c2.19,14.14,1.44,28.81,0.71,36.91 c7.97-0.02,15.94-0.04,23.8-0.06c0.41-11.13,1.99-38.67,7.72-44.65c7.23-7.54,32.69-8.49,35.83,9.11 C223.82,124.38,223.91,139.26,223.71,148.61z M78.27,469.97l2.76-0.08v8.56H26.75v-7.1h3.92c0.24-4.49,0.77-13.73,1.92-32.75 c2.12-35.21,34-27.32,40.98-18.52C79.35,427.38,78.67,459.25,78.27,469.97z M227.35,471.35h3.92v7.1h-54.28v-8.56l2.76,0.08 c-0.4-10.72-1.08-42.6,4.71-49.89c6.98-8.8,38.85-16.7,40.98,18.52C226.58,457.62,227.1,466.86,227.35,471.35z M166.92,406.43 c1.15,1.15,3.45,93.57,3.45,93.57H94.55c0-2.24-1.29-92.27,0-93.57S165.77,405.28,166.92,406.43z" fill="#D35B38"/></g><g id="change4_1"><path d="M70.72,122.86c-3.32-0.06-8.93-0.15-14.78-0.24v-21.35c5.25,0.9,10.14,3.84,12.06,7.79 C69.29,111.71,70.15,116.99,70.72,122.86z M50.69,101.08c-3.54,0.38-6.84,1.86-9.09,4.76c-2.12,2.74-3.36,9.31-4.08,16.51 c3.14,0.03,8,0.1,13.16,0.18C50.67,113.63,50.67,105.12,50.69,101.08z M50.73,148.96c-0.01-4.08-0.03-12.51-0.04-21.32 c-5.45,0-10.51,0-13.61-0.01c-0.73,10.77-0.52,21.24-0.52,21.24C36.74,148.88,43.32,148.93,50.73,148.96z M71.65,148.88 c0.16-0.16,0.2-10.79-0.53-21.27c-3.56,0.01-9.28,0.02-15.17,0.03v21.35C64,149.01,71.53,149,71.65,148.88z M147.91,111.81 c-0.66-3.43-5.99-7.47-12.84-8.37l-0.53,20.96l13.88,0.47C148.52,119.45,148.42,114.5,147.91,111.81z M129.05,103.51 c-3.54,0.55-7.23,2.03-10.72,4.87c-1.63,1.45-2.37,7.99-2.67,15.38l13.36,0.45C129,115.62,129,107.44,129.05,103.51z M148.29,129.54 c-2.97-0.03-8.26-0.16-13.88-0.34l-0.49,19.33c6.98-0.01,13.3-0.03,13.3-0.03S147.96,139.1,148.29,129.54z M129.12,148.55 c-0.02-4.44-0.06-11.85-0.08-19.52c-5.41-0.19-10.51-0.39-13.51-0.57c-0.19,10.05,0.23,20.04,0.23,20.04 C115.99,148.55,122.24,148.56,129.12,148.55z M199.58,104.9c-2.45,0.38-5.22,1.18-8.32,2.56c-2.27,1.4-3.88,7.37-5.01,14.33 l12.57,0.89L199.58,104.9z M215.48,110.8c-0.87-1.65-4.32-5.67-11.15-6.14L204,123.05l13.46,0.96 C216.83,117.4,216.02,111.82,215.48,110.8z M197.71,148.44l0.9-20.95l-13.11-0.42c-1.32,10.58-1.72,21.43-1.72,21.43 C184.03,148.44,190.49,148.43,197.71,148.44z M217.83,128.11l-13.91-0.45l-0.37,20.79c7.5,0.02,14.27,0.05,14.27,0.05 C218.78,145.68,218.5,136.65,217.83,128.11z M186.85,208.37c-1.29,2.65-2.15,7.93-2.72,13.8c3.32-0.06,8.93-0.15,14.78-0.24v-21.35 C193.66,201.49,188.77,204.43,186.85,208.37z M217.33,221.67c-0.72-7.21-1.96-13.78-4.08-16.51c-2.25-2.9-5.56-4.38-9.09-4.76 c0.03,4.04,0.03,12.55,0.02,21.46C209.33,221.77,214.2,221.7,217.33,221.67z M217.77,226.94c-3.09,0.01-8.16,0.01-13.61,0.01 c-0.01,8.82-0.03,17.24-0.04,21.32c7.41-0.04,13.98-0.09,14.17-0.09C218.29,248.19,218.5,237.72,217.77,226.94z M198.91,248.3 v-21.35c-5.9-0.01-11.61-0.02-15.17-0.03c-0.73,10.48-0.69,21.11-0.53,21.27C183.33,248.31,190.86,248.32,198.91,248.3z M119.78,202.75c-6.85,0.9-12.18,4.94-12.84,8.37c-0.51,2.69-0.61,7.64-0.51,13.06l13.88-0.47L119.78,202.75z M139.19,223.07 c-0.31-7.39-1.05-13.93-2.67-15.38c-3.49-2.84-7.18-4.32-10.72-4.87c0.05,3.93,0.05,12.12,0.03,20.71L139.19,223.07z M120.44,228.52 c-5.62,0.17-10.91,0.31-13.88,0.34c0.33,9.55,1.07,18.96,1.07,18.96s6.32,0.02,13.3,0.03L120.44,228.52z M139.33,227.78 c-3,0.17-8.1,0.38-13.51,0.57c-0.02,7.67-0.06,15.08-0.08,19.52c6.87,0.01,13.13,0,13.36-0.04 C139.1,247.82,139.52,237.83,139.33,227.78z M68.6,221.1c-1.13-6.97-2.74-12.94-5.01-14.33c-3.1-1.38-5.86-2.18-8.32-2.56L56.03,222 L68.6,221.1z M39.37,210.12c-0.54,1.02-1.35,6.59-1.98,13.21l13.46-0.96l-0.33-18.39C43.68,204.44,40.24,208.47,39.37,210.12z M69.35,226.39l-13.11,0.42l0.9,20.95c7.22-0.01,13.68,0,13.93,0.07C71.07,247.82,70.68,236.97,69.35,226.39z M50.93,226.98 l-13.91,0.45c-0.68,8.54-0.96,17.57,0.01,20.39c0,0,6.77-0.03,14.27-0.05L50.93,226.98z M62.84,330.14l17.92,0.96 c-0.89-7.7-1.99-14.64-3.25-17.69c-1.88-4.55-7.72-8.88-14.67-9.99V330.14z M43.35,310.57c-2.21,2.94-3.36,10.17-3.92,18.31 l17.18,0.92c0.15-11.07,0.35-21.76,0.6-26.53C52.49,303.79,47.62,305.95,43.35,310.57z M39.32,361.85h16.94 c0.04-4.08,0.13-15.04,0.27-26.57l-17.42-0.5C38.61,348.19,39.32,361.85,39.32,361.85z M62.84,335.46v26.39h20.49 c0,0-0.74-13.08-2.04-25.87L62.84,335.46z M147.69,314.26c-1.48-4.76-7.13-7.55-14.21-7.12l0.41,25.32l15.95,0.04 C149.27,325.44,148.55,318.68,147.69,314.26z M126.49,308.53c-3.9,1.31-7.93,3.54-11.75,6.86c-2.04,2.94-3.38,8.88-3.62,17.01 l15.7,0.04L126.49,308.53z M111.13,338.54c0.22,6.78,1.1,14.67,2.8,23.31h13.29l-0.32-23.62 C120.28,338.43,114.22,338.57,111.13,338.54z M133.98,337.99l0.38,23.85h17.2c0,0-0.45-11.94-1.35-24.45 C146.49,337.54,140.38,337.78,133.98,337.99z M188.54,320.11c-1.97,2.03-2.69,8.6-2.83,15.95l15.14-0.29 c-0.36-9.07-0.69-17.87-0.91-22.26C195.08,314.95,190.66,317.61,188.54,320.11z M206.98,312.43l0.82,23.2l13.46-0.26 c-0.54-5.05-1.25-9.96-2.16-13.84C217.29,314.86,212.4,312.48,206.98,312.43z M185.7,341.65c0.15,10.35,1.09,20.43,1.09,20.43 l15.34-0.1c-0.32-3.91-0.7-12.21-1.07-21.03C194.14,341.3,187.93,341.59,185.7,341.65z M208.74,361.94l14.24-0.09 c0,0-0.26-10.66-1.27-21.96c-3.41,0.18-8.44,0.45-13.72,0.72L208.74,361.94z M41.59,427.1c-1.29,2.65-2.15,7.93-2.72,13.8 c3.32-0.06,8.93-0.15,14.78-0.24v-21.35C48.4,420.22,43.51,423.16,41.59,427.1z M72.07,440.4c-0.72-7.21-1.96-13.78-4.08-16.51 c-2.25-2.9-5.56-4.38-9.09-4.76c0.03,4.04,0.03,12.55,0.02,21.46C64.07,440.5,68.94,440.43,72.07,440.4z M58.91,445.68 c-0.01,8.82-0.03,17.24-0.04,21.32c7.41-0.04,13.98-0.09,14.17-0.09c0,0,0.2-10.47-0.52-21.24 C69.42,445.69,64.35,445.69,58.91,445.68z M37.94,466.92c0.13,0.13,7.66,0.13,15.71,0.11v-21.35c-5.9-0.01-11.61-0.02-15.17-0.03 C37.74,456.13,37.79,466.76,37.94,466.92z M204.36,419.31v21.35c5.85,0.09,11.46,0.19,14.78,0.24c-0.57-5.87-1.43-11.15-2.72-13.8 C214.5,423.16,209.61,420.22,204.36,419.31z M190.02,423.88c-2.12,2.74-3.36,9.31-4.08,16.51c3.14,0.03,8,0.1,13.16,0.18 c-0.01-8.9-0.01-17.41,0.02-21.46C195.58,419.5,192.27,420.98,190.02,423.88z M185.5,445.67c-0.73,10.77-0.52,21.24-0.52,21.24 c0.19,0,6.76,0.05,14.17,0.09c-0.01-4.08-0.03-12.51-0.04-21.32C193.66,445.69,188.59,445.69,185.5,445.67z M204.36,445.68v21.35 c8.05,0.03,15.58,0.02,15.71-0.11c0.16-0.16,0.2-10.79-0.53-21.27C215.98,445.66,210.26,445.67,204.36,445.68z" fill="#FFF6E1"/></g><g id="change5_1"><path d="M132.17,469.89c1.17,23.17-0.12,30.25-0.53,27.94c-0.41-2.3-3.52-95.65-2.53-90.92 C130.31,412.58,130.73,428.2,132.17,469.89z M125.21,449.18c-0.13,0.46-0.17,6.69,0,6.83s1.76,0,1.76,0s0.39-6.49,0.31-6.83 C127.19,448.84,125.31,448.82,125.21,449.18z M135.93,448.98c0.06-0.25-1.84-0.43-1.95,0c-0.15,0.58-0.09,6.95,0.03,7.1 c0.11,0.14,1.64,0.37,1.93,0C136.21,455.71,135.87,449.23,135.93,448.98z M76.15,148.99c0.27-0.51-43.19-1.54-43.74,0 C31.8,150.7,75.87,149.5,76.15,148.99z M152.51,148.99c-0.39-0.87-41.07-2.48-39.84-0.44C113.91,150.59,152.9,149.86,152.51,148.99z M221.5,148.72c0.35-0.94-40.5-2.76-39.62-0.53C182.24,149.09,221.15,149.66,221.5,148.72z M221.5,249.23 c0.17-0.91-43.32-0.72-42.27,0.77S221.33,250.14,221.5,249.23z M142.79,249.23c0.53-1.08-41.21-1.38-40.33,0 C102.92,249.96,142.26,250.31,142.79,249.23z M74.11,249.67c0.7-1.17-41.21-0.99-40.68,0.33C34.62,252.95,73.41,250.85,74.11,249.67 z M35.55,362.08c-0.36,1.81,51.24,1.05,51.42,0S35.9,360.31,35.55,362.08z M109.68,362.09c0.95,1.89,45.96,0.53,46.14,0 C156,361.55,108.98,360.68,109.68,362.09z M183.11,362.19c1.24,1.3,45.09,1.83,45.62,0.42S181.87,360.89,183.11,362.19z" fill="#2B3244"/></g></svg>