<?xml version="1.0" encoding="UTF-8"?><svg xmlns="http://www.w3.org/2000/svg" xmlns:xlink="http://www.w3.org/1999/xlink" height="218.8" preserveAspectRatio="xMidYMid meet" version="1.0" viewBox="-0.2 124.8 492.8 218.8" width="492.8" zoomAndPan="magnify"><defs><clipPath id="a"><path d="M 280 217 L 308 217 L 308 225 L 280 225 Z M 280 217"/></clipPath><clipPath id="b"><path d="M 280.136719 224.019531 L 307.238281 217.828125 C 299.027344 219.730469 289.820312 221.832031 280.136719 224.019531"/></clipPath></defs><g><g><path d="M 185.476562 240.035156 L 185.476562 245.34375 L 167.996094 248.773438 L 185.476562 240.035156" fill="#b1ba1c"/></g><g><path d="M 340.199219 209.652344 C 324.777344 214.789062 167.996094 248.773438 167.996094 248.773438 C 177.25 245.355469 185.476562 240.035156 185.476562 240.035156 C 135.613281 228.726562 111.304688 225.789062 111.304688 225.789062 L 41.375 233.085938 L 8 242.085938 L 8 343.609375 L 492.488281 343.609375 L 468.195312 228.726562 C 436.324219 219.988281 340.199219 209.652344 340.199219 209.652344" fill="#c3d115"/></g><g><path d="M 125.078125 343.183594 L 127.511719 343.609375 L 165.195312 343.609375 L 193.699219 343.183594 L 190.386719 343.609375 L 210.652344 343.609375 L 203.488281 341.8125 L 125.078125 343.183594" fill="#b1ba1c"/></g><g><path d="M 227.113281 327.179688 L 323.75 304.289062 L 290.613281 303.617188 L 307.238281 306.859375 L 275.429688 312.769531 L 265.761719 312.769531 L 245.03125 316.882812 L 251.601562 320.222656 L 227.113281 327.179688" fill="#bfc317"/></g><g><path d="M 8 277.128906 L 8 259.824219 L 89.828125 248.882812 C 90.171875 249.320312 90.488281 249.753906 90.773438 250.179688 L 82.535156 261.503906 L 12.128906 276.261719 L 8 268.378906 L 8 277.128906" fill="#abb21e"/></g><g><path d="M 297.535156 256.523438 L 355.105469 268.308594 L 365.820312 264.246094 L 304.472656 254.753906 L 297.535156 256.523438" fill="#d2da17"/></g><g><path d="M 332.976562 266.910156 C 336.589844 266.921875 346.191406 267.535156 341.605469 274.023438 C 341.464844 274.222656 341.300781 274.410156 341.128906 274.585938 C 339.988281 275.71875 335.664062 279.777344 336.066406 275.511719 C 336.125 274.878906 336.316406 274.261719 336.628906 273.710938 C 337.335938 272.460938 338.5 269.742188 334.855469 270.296875 C 334.519531 270.347656 334.183594 270.347656 333.84375 270.324219 C 332.160156 270.191406 327.859375 269.664062 330.226562 267.8125 C 331.007812 267.203125 331.988281 266.90625 332.976562 266.910156" fill="#d2da17"/></g><g><path d="M 297.535156 256.523438 L 433.4375 221.847656 L 400.902344 217.066406 L 289.308594 242.605469 L 197.8125 287.066406 L 11.996094 343.609375 L 93.867188 343.609375 L 226.597656 296.066406 L 297.535156 256.523438" fill="#d2da17"/></g><g><path d="M 11.996094 343.609375 L 8 343.609375 L 8 277.128906 L 12.128906 276.261719 L 26.699219 304.070312 C 31.703125 313.617188 41.53125 319.359375 51.957031 319.359375 C 54.117188 319.359375 56.304688 319.113281 58.480469 318.601562 L 133.65625 300.96875 L 113.851562 302.746094 L 191.300781 281.238281 L 288.28125 239.347656 L 320.839844 230.96875 L 306.789062 233.433594 L 350.089844 219.144531 L 366.511719 223.417969 L 355.164062 217.46875 L 366.511719 223.417969 L 370.507812 213.351562 L 366.511719 223.417969 L 385.886719 219.296875 L 385.886719 215.230469 L 400.902344 217.066406 L 289.308594 242.605469 L 197.8125 287.066406 L 11.996094 343.609375" fill="#b7c219"/></g><g><path d="M 8 277.128906 L 8 268.378906 L 12.128906 276.261719 L 8 277.128906" fill="#afb71c"/></g><g><path d="M 180.207031 323.308594 L 189.714844 314.054688 L 208.222656 310.457031 L 201.136719 340.003906 L 180.207031 323.308594" fill="#977c8a"/></g><g><path d="M 208.222656 310.457031 L 216.316406 310.457031 L 216.316406 337.058594 L 201.136719 340.003906 L 208.222656 310.457031" fill="#ab909d"/></g><g><path d="M 189.714844 314.054688 L 208.222656 310.457031 L 203.167969 331.53125 L 206.550781 311.484375 L 189.714844 314.054688" fill="#cfb4c1"/></g><g><path d="M 211.175781 310.457031 L 216.316406 310.457031 L 216.316406 337.058594 L 210.132812 338.257812 L 215.160156 336.160156 L 215.417969 311.742188 L 211.175781 310.457031" fill="#cfb4c1"/></g><g><path d="M 180.207031 323.308594 L 188.472656 321.59375 L 202.359375 337.179688 Z M 180.207031 323.308594" fill="#876e7c"/></g><g><path d="M 199.609375 333.886719 C 199.511719 333.886719 199.417969 333.828125 199.375 333.738281 L 193.980469 321.742188 C 193.921875 321.613281 193.980469 321.460938 194.109375 321.402344 C 194.238281 321.34375 194.390625 321.402344 194.449219 321.53125 L 199.515625 332.796875 L 203.171875 314.722656 L 192.691406 315.511719 C 192.550781 315.527344 192.425781 315.414062 192.414062 315.273438 C 192.402344 315.132812 192.511719 315.011719 192.652344 315 L 203.472656 314.183594 L 203.683594 314.269531 L 203.742188 314.492188 L 199.863281 333.683594 C 199.839844 333.792969 199.75 333.875 199.640625 333.886719 L 199.609375 333.886719" fill="#cfb4c1"/></g><g><path d="M 200.492188 329.523438 C 200.394531 329.523438 200.300781 329.46875 200.257812 329.371094 L 196.3125 320.328125 C 196.257812 320.195312 196.316406 320.046875 196.445312 319.988281 C 196.578125 319.933594 196.730469 319.992188 196.785156 320.121094 L 200.730469 329.164062 C 200.785156 329.296875 200.726562 329.445312 200.597656 329.503906 L 200.492188 329.523438" fill="#cfb4c1"/></g><g><path d="M 213.226562 333.886719 C 213.082031 333.886719 212.96875 333.773438 212.96875 333.632812 L 212.96875 314.105469 L 210.308594 313.109375 L 207.828125 322.601562 C 207.789062 322.738281 207.652344 322.824219 207.511719 322.785156 C 207.375 322.75 207.292969 322.609375 207.328125 322.472656 L 209.882812 312.703125 L 210.015625 312.542969 L 210.222656 312.53125 L 213.316406 313.6875 C 213.414062 313.722656 213.480469 313.820312 213.480469 313.925781 L 213.480469 333.632812 C 213.480469 333.773438 213.367188 333.886719 213.226562 333.886719" fill="#cfb4c1"/></g><g><path d="M 211.304688 329.523438 C 211.164062 329.523438 211.046875 329.410156 211.046875 329.269531 L 211.046875 316.882812 C 211.046875 316.742188 211.164062 316.625 211.304688 316.625 C 211.445312 316.625 211.5625 316.742188 211.5625 316.882812 L 211.5625 329.269531 C 211.5625 329.410156 211.445312 329.523438 211.304688 329.523438" fill="#cfb4c1"/></g><g><path d="M 163.820312 337.703125 L 169.027344 335.304688 L 166.421875 323.308594 L 188.089844 323.308594 L 205.007812 339.757812 L 172.453125 341.8125 L 163.820312 337.703125" fill="#ab909d"/></g><g><path d="M 163.820312 337.703125 L 169.027344 335.304688 L 166.421875 323.308594 L 162.171875 332.5625 L 163.820312 337.703125" fill="#977c8a"/></g><g><path d="M 205.007812 339.757812 L 172.453125 341.8125 L 163.820312 337.703125 L 169.027344 335.304688 L 196.269531 336.160156 L 205.007812 339.757812" fill="#977c8a"/></g><g><path d="M 188.089844 323.308594 L 205.007812 339.757812 L 196.269531 336.160156 Z M 188.089844 323.308594" fill="#977c8a"/></g><g><path d="M 166.421875 323.308594 L 169.027344 335.304688 L 172.453125 341.8125 L 170.738281 335.644531 L 196.269531 336.160156 L 171.082031 334.445312 L 166.421875 323.308594" fill="#cfb4c1"/></g><g><path d="M 170.4375 323.308594 L 188.089844 323.308594 L 194.660156 333.632812 L 188.089844 324.679688 L 180.335938 324.679688 L 184.414062 328.46875 L 181.347656 328.46875 L 185.644531 332.5625 L 176.609375 328.46875 L 181.347656 327.25 L 178.535156 324.765625 L 170.4375 323.308594" fill="#cfb4c1"/></g><g><path d="M 179.050781 327.421875 L 178.863281 327.339844 L 177.449219 325.847656 L 170.398438 323.566406 L 167.828125 323.566406 L 174.835938 326.21875 C 174.96875 326.265625 175.035156 326.414062 174.984375 326.546875 C 174.933594 326.679688 174.785156 326.746094 174.652344 326.695312 L 166.332031 323.550781 C 166.214844 323.503906 166.148438 323.382812 166.167969 323.261719 C 166.191406 323.140625 166.296875 323.050781 166.421875 323.050781 L 170.4375 323.050781 L 170.519531 323.0625 L 177.671875 325.378906 L 177.78125 325.445312 L 179.234375 326.988281 C 179.335938 327.089844 179.328125 327.253906 179.226562 327.351562 L 179.050781 327.421875" fill="#cfb4c1"/></g><g><path d="M 129.453125 343.183594 C 129.453125 343.183594 142.945312 332.109375 155.851562 330.503906 C 155.851562 330.503906 169.804688 328.804688 188.089844 335.996094 L 203.488281 341.8125 L 129.453125 343.183594" fill="#c3d115"/></g><g><path d="M 203.488281 341.8125 L 192.671875 342.015625 C 189.097656 338.636719 185.296875 335.925781 181.347656 333.660156 L 203.488281 341.8125" fill="#b1ba1c"/></g><g><path d="M 186.75 342.125 C 183.488281 337.117188 178.816406 333.511719 172.496094 331.53125 C 172.496094 331.53125 169.40625 330.503906 164.460938 330.503906 C 164.707031 337.796875 159.746094 341.0625 152.746094 342.753906 L 186.75 342.125" fill="#b1ba1c"/></g><g><path d="M 129.453125 343.183594 C 129.453125 343.183594 149.75 322.667969 179.050781 333.011719 C 179.050781 333.011719 152.539062 326.820312 141.25 343.183594 L 129.453125 343.183594" fill="#e2e81a"/></g><g clip-path="url(#a)"><g clip-path="url(#b)"><path d="M 280.136719 224.019531 L 307.238281 224.019531 L 307.238281 217.828125 L 280.136719 217.828125 Z M 280.136719 224.019531" fill="#cdd455"/></g></g><g><path d="M 55.476562 293.902344 C 51.09375 293.902344 55.394531 292.214844 78.085938 287.148438 C 78.085938 287.148438 -0.199219 271.652344 50.566406 271.652344 C 54.230469 271.652344 58.5625 271.730469 63.648438 271.90625 C 63.648438 271.90625 102.902344 268.214844 90.773438 250.179688 L 91.921875 248.601562 L 89.828125 248.882812 C 88.617188 247.328125 87.035156 245.671875 85.03125 243.910156 C 85.03125 243.910156 100.027344 234.003906 105.109375 234.003906 C 106.597656 234.003906 107.234375 234.855469 106.394531 237.054688 C 104.683594 241.527344 104.859375 246.546875 107.265625 250.6875 C 111.238281 257.519531 120.457031 265.445312 141.828125 265.445312 C 158.339844 265.445312 182.101562 260.71875 216.316406 247.101562 L 280.136719 224.019531 C 289.820312 221.832031 299.027344 219.730469 307.238281 217.828125 C 307.003906 217.972656 194.128906 287.148438 112.929688 287.148438 C 112.816406 287.148438 112.703125 287.148438 112.589844 287.148438 C 112.542969 287.148438 112.496094 287.148438 112.449219 287.148438 C 109.132812 287.148438 105.824219 287.433594 102.546875 287.933594 C 90.402344 289.769531 62.328125 293.902344 55.476562 293.902344" fill="#b7c219"/></g><g><path d="M 90.773438 250.179688 C 90.488281 249.753906 90.171875 249.320312 89.828125 248.882812 L 91.921875 248.601562 L 90.773438 250.179688" fill="#afb71c"/></g><g><path d="M 158.433594 242.941406 L 119.855469 233.433594 L 110.941406 230.21875 L 82.535156 229.464844 L 111.304688 225.789062 L 185.476562 240.035156 L 176.222656 240.035156 L 158.433594 242.941406" fill="#b7c219"/></g><g><path d="M 117.578125 230.167969 C 117.578125 230.167969 106.304688 222.710938 118.960938 207.917969 C 118.960938 207.917969 116.890625 214.191406 117.121094 215.394531 C 117.121094 215.394531 121.492188 208.378906 120.109375 203.167969 C 120.109375 203.167969 122.261719 207.796875 120.378906 213 C 120.378906 213 125.402344 193.664062 132.074219 204.554688 L 132.074219 201.230469 L 133.457031 205.636719 C 133.457031 205.636719 134.835938 204.386719 137.828125 203.933594 C 137.828125 203.933594 133.226562 206.839844 133.914062 209.992188 C 133.914062 209.992188 137.945312 212.683594 137.828125 219.765625 C 137.828125 219.765625 139.136719 228.191406 130.695312 230.167969 L 117.578125 230.167969" fill="#c3d115"/></g><g><path d="M 117.578125 230.167969 C 117.578125 230.167969 106.417969 223.265625 118.960938 207.917969 C 118.960938 207.917969 114.855469 214.859375 115.980469 218.964844 C 115.980469 218.964844 117.277344 221.945312 117.109375 225.078125 C 117.109375 225.078125 118.210938 221.292969 117.363281 218.964844 C 117.363281 218.964844 117.101562 216.96875 118.960938 214.238281 L 118.960938 216.320312 C 118.960938 216.320312 123.617188 212.40625 124.132812 206.601562 C 124.132812 206.601562 125.132812 211.003906 121.21875 216.972656 C 121.21875 216.972656 122.953125 215.359375 125.425781 211.078125 C 125.425781 211.078125 124.90625 217.851562 120.878906 219.871094 L 126.703125 215.695312 C 126.703125 215.695312 117.710938 225.445312 117.578125 230.167969" fill="#b1ba1c"/></g><g><path d="M 137.828125 219.765625 C 137.828125 219.765625 138.386719 213.488281 133.914062 209.992188 C 133.914062 209.992188 136.382812 213.703125 135.613281 216.972656 L 133.914062 212.15625 C 133.320312 218.304688 129.449219 223.691406 124.027344 228.726562 L 137.828125 219.765625" fill="#b1ba1c"/></g><g><path d="M 117.578125 230.425781 L 117.542969 230.425781 C 117.402344 230.402344 117.304688 230.273438 117.324219 230.132812 C 117.351562 229.953125 118.050781 225.617188 124.539062 217.800781 C 126.449219 215.496094 127.773438 212.789062 128.371094 209.964844 C 128.738281 208.222656 129.007812 206.867188 129.242188 205.660156 C 129.480469 204.464844 129.683594 203.425781 129.929688 202.300781 C 129.648438 202.039062 128.734375 201.304688 127.542969 201.476562 C 126.089844 201.6875 124.648438 203.195312 123.382812 205.835938 C 123.320312 205.964844 123.164062 206.019531 123.039062 205.957031 C 122.910156 205.894531 122.855469 205.742188 122.917969 205.613281 C 124.285156 202.765625 125.816406 201.203125 127.476562 200.964844 C 129.1875 200.71875 130.351562 201.992188 130.402344 202.046875 L 130.460938 202.273438 C 130.203125 203.445312 129.992188 204.515625 129.746094 205.757812 C 129.511719 206.96875 129.242188 208.328125 128.875 210.070312 C 128.261719 212.976562 126.898438 215.761719 124.9375 218.128906 C 118.535156 225.835938 117.839844 230.164062 117.835938 230.207031 C 117.816406 230.335938 117.707031 230.425781 117.578125 230.425781" fill="#f3ed71"/></g><g><path d="M 137.828125 220.023438 L 137.824219 220.023438 C 137.683594 220.023438 137.570312 219.90625 137.570312 219.765625 C 137.570312 219.691406 137.566406 212.574219 133.78125 210.210938 L 133.667969 210.054688 C 133.640625 209.945312 133.070312 207.484375 136.847656 204.367188 C 135.214844 204.773438 132.085938 206.058594 131.191406 210.046875 C 131.160156 210.1875 131.019531 210.269531 130.882812 210.242188 C 130.746094 210.210938 130.65625 210.074219 130.6875 209.933594 C 131.976562 204.203125 137.75 203.683594 137.808594 203.675781 C 137.925781 203.667969 138.027344 203.734375 138.066406 203.84375 C 138.109375 203.953125 138.070312 204.074219 137.976562 204.140625 C 134.042969 207.007812 134.089844 209.351562 134.148438 209.835938 C 138.085938 212.40625 138.085938 219.464844 138.085938 219.765625 C 138.082031 219.910156 137.96875 220.023438 137.828125 220.023438" fill="#f3ed71"/></g><g><path d="M 117.578125 224.617188 C 117.480469 224.617188 117.390625 224.5625 117.347656 224.46875 C 115.097656 219.539062 116.808594 215.460938 116.882812 215.289062 L 116.910156 215.242188 C 121.167969 209.28125 119.875 203.285156 119.859375 203.226562 C 119.828125 203.085938 119.914062 202.949219 120.054688 202.917969 C 120.191406 202.882812 120.328125 202.972656 120.359375 203.109375 C 120.375 203.171875 121.722656 209.367188 117.347656 215.519531 C 117.210938 215.855469 115.75 219.730469 117.8125 224.253906 C 117.871094 224.382812 117.816406 224.535156 117.6875 224.59375 L 117.578125 224.617188" fill="#f3ed71"/></g><g><path d="M 122.078125 230.21875 L 135.613281 219.871094 L 182.90625 224.078125 L 176.222656 240.035156 L 122.078125 230.21875" fill="#ab909d"/></g><g><path d="M 182.90625 224.078125 L 176.222656 240.035156 L 181.382812 239.246094 L 186.191406 222.730469 L 182.90625 224.078125" fill="#977c8a"/></g><g><path d="M 135.613281 219.871094 L 182.90625 224.078125 L 186.191406 222.730469 L 140.066406 218.964844 L 135.613281 219.871094" fill="#baa0ad"/></g><g><path d="M 176.222656 240.035156 L 182.90625 224.078125 L 135.613281 219.871094 L 133.023438 221.847656 L 139.039062 220.976562 L 157.964844 222.730469 L 146.578125 225.328125 L 150.007812 226.777344 L 143.984375 231.296875 L 153.433594 226.777344 L 151.035156 225.789062 L 165.597656 224.019531 L 177.421875 224.359375 L 178.964844 229.953125 L 176.222656 240.035156" fill="#977c8a"/></g><g><path d="M 176.222656 240.292969 L 176.121094 240.269531 C 175.992188 240.21875 175.929688 240.066406 175.984375 239.933594 L 182.53125 224.304688 L 135.589844 220.125 C 135.449219 220.113281 135.34375 219.988281 135.355469 219.847656 C 135.371094 219.703125 135.492188 219.609375 135.636719 219.613281 L 182.929688 223.824219 L 183.125 223.949219 L 183.140625 224.179688 L 176.460938 240.132812 C 176.417969 240.230469 176.324219 240.292969 176.222656 240.292969" fill="#cfb4c1"/></g><g><path d="M 135.613281 232.929688 L 135.566406 232.925781 L 122.03125 230.472656 C 121.890625 230.445312 121.800781 230.3125 121.824219 230.171875 C 121.847656 230.03125 121.980469 229.941406 122.121094 229.964844 L 135.5625 232.402344 L 143.855469 227.4375 C 143.976562 227.363281 144.132812 227.402344 144.207031 227.523438 C 144.277344 227.644531 144.238281 227.804688 144.117188 227.878906 L 135.746094 232.894531 L 135.613281 232.929688" fill="#cfb4c1"/></g><g><path d="M 133.03125 229.519531 L 132.976562 229.511719 L 125.375 227.90625 C 125.234375 227.878906 125.148438 227.742188 125.175781 227.601562 C 125.203125 227.464844 125.34375 227.378906 125.480469 227.40625 L 133.085938 229.007812 C 133.222656 229.039062 133.3125 229.175781 133.28125 229.3125 C 133.257812 229.433594 133.152344 229.519531 133.03125 229.519531" fill="#cfb4c1"/></g><g><path d="M 132.359375 226.046875 L 132.308594 226.039062 L 128.75 225.328125 C 128.609375 225.304688 128.519531 225.167969 128.546875 225.027344 C 128.574219 224.890625 128.710938 224.796875 128.851562 224.824219 L 132.40625 225.535156 C 132.546875 225.5625 132.636719 225.699219 132.609375 225.839844 C 132.585938 225.960938 132.476562 226.046875 132.359375 226.046875" fill="#cfb4c1"/></g><g><path d="M 171.488281 237.191406 L 171.371094 237.160156 C 171.246094 237.09375 171.195312 236.9375 171.261719 236.8125 L 174.738281 230.210938 L 173.320312 227.046875 L 160.132812 227.914062 C 159.992188 227.925781 159.867188 227.816406 159.859375 227.675781 C 159.851562 227.53125 159.957031 227.410156 160.097656 227.398438 L 173.464844 226.519531 C 173.570312 226.511719 173.671875 226.574219 173.714844 226.671875 L 175.257812 230.113281 L 175.25 230.339844 L 171.71875 237.050781 C 171.671875 237.140625 171.582031 237.191406 171.488281 237.191406" fill="#cfb4c1"/></g><g><path d="M 167.570312 231.226562 C 167.4375 231.226562 167.328125 231.128906 167.3125 230.992188 C 167.300781 230.851562 167.402344 230.726562 167.542969 230.714844 L 174.996094 229.964844 C 175.140625 229.945312 175.265625 230.050781 175.277344 230.191406 C 175.292969 230.335938 175.191406 230.460938 175.050781 230.472656 L 167.59375 231.222656 L 167.570312 231.226562" fill="#cfb4c1"/></g><g><path d="M 140.605469 233.578125 L 174.367188 239.699219 L 154.976562 234.378906 L 160.902344 230.59375 L 151.109375 233.433594 L 140.605469 233.578125" fill="#977c8a"/></g><g><path d="M 172.734375 239.402344 L 140.605469 233.578125 C 140.605469 233.578125 143.089844 229.046875 141.78125 225.078125 C 141.78125 225.078125 143.195312 228.726562 142.167969 232.324219 C 142.167969 232.324219 148.078125 217.214844 143.324219 232.671875 C 143.324219 232.671875 145.378906 231.039062 145.894531 228.726562 C 145.894531 228.726562 146.019531 231.941406 145.121094 233.089844 C 145.121094 233.089844 148.808594 231.929688 152.492188 235.144531 L 154.117188 229.261719 C 154.117188 229.261719 156.433594 224.21875 153.21875 235.144531 C 153.21875 235.144531 154.296875 232.441406 157.484375 230.96875 C 157.484375 230.96875 154.117188 234.046875 154.503906 235.5625 L 156.671875 233.8125 C 156.671875 233.8125 155.660156 236.324219 163.242188 237.28125 C 163.242188 237.28125 165.171875 235.394531 163.5 230.96875 C 163.5 230.96875 165.839844 232.546875 164.285156 236.933594 L 166.199219 234.378906 L 165.550781 237.28125 C 165.550781 237.28125 172.367188 226.925781 166.839844 237.722656 C 166.839844 237.722656 171.859375 232.238281 168.644531 238.128906 L 172.734375 239.402344" fill="#c3d115"/></g><g><path d="M 16.257812 203.914062 C 16.257812 203.914062 10.789062 219.113281 8.269531 226.777344 C 20.25 238.230469 33.1875 241.042969 47.039062 235.5625 C 47.039062 235.5625 34.042969 200.355469 33.386719 184.316406 C 33.386719 184.316406 31.066406 159.710938 20.25 175.992188 C 20.25 175.992188 16.191406 192.484375 8 205.535156 L 8 211.664062 C 10.535156 209.8125 13.378906 207.300781 16.257812 203.914062" fill="#6c6b22"/></g><g><path d="M 47.039062 235.820312 L 46.832031 235.714844 C 46.636719 235.449219 27.453125 208.90625 26.011719 178.257812 C 26.003906 178.113281 26.113281 177.992188 26.253906 177.988281 C 26.402344 177.972656 26.519531 178.089844 26.523438 178.230469 C 27.960938 208.726562 47.050781 235.148438 47.246094 235.410156 C 47.328125 235.523438 47.304688 235.6875 47.191406 235.769531 L 47.039062 235.820312" fill="#949122"/></g><g><path d="M 42.996094 237.191406 L 42.800781 237.101562 C 25.804688 217.277344 23.53125 182.039062 23.507812 181.6875 C 23.5 181.546875 23.609375 181.425781 23.75 181.414062 C 23.898438 181.402344 24.015625 181.515625 24.023438 181.65625 C 24.042969 182.007812 26.308594 217.074219 43.191406 236.765625 C 43.28125 236.871094 43.269531 237.035156 43.160156 237.128906 L 42.996094 237.191406" fill="#949122"/></g><g><path d="M 36.652344 238.386719 L 36.433594 238.261719 C 36.292969 238.035156 22.460938 215.25 20.707031 189.285156 C 20.699219 189.144531 20.804688 189.023438 20.945312 189.011719 C 21.097656 189.003906 21.210938 189.109375 21.21875 189.253906 C 22.964844 215.089844 36.734375 237.769531 36.871094 237.992188 C 36.945312 238.113281 36.90625 238.273438 36.785156 238.347656 L 36.652344 238.386719" fill="#949122"/></g><g><path d="M 31.570312 238.523438 L 31.386719 238.445312 C 22.09375 228.679688 18.472656 197.519531 18.4375 197.203125 C 18.421875 197.0625 18.523438 196.9375 18.664062 196.921875 C 18.804688 196.902344 18.933594 197.007812 18.949219 197.148438 C 18.984375 197.460938 22.585938 228.449219 31.757812 238.089844 C 31.855469 238.191406 31.851562 238.355469 31.75 238.453125 L 31.570312 238.523438" fill="#949122"/></g><g><path d="M 22.417969 179.636719 L 27.066406 175.65625 L 33.386719 199.550781 C 33.386719 199.550781 28.367188 190.949219 26.308594 179.378906 C 26.308594 179.378906 20.445312 197.460938 15.578125 200.996094 C 15.578125 200.996094 21.457031 183.90625 22.417969 179.636719" fill="#5f581e"/></g><g><path d="M 35.058594 169.136719 C 35.058594 169.136719 38.769531 204.0625 57.542969 221.847656 C 57.542969 221.847656 49.035156 219.824219 43.542969 213.230469 L 45.375 210.671875 L 42.378906 212.53125 C 42.378906 212.53125 36.085938 206.082031 34.390625 200.890625 L 36.554688 196.738281 L 33.386719 199.550781 C 33.386719 199.550781 25.625 181.03125 25.476562 168.035156 C 25.476562 168.035156 30.464844 155.164062 35.058594 169.136719" fill="#797a23"/></g><g><path d="M 11.265625 183.542969 L 11.597656 188.269531 C 11.597656 188.269531 16.9375 186.386719 18.585938 183.542969 L 18.917969 177.492188 L 19.417969 182.636719 C 19.417969 182.636719 25.570312 176.980469 26.820312 171.34375 L 26.179688 147.164062 C 26.179688 147.164062 23.929688 167.0625 8 184.175781 L 8 190.855469 C 8.75 190.351562 9.496094 189.789062 10.238281 189.167969 L 11.265625 183.542969" fill="#797a23"/></g><g><path d="M 24.847656 163.78125 C 24.847656 163.78125 23.246094 183.890625 16.257812 199.550781 C 16.257812 199.550781 29.066406 178.78125 28.734375 164.851562 C 28.734375 164.851562 29.976562 180.328125 30.800781 189.910156 C 30.800781 189.910156 33.257812 167.421875 32.410156 163.78125 C 32.410156 163.78125 33.726562 183.714844 48.035156 189.390625 C 48.035156 189.390625 36.390625 176.207031 36.054688 159.28125 L 32.144531 149.179688 L 24.847656 163.78125" fill="#797a23"/></g><g><path d="M 20.195312 163.390625 L 20.257812 160.738281 L 20.882812 163.390625 C 22.816406 162.90625 24.25 157.121094 24.25 157.121094 C 24.375 161.21875 19.695312 182.753906 19.695312 182.753906 C 23.441406 178.816406 29.117188 158.890625 29.117188 158.890625 C 29.117188 177.691406 33.386719 182.753906 33.386719 182.753906 C 32.851562 178.578125 33.046875 156.882812 33.046875 156.882812 C 37.042969 173.355469 47.039062 168.171875 47.039062 168.171875 C 35.320312 171.1875 32.78125 153.226562 32.78125 153.226562 C 31.660156 161.878906 32.9375 181.183594 32.9375 181.183594 C 29.832031 174.628906 29.464844 155.035156 29.464844 155.035156 C 27.6875 163.554688 19.988281 181.671875 19.988281 181.671875 C 23.335938 169.984375 25.933594 150.039062 25.933594 150.039062 C 23.625 160.554688 21.214844 162.253906 21.214844 162.253906 L 19.988281 158.210938 L 19.988281 162.710938 C 17.980469 169.113281 11.007812 172.359375 8 173.484375 L 8 173.871094 C 16.390625 172.867188 20.195312 163.390625 20.195312 163.390625" fill="#6c6b22"/></g><g><path d="M 19.988281 162.710938 L 19.988281 158.210938 L 21.351562 162.710938 C 21.351562 162.710938 25.445312 156.808594 26.179688 147.164062 C 26.179688 147.164062 25.445312 160.460938 19.988281 181.671875 C 19.988281 181.671875 27.257812 165.328125 29.464844 155.035156 C 29.464844 155.035156 29.832031 173.636719 32.96875 181.671875 C 32.96875 181.671875 31.847656 163.996094 32.78125 153.226562 C 32.78125 153.226562 35.363281 171.386719 47.039062 168.171875 C 47.039062 168.171875 37.945312 165.921875 28.542969 124.78125 C 28.542969 124.78125 20.808594 163.121094 8 173.007812 L 8 173.53125 C 10.996094 172.503906 17.925781 169.449219 19.988281 162.710938" fill="#888d23"/></g><g><path d="M 24.5625 165.09375 L 24.484375 165.082031 C 24.359375 165.042969 24.285156 164.917969 24.308594 164.789062 C 25.476562 158.453125 25.757812 149.261719 25.761719 149.171875 C 25.765625 149.027344 25.898438 148.929688 26.027344 148.921875 C 26.167969 148.925781 26.28125 149.042969 26.277344 149.1875 C 26.273438 149.269531 26.046875 156.707031 25.148438 162.839844 C 26.425781 159.796875 28.773438 153.6875 29.171875 149.15625 C 29.183594 149.023438 29.296875 148.921875 29.429688 148.921875 L 29.433594 148.921875 C 29.570312 148.925781 29.679688 149.03125 29.6875 149.164062 C 29.691406 149.261719 30.09375 157.1875 30.613281 161.109375 C 30.855469 157.996094 31.371094 152.125 31.90625 150.683594 C 31.941406 150.585938 32.039062 150.511719 32.148438 150.515625 C 32.257812 150.519531 32.351562 150.589844 32.390625 150.691406 C 32.425781 150.796875 35.878906 160.558594 41.175781 162.734375 C 38.9375 160.515625 33.15625 153.28125 31.316406 136.5 C 31.300781 136.359375 31.402344 136.230469 31.542969 136.214844 C 31.6875 136.199219 31.808594 136.304688 31.828125 136.445312 C 34.054688 156.746094 42.285156 163.050781 42.367188 163.109375 C 42.464844 163.183594 42.496094 163.3125 42.449219 163.421875 C 42.402344 163.53125 42.285156 163.597656 42.164062 163.570312 C 36.835938 162.527344 33.203125 154.222656 32.1875 151.617188 C 31.5625 154.613281 30.988281 162.992188 30.980469 163.085938 C 30.972656 163.207031 30.882812 163.308594 30.761719 163.324219 C 30.644531 163.347656 30.523438 163.269531 30.484375 163.152344 C 29.972656 161.695312 29.53125 155.324219 29.3125 151.710938 C 28.113281 157.730469 24.835938 164.863281 24.796875 164.945312 C 24.753906 165.035156 24.660156 165.09375 24.5625 165.09375" fill="#a0a020"/></g><g><path d="M 69.816406 220.976562 L 67.761719 249.800781 L 83.953125 247.488281 L 73.148438 217.066406 L 69.816406 220.976562" fill="#baa0ad"/></g><g><path d="M 69.816406 220.976562 L 28.179688 214.847656 L 8 237.371094 L 8 259.839844 L 67.246094 252.371094 L 69.816406 220.976562" fill="#ab909d"/></g><g><path d="M 68.847656 232.789062 L 68.847656 230.21875 L 44.984375 229.464844 L 8 258.566406 L 8 258.734375 L 47.199219 231.296875 L 68.847656 232.789062" fill="#977c8a"/></g><g><path d="M 28.179688 214.847656 L 73.148438 217.066406 L 69.816406 220.976562 Z M 28.179688 214.847656" fill="#baa0ad"/></g><g><path d="M 68.847656 230.21875 L 78.085938 230.96875 L 73.148438 217.066406 L 75.855469 227.441406 L 68.847656 230.21875" fill="#977c8a"/></g><g><path d="M 73.148438 217.066406 L 69.816406 220.976562 L 28.179688 214.847656 L 68.847656 219.214844 L 73.148438 217.066406" fill="#cfb4c1"/></g><g><path d="M 8.132812 246.4375 L 8.132812 239.519531 L 28.179688 214.847656 L 8 237.371094 L 8 252.757812 L 10.445312 243.449219 L 8.132812 246.4375" fill="#977c8a"/></g><g><path d="M 28.179688 214.847656 L 17.128906 237.464844 L 18.925781 239.691406 L 14.472656 249.800781 L 23.707031 237.851562 L 21.324219 235.238281 L 34.003906 215.703125 L 28.179688 214.847656" fill="#977c8a"/></g><g><path d="M 37.945312 217.066406 L 28.695312 231.652344 L 37.945312 220.976562 L 50.664062 218.15625 L 37.945312 217.066406" fill="#977c8a"/></g><g><path d="M 52.683594 222.828125 C 52.683594 222.828125 44.089844 227.113281 44.054688 219.824219 C 44.054688 219.335938 43.832031 218.878906 43.425781 218.609375 C 42.386719 217.917969 40.632812 216.132812 42.128906 212.445312 C 42.207031 212.246094 42.25 212.035156 42.238281 211.820312 C 42.175781 210.585938 41.75 206.257812 38.847656 204.738281 C 38.527344 204.570312 38.285156 204.285156 38.167969 203.941406 C 37.800781 202.871094 37.253906 200.652344 38.609375 199.828125 C 39.207031 199.460938 39.460938 198.6875 39.199219 198.035156 C 38.816406 197.085938 38.917969 195.644531 40.628906 193.570312 L 40.777344 193.355469 C 41.148438 192.671875 43.476562 188.875 47.703125 191.742188 C 48.511719 192.289062 49.609375 191.910156 49.898438 190.980469 C 50.378906 189.4375 51.675781 187.730469 55.074219 187.625 C 55.28125 187.617188 55.492188 187.570312 55.679688 187.476562 C 56.621094 187.011719 59.796875 185.648438 61.417969 187.585938 C 62.027344 188.308594 63.128906 188.328125 63.703125 187.574219 C 64.210938 186.902344 64.792969 186.523438 65.3125 187.136719 C 65.722656 187.621094 66.414062 187.722656 66.96875 187.410156 C 67.898438 186.890625 69.421875 186.683594 71.503906 188.488281 C 71.820312 188.765625 72.246094 188.890625 72.664062 188.824219 C 73.882812 188.640625 76.292969 188.042969 76.714844 186.152344 C 76.917969 185.234375 77.9375 184.679688 78.753906 185.144531 C 79.066406 185.320312 79.296875 185.628906 79.324219 186.136719 C 79.363281 186.960938 80.140625 187.542969 80.957031 187.453125 C 82.636719 187.265625 84.648438 187.492188 84.085938 189.828125 C 83.878906 190.691406 84.511719 191.550781 85.398438 191.589844 C 86.320312 191.625 87.316406 191.972656 87.949219 193.085938 C 88.398438 193.871094 89.492188 194.027344 90.15625 193.414062 C 91.746094 191.9375 94.199219 190.523438 95.964844 193.457031 C 95.964844 193.457031 100.425781 199.6875 95.355469 201.21875 C 94.589844 201.453125 94.195312 202.292969 94.449219 203.054688 C 94.769531 204.019531 94.949219 205.339844 94.335938 206.695312 C 94.066406 207.285156 94.242188 207.984375 94.753906 208.386719 C 95.96875 209.34375 97.445312 211.398438 94.539062 214.796875 C 94.089844 215.320312 94.066406 216.078125 94.484375 216.625 C 95.773438 218.300781 97.597656 221.578125 91.449219 220.816406 C 91.246094 220.792969 91.054688 220.722656 90.882812 220.617188 C 88.933594 219.425781 75.371094 212.0625 52.683594 222.828125" fill="#888d23"/></g><g><path d="M 70.09375 241.214844 C 69.972656 241.214844 69.863281 241.128906 69.84375 241.003906 L 62.105469 198.511719 L 56.441406 191.074219 C 56.351562 190.964844 56.375 190.800781 56.488281 190.714844 C 56.601562 190.628906 56.761719 190.652344 56.847656 190.765625 L 62.589844 198.296875 L 70.347656 240.914062 C 70.371094 241.050781 70.28125 241.1875 70.140625 241.210938 L 70.09375 241.214844" fill="#441617"/></g><g><path d="M 64.046875 207.992188 L 63.875 207.929688 L 56.675781 201.527344 C 56.570312 201.433594 56.5625 201.269531 56.65625 201.164062 C 56.75 201.058594 56.910156 201.050781 57.019531 201.140625 L 64.21875 207.542969 C 64.324219 207.636719 64.332031 207.800781 64.238281 207.90625 L 64.046875 207.992188" fill="#441617"/></g><g><path d="M 65.496094 215.949219 L 65.351562 215.90625 C 65.234375 215.828125 65.203125 215.667969 65.28125 215.550781 L 70.003906 208.472656 C 70.085938 208.355469 70.242188 208.324219 70.363281 208.402344 C 70.480469 208.480469 70.511719 208.640625 70.433594 208.761719 L 65.710938 215.835938 L 65.496094 215.949219" fill="#441617"/></g><g><path d="M 60.378906 204.734375 L 60.34375 204.730469 L 49.878906 203.285156 L 44.773438 196.074219 C 44.691406 195.957031 44.71875 195.796875 44.835938 195.714844 C 44.953125 195.632812 45.113281 195.660156 45.195312 195.777344 L 50.171875 202.808594 L 60.414062 204.222656 C 60.554688 204.238281 60.652344 204.371094 60.632812 204.511719 C 60.617188 204.640625 60.507812 204.734375 60.378906 204.734375" fill="#441617"/></g><g><path d="M 63.042969 202.476562 C 62.933594 202.476562 62.835938 202.410156 62.796875 202.304688 C 62.753906 202.167969 62.824219 202.023438 62.957031 201.976562 L 73.457031 198.355469 L 74.160156 193.421875 C 74.179688 193.28125 74.3125 193.1875 74.453125 193.203125 C 74.59375 193.222656 74.691406 193.355469 74.667969 193.492188 L 73.921875 198.738281 L 63.125 202.460938 L 63.042969 202.476562" fill="#441617"/></g><g><path d="M 73.6875 198.804688 C 73.597656 198.804688 73.507812 198.753906 73.460938 198.667969 L 69.992188 192.125 C 69.925781 192 69.972656 191.84375 70.097656 191.777344 C 70.222656 191.710938 70.378906 191.757812 70.445312 191.882812 L 73.914062 198.425781 C 73.980469 198.550781 73.933594 198.707031 73.808594 198.773438 L 73.6875 198.804688" fill="#441617"/></g><g><path d="M 62.347656 198.660156 L 62.273438 198.648438 C 62.136719 198.609375 62.058594 198.46875 62.101562 198.332031 L 63.992188 191.933594 C 64.03125 191.796875 64.171875 191.71875 64.308594 191.757812 C 64.445312 191.796875 64.523438 191.941406 64.484375 192.078125 L 62.59375 198.476562 C 62.558594 198.589844 62.457031 198.660156 62.347656 198.660156" fill="#441617"/></g><g><path d="M 50.027344 203.304688 L 49.890625 203.265625 L 44.328125 199.785156 C 44.207031 199.710938 44.171875 199.550781 44.246094 199.429688 C 44.324219 199.308594 44.480469 199.273438 44.601562 199.347656 L 50.160156 202.828125 C 50.28125 202.902344 50.320312 203.0625 50.242188 203.183594 L 50.027344 203.304688" fill="#441617"/></g><g><path d="M 64.78125 212.03125 L 64.648438 211.996094 L 55.964844 206.820312 C 55.84375 206.75 55.800781 206.589844 55.875 206.46875 C 55.949219 206.347656 56.105469 206.304688 56.226562 206.378906 L 64.914062 211.554688 C 65.035156 211.628906 65.074219 211.785156 65.003906 211.90625 L 64.78125 212.03125" fill="#441617"/></g><g><path d="M 67.203125 225.335938 L 67.085938 225.304688 L 49.476562 216.074219 L 46.695312 209.324219 C 46.640625 209.191406 46.703125 209.042969 46.835938 208.988281 C 46.964844 208.933594 47.117188 208.996094 47.167969 209.128906 L 49.878906 215.703125 L 67.324219 224.851562 C 67.449219 224.917969 67.496094 225.070312 67.429688 225.199219 C 67.386719 225.285156 67.296875 225.335938 67.203125 225.335938" fill="#441617"/></g><g><path d="M 49.679688 216.144531 L 49.488281 216.0625 C 49.394531 215.960938 49.398438 215.796875 49.503906 215.699219 L 55.371094 210.265625 C 55.472656 210.171875 55.636719 210.175781 55.734375 210.28125 C 55.832031 210.386719 55.824219 210.546875 55.71875 210.644531 L 49.851562 216.078125 L 49.679688 216.144531" fill="#441617"/></g><g><path d="M 72.847656 241.6875 L 72.828125 241.6875 C 72.6875 241.679688 72.582031 241.554688 72.589844 241.414062 L 75.542969 198.199219 L 75.574219 198.144531 L 80.40625 190.074219 C 80.476562 189.949219 80.636719 189.910156 80.757812 189.984375 C 80.878906 190.058594 80.917969 190.214844 80.847656 190.335938 L 76.046875 198.355469 L 73.101562 241.449219 C 73.09375 241.585938 72.980469 241.6875 72.847656 241.6875" fill="#441617"/></g><g><path d="M 78.425781 204.347656 C 78.3125 204.347656 78.207031 204.273438 78.179688 204.15625 C 78.144531 204.019531 78.226562 203.878906 78.363281 203.84375 L 88.386719 201.296875 L 92.546875 193.753906 C 92.613281 193.628906 92.769531 193.582031 92.894531 193.652344 C 93.019531 193.71875 93.066406 193.875 92.996094 194 L 88.726562 201.738281 L 88.621094 201.765625 L 78.492188 204.339844 L 78.425781 204.347656" fill="#441617"/></g><g><path d="M 88.558594 201.773438 L 88.355469 201.675781 C 88.269531 201.566406 88.285156 201.402344 88.398438 201.316406 L 93.535156 197.234375 C 93.648438 197.148438 93.808594 197.164062 93.894531 197.277344 C 93.984375 197.386719 93.964844 197.550781 93.855469 197.636719 L 88.71875 201.71875 L 88.558594 201.773438" fill="#441617"/></g><g><path d="M 74.867188 212.09375 L 74.664062 211.992188 C 74.578125 211.878906 74.597656 211.71875 74.714844 211.632812 L 82.765625 205.519531 C 82.878906 205.433594 83.039062 205.457031 83.128906 205.570312 C 83.214844 205.683594 83.191406 205.84375 83.078125 205.929688 L 75.023438 212.042969 L 74.867188 212.09375" fill="#441617"/></g><g><path d="M 73.945312 225.585938 L 73.734375 225.472656 C 73.652344 225.355469 73.683594 225.195312 73.800781 225.113281 L 90.113281 214.078125 L 92.074219 207.242188 C 92.113281 207.105469 92.257812 207.023438 92.390625 207.0625 C 92.527344 207.105469 92.605469 207.246094 92.570312 207.382812 L 90.558594 214.398438 L 74.089844 225.539062 L 73.945312 225.585938" fill="#441617"/></g><g><path d="M 90.335938 214.496094 L 90.183594 214.445312 L 83.746094 209.703125 C 83.632812 209.617188 83.609375 209.457031 83.691406 209.34375 C 83.777344 209.226562 83.9375 209.203125 84.050781 209.289062 L 90.488281 214.03125 C 90.601562 214.117188 90.628906 214.277344 90.542969 214.390625 L 90.335938 214.496094" fill="#441617"/></g><g><path d="M 74.414062 221.03125 C 74.324219 221.03125 74.238281 220.984375 74.191406 220.898438 L 69.992188 213.296875 C 69.925781 213.171875 69.96875 213.015625 70.09375 212.945312 C 70.21875 212.878906 70.375 212.921875 70.445312 213.046875 L 74.640625 220.648438 C 74.707031 220.773438 74.664062 220.929688 74.539062 221 L 74.414062 221.03125" fill="#441617"/></g><g><path d="M 75.160156 208.109375 L 69.230469 202.402344 C 69.128906 202.304688 69.125 202.144531 69.222656 202.039062 C 69.320312 201.941406 69.484375 201.933594 69.585938 202.035156 L 75.132812 207.371094 L 81.394531 200.40625 C 81.492188 200.300781 81.652344 200.289062 81.757812 200.386719 C 81.863281 200.480469 81.871094 200.644531 81.777344 200.746094 L 75.160156 208.109375" fill="#441617"/></g><g><path d="M 68.109375 212.03125 C 68.007812 212.03125 67.90625 211.96875 67.871094 211.863281 L 65.652344 205.8125 C 65.605469 205.679688 65.671875 205.53125 65.804688 205.484375 C 65.941406 205.4375 66.085938 205.503906 66.136719 205.636719 L 68.351562 211.6875 C 68.402344 211.820312 68.332031 211.96875 68.199219 212.015625 L 68.109375 212.03125" fill="#441617"/></g><g><path d="M 72.316406 217.410156 L 68.726562 217.410156 C 68.585938 217.410156 68.472656 217.292969 68.472656 217.152344 C 68.472656 217.011719 68.585938 216.894531 68.726562 216.894531 L 72.316406 216.894531 C 72.460938 216.894531 72.574219 217.011719 72.574219 217.152344 C 72.574219 217.292969 72.460938 217.410156 72.316406 217.410156" fill="#441617"/></g><g><path d="M 93.695312 218.085938 L 85.03125 218.085938 C 84.890625 218.085938 84.777344 217.96875 84.777344 217.828125 C 84.777344 217.683594 84.890625 217.570312 85.03125 217.570312 L 93.695312 217.570312 C 93.835938 217.570312 93.953125 217.683594 93.953125 217.828125 C 93.953125 217.96875 93.835938 218.085938 93.695312 218.085938" fill="#441617"/></g><g><path d="M 49.679688 221.03125 C 49.570312 221.03125 49.46875 220.960938 49.433594 220.851562 C 49.390625 220.714844 49.46875 220.570312 49.601562 220.527344 L 55.46875 218.71875 C 55.605469 218.675781 55.75 218.753906 55.789062 218.890625 C 55.832031 219.023438 55.757812 219.167969 55.621094 219.210938 L 49.753906 221.019531 L 49.679688 221.03125" fill="#441617"/></g><g><path d="M 73.148438 233.089844 L 47.199219 231.296875 L 8 258.734375 L 8 259.988281 L 80.097656 256.523438 L 73.148438 233.089844" fill="#ab909d"/></g><g><path d="M 80.097656 256.523438 L 91.921875 248.601562 L 80.097656 231.296875 L 73.148438 233.089844 L 80.097656 256.523438" fill="#baa0ad"/></g><g><path d="M 80.097656 231.296875 L 73.148438 233.089844 L 47.199219 231.296875 L 68.847656 230.21875 L 80.097656 231.296875" fill="#baa0ad"/></g><g><path d="M 14.300781 256.523438 L 40.257812 236.691406 L 52.683594 231.90625 L 47.199219 231.296875 L 8 258.734375 L 8 259.972656 L 25.351562 258.96875 L 14.300781 256.523438" fill="#cfb4c1"/></g><g><path d="M 84.144531 253.8125 L 91.921875 248.601562 L 81.320312 233.089844 L 89.09375 246.4375 L 84.144531 253.8125" fill="#cfb4c1"/></g><g><path d="M 74.441406 256.851562 L 37.464844 258.574219 L 67.246094 247.746094 L 65.960938 238.75 L 57.992188 233.089844 L 73.148438 233.089844 L 80.097656 256.523438 L 74.441406 256.851562" fill="#977c8a"/></g><g><path d="M 80.097656 256.78125 C 79.984375 256.78125 79.882812 256.710938 79.851562 256.597656 L 72.902344 233.160156 L 72.925781 232.960938 L 73.085938 232.839844 L 80.03125 231.046875 C 80.171875 231.011719 80.308594 231.09375 80.347656 231.230469 C 80.382812 231.367188 80.296875 231.507812 80.160156 231.546875 L 73.472656 233.269531 L 80.34375 256.449219 C 80.382812 256.585938 80.304688 256.730469 80.171875 256.769531 L 80.097656 256.78125" fill="#cfb4c1"/></g><g><path d="M 37.460938 258.828125 C 37.359375 258.828125 37.257812 258.765625 37.222656 258.660156 C 37.171875 258.527344 37.242188 258.378906 37.375 258.332031 L 66.960938 247.574219 L 65.722656 238.890625 L 57.644531 232.578125 L 52.890625 232.394531 L 60.542969 238.808594 C 60.652344 238.902344 60.667969 239.0625 60.578125 239.171875 C 60.484375 239.28125 60.324219 239.296875 60.214844 239.203125 L 51.984375 232.304688 C 51.902344 232.234375 51.871094 232.121094 51.910156 232.015625 C 51.953125 231.914062 52.054688 231.851562 52.160156 231.851562 L 57.746094 232.066406 L 57.894531 232.121094 L 66.121094 238.546875 L 66.214844 238.714844 L 67.5 247.710938 C 67.519531 247.828125 67.449219 247.945312 67.335938 247.988281 L 37.550781 258.8125 L 37.460938 258.828125" fill="#cfb4c1"/></g><g><path d="M 35.375 256.570312 L 35.304688 256.558594 L 24.167969 253.390625 C 24.03125 253.351562 23.953125 253.210938 23.992188 253.070312 C 24.03125 252.9375 24.171875 252.851562 24.308594 252.894531 L 35.367188 256.042969 L 49.410156 251.164062 L 48.921875 242.414062 L 41.476562 238.199219 L 36.726562 241.640625 C 36.609375 241.722656 36.449219 241.699219 36.367188 241.582031 C 36.285156 241.46875 36.308594 241.308594 36.425781 241.222656 L 41.308594 237.683594 L 41.585938 237.667969 L 49.296875 242.039062 L 49.425781 242.246094 L 49.933594 251.328125 C 49.941406 251.445312 49.871094 251.550781 49.761719 251.585938 L 35.460938 256.554688 L 35.375 256.570312" fill="#cfb4c1"/></g><g><path d="M 45.742188 252.96875 C 45.601562 252.96875 45.484375 252.851562 45.484375 252.710938 L 45.484375 246.289062 C 45.484375 246.148438 45.601562 246.03125 45.742188 246.03125 C 45.882812 246.03125 46 246.148438 46 246.289062 L 46 252.710938 C 46 252.851562 45.882812 252.96875 45.742188 252.96875" fill="#cfb4c1"/></g><g><path d="M 16.898438 237.351562 L 16.925781 237.625 L 18.628906 239.730469 L 14.238281 249.699219 C 14.179688 249.828125 14.238281 249.980469 14.367188 250.035156 L 14.472656 250.058594 C 14.570312 250.058594 14.664062 250 14.707031 249.90625 L 19.160156 239.796875 L 19.128906 239.53125 L 17.429688 237.429688 L 28.410156 214.960938 C 28.46875 214.84375 28.429688 214.703125 28.324219 214.632812 C 28.21875 214.5625 28.074219 214.578125 27.988281 214.675781 L 8 236.988281 L 8 237.757812 L 27.136719 216.398438 L 16.898438 237.351562" fill="#cfb4c1"/></g><g><path d="M 23.707031 238.105469 L 23.515625 238.023438 L 21.136719 235.410156 C 21.058594 235.324219 21.046875 235.195312 21.109375 235.097656 L 33.789062 215.566406 C 33.855469 215.464844 33.976562 215.421875 34.089844 215.460938 L 38.03125 216.824219 L 38.1875 216.980469 L 38.164062 217.203125 L 28.910156 231.789062 C 28.835938 231.910156 28.675781 231.945312 28.554688 231.871094 C 28.4375 231.792969 28.402344 231.636719 28.476562 231.515625 L 37.554688 217.203125 L 34.113281 216.011719 L 21.648438 235.210938 L 23.894531 237.675781 C 23.992188 237.78125 23.984375 237.945312 23.878906 238.039062 L 23.707031 238.105469" fill="#cfb4c1"/></g><g><path d="M 57.992188 257.398438 C 57.992188 257.398438 52.351562 241.324219 58.417969 256.457031 C 58.417969 256.457031 57.832031 236.871094 60.128906 257.398438 C 60.128906 257.398438 66.304688 240.46875 61.796875 257.398438 C 61.796875 257.398438 68.402344 246.292969 63.441406 257.398438 L 57.992188 257.398438" fill="#c3d115"/></g><g><path d="M 84.144531 253.8125 C 84.144531 253.8125 75.855469 228.726562 85.03125 252.710938 C 85.03125 252.710938 81.867188 244.667969 85.03125 243.910156 C 85.03125 243.910156 86.515625 243.292969 85.492188 245.410156 C 84.855469 246.722656 84.644531 248.199219 84.820312 249.648438 C 84.976562 250.914062 85.261719 252.234375 85.789062 252.710938 L 84.144531 253.8125" fill="#c3d115"/></g><g><path d="M 104.601562 336.160156 L 125.078125 325.234375 L 87.117188 339.757812 L 26.984375 343.609375 L 97.789062 343.609375 L 224.484375 298.132812 L 104.601562 336.160156" fill="#bfc317"/></g><g><path d="M 159.257812 320.183594 C 152.320312 303.441406 155.851562 320.996094 155.851562 320.996094 C 142.152344 299.585938 152.746094 322.519531 152.746094 322.519531 L 132.359375 327.164062 L 123.457031 333.011719 C 127.746094 328.320312 125.078125 325.234375 125.078125 325.234375 C 125.847656 331.019531 119.855469 332.46875 119.855469 332.46875 C 122.34375 313.359375 117.578125 333.660156 117.578125 333.660156 C 117.792969 330.136719 114.664062 329.386719 114.664062 329.386719 C 117.105469 331.867188 114.664062 336.160156 114.664062 336.160156 C 98.597656 337.703125 97.777344 343.292969 97.777344 343.292969 C 97.46875 336.03125 102.144531 330.503906 102.144531 330.503906 C 96.953125 333.074219 94.753906 343.292969 94.753906 343.292969 C 93.679688 321.875 91.851562 337.910156 91.292969 343.609375 L 106.246094 343.609375 L 160.902344 319.597656 C 165.117188 295.457031 159.257812 320.183594 159.257812 320.183594" fill="#a7b01f"/></g><g><path d="M 22.828125 340.3125 L 71.953125 325.363281 L 63.371094 330.503906 L 82.921875 324.746094 L 81.320312 328.46875 L 104.257812 316.882812 L 123.457031 312.769531 L 112.953125 320.996094 L 198.96875 293.902344 L 211.304688 281.238281 L 197.8125 287.066406 L 22.828125 340.3125" fill="#e2e51f"/></g><g><path d="M 236.292969 268.367188 L 289.308594 242.605469 L 327.019531 234.363281 L 290.613281 245.355469 L 279.582031 253.8125 L 236.292969 268.367188" fill="#e2e51f"/></g><g><path d="M 327.019531 249 C 327.019531 249 435.402344 221.347656 433.4375 221.847656 C 431.472656 222.347656 400.902344 217.066406 400.902344 217.066406 L 413.320312 221.523438 L 415.25 224.078125 L 391.773438 229.261719 L 397.601562 229.261719 L 363.890625 236.933594 L 327.019531 249" fill="#bfc317"/></g><g><path d="M 451.90625 225.078125 L 468.195312 228.726562 C 468.195312 228.726562 477.191406 243.507812 445.277344 251.367188 C 445.277344 251.367188 423.304688 257.511719 389.03125 255.457031 L 365.820312 264.246094 L 395.203125 247.230469 L 392.117188 251.367188 C 392.117188 251.367188 413.046875 255.683594 426.34375 246.828125 C 430.996094 243.730469 436.199219 241.558594 441.613281 240.160156 L 454.105469 236.9375 C 458.148438 235.894531 459.210938 230.648438 455.890625 228.113281 L 451.90625 225.078125" fill="#bfc317"/></g><g><path d="M 226.597656 296.066406 L 323.75 304.289062 L 334.480469 291.976562 L 233.929688 291.976562 L 226.597656 296.066406" fill="#d2da17"/></g><g><path d="M 301.648438 280.542969 C 301.648438 282.207031 298.144531 287.066406 292.050781 287.066406 C 285.957031 287.066406 279.582031 282.207031 279.582031 280.542969 C 279.582031 278.878906 286.300781 280.542969 292.394531 280.542969 C 298.488281 280.542969 301.648438 278.878906 301.648438 280.542969" fill="#d2da17"/></g><g><path d="M 290.316406 278.628906 C 289.394531 278.691406 286.453125 278.785156 283.46875 277.71875 C 282.96875 277.539062 282.554688 277.140625 282.402344 276.632812 C 282.136719 275.726562 282.699219 274.449219 287.894531 274.308594 C 288.039062 274.304688 288.1875 274.316406 288.328125 274.347656 C 289.636719 274.632812 296.242188 276.238281 290.878906 278.496094 C 290.699219 278.570312 290.507812 278.613281 290.316406 278.628906" fill="#d2da17"/></g><g><path d="M 236.292969 290.660156 L 297.535156 256.523438 L 355.105469 268.308594 L 315.355469 263.066406 L 316.726562 265.042969 L 300.277344 258.574219 L 292.945312 263.066406 L 287.648438 265.042969 L 274.074219 278.664062 L 280.539062 268.308594 L 248.285156 291.976562 L 236.292969 290.660156" fill="#bfc317"/></g><g><path d="M 334.480469 291.976562 L 323.75 304.289062 L 226.597656 296.066406 L 311.585938 300.96875 L 327.019531 298.132812 L 334.480469 291.976562" fill="#bfc317"/></g><g><path d="M 224.484375 296.820312 C 224.484375 296.820312 220.429688 291.230469 216.316406 291.976562 C 216.316406 291.976562 220.34375 290.582031 225.3125 295.980469 C 225.3125 295.980469 224.519531 272.097656 226.0625 296.257812 L 224.484375 296.820312" fill="#a7b01f"/></g><g><path d="M 269.777344 298.554688 C 269.777344 298.554688 260.140625 270.878906 271.0625 298.132812 C 271.0625 298.132812 270.28125 281.574219 272.347656 298.695312 L 274.144531 296.820312 C 284.671875 299.738281 299.234375 300.085938 312.957031 300.96875 L 269.777344 298.554688" fill="#a7b01f"/></g><g><path d="M 327.78125 258.210938 L 355.105469 268.308594 L 340.492188 262.035156 C 340.492188 262.035156 339.136719 247.546875 340.0625 262.035156 C 340.0625 262.035156 335.664062 246.015625 339.550781 261.53125 L 331.757812 258.574219 C 331.757812 258.574219 334.320312 241.898438 330.621094 258.574219 C 330.621094 258.574219 331.140625 226.574219 329.8125 258.578125 C 329.8125 258.578125 327.71875 251.648438 327.582031 258.136719 L 327.78125 258.210938" fill="#a7b01f"/></g><g><path d="M 303.363281 285.816406 L 303.183594 285.667969 L 297.722656 255.664062 L 293.71875 250.414062 L 293.753906 250.160156 L 294.007812 250.195312 L 298.0625 255.515625 L 303.539062 285.605469 C 303.558594 285.703125 303.492188 285.796875 303.394531 285.816406 L 303.363281 285.816406" fill="#441617"/></g><g><path d="M 300.113281 267.980469 L 300.011719 267.949219 L 299.964844 267.695312 L 303.296875 262.699219 L 303.550781 262.648438 L 303.601562 262.902344 L 300.265625 267.898438 L 300.113281 267.980469" fill="#441617"/></g><g><path d="M 298.382812 258.464844 L 298.210938 258.34375 C 298.175781 258.246094 298.226562 258.144531 298.320312 258.113281 L 305.734375 255.554688 L 306.234375 252.070312 C 306.246094 251.972656 306.339844 251.90625 306.4375 251.917969 C 306.535156 251.933594 306.605469 252.023438 306.59375 252.121094 L 306.0625 255.824219 L 298.441406 258.453125 L 298.382812 258.464844" fill="#441617"/></g><g><path d="M 297.890625 255.769531 L 297.839844 255.761719 C 297.742188 255.734375 297.6875 255.632812 297.71875 255.539062 L 299.050781 251.019531 C 299.082031 250.925781 299.183594 250.867188 299.277344 250.898438 C 299.375 250.925781 299.429688 251.027344 299.398438 251.121094 L 298.066406 255.640625 L 297.890625 255.769531" fill="#441617"/></g><g><path d="M 299.609375 265.210938 L 299.515625 265.1875 L 293.328125 261.5 L 290.847656 254.328125 C 290.8125 254.234375 290.863281 254.132812 290.957031 254.097656 C 291.050781 254.066406 291.15625 254.117188 291.1875 254.210938 L 293.628906 261.253906 L 299.703125 264.875 L 299.765625 265.121094 L 299.609375 265.210938" fill="#441617"/></g><g><path d="M 301.320312 274.605469 L 301.234375 274.585938 L 288.804688 268.066406 L 286.839844 263.300781 C 286.800781 263.207031 286.84375 263.101562 286.9375 263.0625 C 287.03125 263.023438 287.136719 263.070312 287.175781 263.160156 L 289.089844 267.804688 L 301.40625 274.261719 L 301.480469 274.507812 L 301.320312 274.605469" fill="#441617"/></g><g><path d="M 288.945312 268.117188 L 288.8125 268.058594 L 288.824219 267.800781 L 292.964844 263.964844 L 293.222656 263.976562 L 293.210938 264.230469 L 289.070312 268.066406 L 288.945312 268.117188" fill="#441617"/></g><g><path d="M 305.304688 286.152344 L 305.292969 286.152344 C 305.191406 286.144531 305.117188 286.058594 305.121094 285.957031 L 307.207031 255.445312 L 307.230469 255.40625 L 310.640625 249.707031 L 310.890625 249.644531 L 310.953125 249.894531 L 307.5625 255.554688 L 305.484375 285.984375 C 305.480469 286.078125 305.398438 286.152344 305.304688 286.152344" fill="#441617"/></g><g><path d="M 306.082031 274.78125 L 305.929688 274.699219 L 305.980469 274.449219 L 317.496094 266.65625 L 318.882812 261.828125 C 318.910156 261.730469 319.007812 261.675781 319.105469 261.703125 C 319.203125 261.730469 319.257812 261.832031 319.230469 261.929688 L 317.808594 266.882812 L 306.183594 274.75 L 306.082031 274.78125" fill="#441617"/></g><g><path d="M 317.652344 266.953125 L 317.546875 266.914062 L 313 263.566406 L 312.964844 263.3125 L 313.21875 263.273438 L 317.761719 266.625 L 317.800781 266.878906 L 317.652344 266.953125" fill="#441617"/></g><g><path d="M 306.9375 262.441406 L 302.75 258.414062 L 302.746094 258.15625 L 303.003906 258.152344 L 306.921875 261.921875 L 311.339844 257.003906 L 311.597656 256.988281 L 311.609375 257.246094 L 306.9375 262.441406" fill="#441617"/></g><g><path d="M 301.960938 265.210938 L 301.789062 265.09375 L 300.226562 260.820312 C 300.191406 260.726562 300.238281 260.621094 300.335938 260.589844 C 300.425781 260.554688 300.53125 260.601562 300.566406 260.695312 L 302.132812 264.96875 C 302.164062 265.0625 302.117188 265.167969 302.023438 265.199219 L 301.960938 265.210938" fill="#441617"/></g><g><path d="M 308.050781 285.421875 L 308.007812 285.417969 C 307.910156 285.394531 307.851562 285.292969 307.875 285.195312 L 310.621094 274.378906 C 310.644531 274.28125 310.742188 274.222656 310.84375 274.246094 C 310.941406 274.273438 310.996094 274.371094 310.972656 274.46875 L 308.226562 285.285156 L 308.050781 285.421875" fill="#441617"/></g><g><path d="M 301.179688 285.816406 L 301.007812 285.691406 L 297.71875 275.496094 C 297.6875 275.402344 297.738281 275.300781 297.835938 275.269531 C 297.929688 275.238281 298.03125 275.289062 298.0625 275.386719 L 301.351562 285.582031 C 301.382812 285.675781 301.328125 285.777344 301.234375 285.808594 L 301.179688 285.816406" fill="#441617"/></g><g><path d="M 306.800781 264.28125 L 306.648438 264.203125 L 306.695312 263.949219 L 320.679688 254.121094 L 320.929688 254.164062 L 320.886719 254.417969 L 306.902344 264.246094 L 306.800781 264.28125" fill="#441617"/></g><g><path d="M 293.476562 261.558594 L 293.382812 261.53125 L 286.449219 257.277344 L 286.390625 257.027344 L 286.640625 256.96875 L 293.570312 261.222656 L 293.632812 261.472656 L 293.476562 261.558594" fill="#441617"/></g><g><path d="M 287.960938 263.753906 C 287.960938 264.277344 287.53125 264.703125 287.007812 264.703125 C 286.480469 264.703125 286.054688 264.277344 286.054688 263.753906 C 286.054688 263.226562 286.480469 262.800781 287.007812 262.800781 C 287.53125 262.800781 287.960938 263.226562 287.960938 263.753906" fill="#f3ed71"/></g><g><path d="M 294.429688 264.097656 C 294.429688 264.625 294.003906 265.050781 293.476562 265.050781 C 292.953125 265.050781 292.527344 264.625 292.527344 264.097656 C 292.527344 263.574219 292.953125 263.148438 293.476562 263.148438 C 294.003906 263.148438 294.429688 263.574219 294.429688 264.097656" fill="#f3ed71"/></g><g><path d="M 311.75 274.425781 C 311.75 274.949219 311.324219 275.375 310.796875 275.375 C 310.273438 275.375 309.847656 274.949219 309.847656 274.425781 C 309.847656 273.898438 310.273438 273.472656 310.796875 273.472656 C 311.324219 273.472656 311.75 273.898438 311.75 274.425781" fill="#f3ed71"/></g><g><path d="M 307.363281 252.097656 C 307.363281 252.621094 306.9375 253.050781 306.410156 253.050781 C 305.886719 253.050781 305.460938 252.621094 305.460938 252.097656 C 305.460938 251.570312 305.886719 251.144531 306.410156 251.144531 C 306.9375 251.144531 307.363281 251.570312 307.363281 252.097656" fill="#f3ed71"/></g><g><path d="M 321.734375 254.007812 C 321.734375 254.53125 321.308594 254.960938 320.78125 254.960938 C 320.257812 254.960938 319.832031 254.53125 319.832031 254.007812 C 319.832031 253.480469 320.257812 253.054688 320.78125 253.054688 C 321.308594 253.054688 321.734375 253.480469 321.734375 254.007812" fill="#f3ed71"/></g><g><path d="M 320.007812 261.847656 C 320.007812 262.375 319.582031 262.800781 319.054688 262.800781 C 318.53125 262.800781 318.105469 262.375 318.105469 261.847656 C 318.105469 261.324219 318.53125 260.898438 319.054688 260.898438 C 319.582031 260.898438 320.007812 261.324219 320.007812 261.847656" fill="#f3ed71"/></g><g><path d="M 311.75 249.355469 C 311.75 249.878906 311.324219 250.304688 310.796875 250.304688 C 310.273438 250.304688 309.847656 249.878906 309.847656 249.355469 C 309.847656 248.828125 310.273438 248.402344 310.796875 248.402344 C 311.324219 248.402344 311.75 248.828125 311.75 249.355469" fill="#f3ed71"/></g><g><path d="M 298.84375 275.167969 C 298.84375 275.695312 298.417969 276.121094 297.890625 276.121094 C 297.367188 276.121094 296.941406 275.695312 296.941406 275.167969 C 296.941406 274.644531 297.367188 274.21875 297.890625 274.21875 C 298.417969 274.21875 298.84375 274.644531 298.84375 275.167969" fill="#f3ed71"/></g><g><path d="M 314.375 263.421875 C 314.375 263.945312 313.949219 264.371094 313.421875 264.371094 C 312.894531 264.371094 312.46875 263.945312 312.46875 263.421875 C 312.46875 262.894531 312.894531 262.46875 313.421875 262.46875 C 313.949219 262.46875 314.375 262.894531 314.375 263.421875" fill="#f3ed71"/></g><g><path d="M 303.828125 258.28125 C 303.828125 258.808594 303.402344 259.234375 302.878906 259.234375 C 302.351562 259.234375 301.925781 258.808594 301.925781 258.28125 C 301.925781 257.757812 302.351562 257.332031 302.878906 257.332031 C 303.402344 257.332031 303.828125 257.757812 303.828125 258.28125" fill="#f3ed71"/></g><g><path d="M 294.816406 250.304688 C 294.816406 250.832031 294.390625 251.257812 293.863281 251.257812 C 293.339844 251.257812 292.914062 250.832031 292.914062 250.304688 C 292.914062 249.78125 293.339844 249.355469 293.863281 249.355469 C 294.390625 249.355469 294.816406 249.78125 294.816406 250.304688" fill="#f3ed71"/></g><g><path d="M 300.179688 250.753906 C 300.179688 251.277344 299.753906 251.703125 299.226562 251.703125 C 298.699219 251.703125 298.273438 251.277344 298.273438 250.753906 C 298.273438 250.226562 298.699219 249.800781 299.226562 249.800781 C 299.753906 249.800781 300.179688 250.226562 300.179688 250.753906" fill="#f3ed71"/></g><g><path d="M 312.699219 257.121094 C 312.699219 257.648438 312.273438 258.074219 311.75 258.074219 C 311.222656 258.074219 310.796875 257.648438 310.796875 257.121094 C 310.796875 256.597656 311.222656 256.171875 311.75 256.171875 C 312.273438 256.171875 312.699219 256.597656 312.699219 257.121094" fill="#f3ed71"/></g><g><path d="M 304.402344 262.800781 C 304.402344 263.324219 303.976562 263.753906 303.449219 263.753906 C 302.925781 263.753906 302.496094 263.324219 302.496094 262.800781 C 302.496094 262.273438 302.925781 261.847656 303.449219 261.847656 C 303.976562 261.847656 304.402344 262.273438 304.402344 262.800781" fill="#f3ed71"/></g><g><path d="M 301.347656 260.757812 C 301.347656 261.28125 300.921875 261.710938 300.398438 261.710938 C 299.871094 261.710938 299.445312 261.28125 299.445312 260.757812 C 299.445312 260.230469 299.871094 259.804688 300.398438 259.804688 C 300.921875 259.804688 301.347656 260.230469 301.347656 260.757812" fill="#f3ed71"/></g><g><path d="M 291.921875 254.269531 C 291.921875 254.796875 291.496094 255.222656 290.96875 255.222656 C 290.445312 255.222656 290.019531 254.796875 290.019531 254.269531 C 290.019531 253.746094 290.445312 253.316406 290.96875 253.316406 C 291.496094 253.316406 291.921875 253.746094 291.921875 254.269531" fill="#f3ed71"/></g><g><path d="M 287.75 257.121094 C 287.75 257.648438 287.324219 258.074219 286.800781 258.074219 C 286.273438 258.074219 285.847656 257.648438 285.847656 257.121094 C 285.847656 256.597656 286.273438 256.171875 286.800781 256.171875 C 287.324219 256.171875 287.75 256.597656 287.75 257.121094" fill="#f3ed71"/></g><g><path d="M 98.292969 298.371094 L 98.113281 298.226562 L 92.652344 268.21875 L 88.652344 262.972656 L 88.683594 262.71875 L 88.9375 262.75 L 92.992188 268.070312 L 98.46875 298.160156 C 98.488281 298.257812 98.421875 298.351562 98.324219 298.371094 L 98.292969 298.371094" fill="#441617"/></g><g><path d="M 95.042969 280.535156 L 94.941406 280.503906 L 94.894531 280.253906 L 98.226562 275.257812 L 98.480469 275.203125 L 98.53125 275.457031 L 95.195312 280.453125 L 95.042969 280.535156" fill="#441617"/></g><g><path d="M 93.3125 271.019531 L 93.140625 270.898438 C 93.105469 270.804688 93.15625 270.699219 93.253906 270.667969 L 100.664062 268.109375 L 101.164062 264.628906 C 101.175781 264.527344 101.269531 264.460938 101.367188 264.472656 C 101.46875 264.488281 101.535156 264.578125 101.523438 264.679688 L 100.992188 268.382812 L 93.371094 271.011719 L 93.3125 271.019531" fill="#441617"/></g><g><path d="M 92.820312 268.324219 L 92.769531 268.320312 C 92.671875 268.289062 92.617188 268.1875 92.648438 268.09375 L 93.980469 263.574219 C 94.011719 263.480469 94.113281 263.425781 94.207031 263.453125 C 94.304688 263.480469 94.359375 263.582031 94.332031 263.679688 L 92.996094 268.195312 L 92.820312 268.324219" fill="#441617"/></g><g><path d="M 94.539062 277.765625 L 94.449219 277.742188 L 88.257812 274.054688 L 85.777344 266.886719 C 85.742188 266.789062 85.792969 266.6875 85.886719 266.652344 C 85.980469 266.621094 86.085938 266.671875 86.117188 266.765625 L 88.558594 273.808594 L 94.632812 277.429688 L 94.695312 277.679688 L 94.539062 277.765625" fill="#441617"/></g><g><path d="M 96.25 287.160156 L 96.164062 287.140625 L 83.734375 280.621094 L 81.769531 275.855469 C 81.730469 275.761719 81.773438 275.65625 81.867188 275.617188 C 81.960938 275.578125 82.066406 275.625 82.105469 275.71875 L 84.019531 280.359375 L 96.335938 286.820312 L 96.410156 287.0625 L 96.25 287.160156" fill="#441617"/></g><g><path d="M 83.875 280.671875 L 83.742188 280.613281 L 83.753906 280.355469 L 87.894531 276.519531 L 88.152344 276.53125 L 88.140625 276.789062 L 84 280.625 L 83.875 280.671875" fill="#441617"/></g><g><path d="M 100.234375 298.707031 L 100.222656 298.707031 C 100.121094 298.699219 100.046875 298.613281 100.054688 298.511719 L 102.136719 268 L 102.160156 267.964844 L 105.570312 262.261719 L 105.820312 262.199219 L 105.882812 262.449219 L 102.492188 268.113281 L 100.414062 298.539062 C 100.410156 298.632812 100.328125 298.707031 100.234375 298.707031" fill="#441617"/></g><g><path d="M 101.011719 287.335938 L 100.859375 287.257812 L 100.910156 287.003906 L 112.425781 279.210938 L 113.8125 274.382812 C 113.839844 274.289062 113.9375 274.230469 114.035156 274.261719 C 114.132812 274.289062 114.1875 274.386719 114.160156 274.484375 L 112.738281 279.4375 L 101.113281 287.304688 L 101.011719 287.335938" fill="#441617"/></g><g><path d="M 112.582031 279.507812 L 112.476562 279.472656 L 107.929688 276.121094 L 107.894531 275.867188 L 108.148438 275.828125 L 112.691406 279.179688 L 112.730469 279.433594 L 112.582031 279.507812" fill="#441617"/></g><g><path d="M 101.867188 275 L 97.679688 270.96875 L 97.675781 270.714844 L 97.933594 270.707031 L 101.851562 274.476562 L 106.269531 269.558594 L 106.527344 269.542969 L 106.539062 269.800781 L 101.867188 275" fill="#441617"/></g><g><path d="M 96.890625 277.765625 L 96.71875 277.648438 L 95.15625 273.378906 C 95.121094 273.28125 95.167969 273.179688 95.265625 273.144531 C 95.355469 273.109375 95.464844 273.15625 95.496094 273.253906 L 97.0625 277.523438 C 97.097656 277.617188 97.046875 277.722656 96.953125 277.757812 L 96.890625 277.765625" fill="#441617"/></g><g><path d="M 102.980469 297.980469 L 102.9375 297.972656 C 102.839844 297.949219 102.78125 297.851562 102.804688 297.753906 L 105.550781 286.933594 C 105.574219 286.835938 105.675781 286.777344 105.773438 286.804688 C 105.871094 286.828125 105.929688 286.925781 105.902344 287.023438 L 103.15625 297.84375 L 102.980469 297.980469" fill="#441617"/></g><g><path d="M 96.109375 298.371094 L 95.9375 298.246094 L 92.648438 288.054688 C 92.617188 287.957031 92.671875 287.855469 92.765625 287.824219 C 92.859375 287.796875 92.964844 287.847656 92.992188 287.941406 L 96.28125 298.136719 C 96.3125 298.230469 96.261719 298.335938 96.164062 298.363281 L 96.109375 298.371094" fill="#441617"/></g><g><path d="M 101.730469 276.835938 L 101.578125 276.757812 L 101.625 276.507812 L 115.609375 266.675781 L 115.859375 266.722656 L 115.816406 266.972656 L 101.832031 276.804688 L 101.730469 276.835938" fill="#441617"/></g><g><path d="M 88.40625 274.113281 L 88.3125 274.085938 L 81.378906 269.835938 L 81.320312 269.585938 L 81.570312 269.523438 L 88.503906 273.777344 L 88.5625 274.027344 L 88.40625 274.113281" fill="#441617"/></g><g><path d="M 82.890625 276.308594 C 82.890625 276.835938 82.464844 277.261719 81.9375 277.261719 C 81.410156 277.261719 80.984375 276.835938 80.984375 276.308594 C 80.984375 275.78125 81.410156 275.355469 81.9375 275.355469 C 82.464844 275.355469 82.890625 275.78125 82.890625 276.308594" fill="#f3ed71"/></g><g><path d="M 89.359375 276.65625 C 89.359375 277.179688 88.933594 277.605469 88.40625 277.605469 C 87.882812 277.605469 87.457031 277.179688 87.457031 276.65625 C 87.457031 276.128906 87.882812 275.703125 88.40625 275.703125 C 88.933594 275.703125 89.359375 276.128906 89.359375 276.65625" fill="#f3ed71"/></g><g><path d="M 106.679688 286.980469 C 106.679688 287.503906 106.253906 287.929688 105.726562 287.929688 C 105.203125 287.929688 104.777344 287.503906 104.777344 286.980469 C 104.777344 286.453125 105.203125 286.027344 105.726562 286.027344 C 106.253906 286.027344 106.679688 286.453125 106.679688 286.980469" fill="#f3ed71"/></g><g><path d="M 102.292969 264.652344 C 102.292969 265.179688 101.867188 265.605469 101.34375 265.605469 C 100.816406 265.605469 100.390625 265.179688 100.390625 264.652344 C 100.390625 264.128906 100.816406 263.699219 101.34375 263.699219 C 101.867188 263.699219 102.292969 264.128906 102.292969 264.652344" fill="#f3ed71"/></g><g><path d="M 116.664062 266.5625 C 116.664062 267.089844 116.238281 267.515625 115.714844 267.515625 C 115.1875 267.515625 114.761719 267.089844 114.761719 266.5625 C 114.761719 266.039062 115.1875 265.609375 115.714844 265.609375 C 116.238281 265.609375 116.664062 266.039062 116.664062 266.5625" fill="#f3ed71"/></g><g><path d="M 114.9375 274.40625 C 114.9375 274.929688 114.511719 275.355469 113.984375 275.355469 C 113.460938 275.355469 113.035156 274.929688 113.035156 274.40625 C 113.035156 273.878906 113.460938 273.453125 113.984375 273.453125 C 114.511719 273.453125 114.9375 273.878906 114.9375 274.40625" fill="#f3ed71"/></g><g><path d="M 106.679688 261.910156 C 106.679688 262.433594 106.253906 262.859375 105.726562 262.859375 C 105.203125 262.859375 104.777344 262.433594 104.777344 261.910156 C 104.777344 261.382812 105.203125 260.957031 105.726562 260.957031 C 106.253906 260.957031 106.679688 261.382812 106.679688 261.910156" fill="#f3ed71"/></g><g><path d="M 93.773438 287.726562 C 93.773438 288.25 93.347656 288.675781 92.820312 288.675781 C 92.296875 288.675781 91.871094 288.25 91.871094 287.726562 C 91.871094 287.199219 92.296875 286.773438 92.820312 286.773438 C 93.347656 286.773438 93.773438 287.199219 93.773438 287.726562" fill="#f3ed71"/></g><g><path d="M 109.304688 275.976562 C 109.304688 276.503906 108.878906 276.929688 108.351562 276.929688 C 107.824219 276.929688 107.398438 276.503906 107.398438 275.976562 C 107.398438 275.449219 107.824219 275.023438 108.351562 275.023438 C 108.878906 275.023438 109.304688 275.449219 109.304688 275.976562" fill="#f3ed71"/></g><g><path d="M 98.757812 270.839844 C 98.757812 271.363281 98.332031 271.789062 97.804688 271.789062 C 97.28125 271.789062 96.855469 271.363281 96.855469 270.839844 C 96.855469 270.3125 97.28125 269.886719 97.804688 269.886719 C 98.332031 269.886719 98.757812 270.3125 98.757812 270.839844" fill="#f3ed71"/></g><g><path d="M 89.746094 262.859375 C 89.746094 263.386719 89.320312 263.8125 88.792969 263.8125 C 88.269531 263.8125 87.84375 263.386719 87.84375 262.859375 C 87.84375 262.335938 88.269531 261.910156 88.792969 261.910156 C 89.320312 261.910156 89.746094 262.335938 89.746094 262.859375" fill="#f3ed71"/></g><g><path d="M 95.109375 263.308594 C 95.109375 263.832031 94.679688 264.257812 94.15625 264.257812 C 93.628906 264.257812 93.203125 263.832031 93.203125 263.308594 C 93.203125 262.78125 93.628906 262.355469 94.15625 262.355469 C 94.679688 262.355469 95.109375 262.78125 95.109375 263.308594" fill="#f3ed71"/></g><g><path d="M 107.632812 269.679688 C 107.632812 270.203125 107.203125 270.632812 106.679688 270.632812 C 106.152344 270.632812 105.726562 270.203125 105.726562 269.679688 C 105.726562 269.152344 106.152344 268.726562 106.679688 268.726562 C 107.203125 268.726562 107.632812 269.152344 107.632812 269.679688" fill="#f3ed71"/></g><g><path d="M 99.332031 275.355469 C 99.332031 275.882812 98.90625 276.308594 98.378906 276.308594 C 97.855469 276.308594 97.425781 275.882812 97.425781 275.355469 C 97.425781 274.832031 97.855469 274.40625 98.378906 274.40625 C 98.90625 274.40625 99.332031 274.832031 99.332031 275.355469" fill="#f3ed71"/></g><g><path d="M 96.277344 273.3125 C 96.277344 273.839844 95.851562 274.265625 95.328125 274.265625 C 94.800781 274.265625 94.375 273.839844 94.375 273.3125 C 94.375 272.785156 94.800781 272.359375 95.328125 272.359375 C 95.851562 272.359375 96.277344 272.785156 96.277344 273.3125" fill="#f3ed71"/></g><g><path d="M 86.851562 266.824219 C 86.851562 267.351562 86.425781 267.777344 85.898438 267.777344 C 85.375 267.777344 84.949219 267.351562 84.949219 266.824219 C 84.949219 266.300781 85.375 265.875 85.898438 265.875 C 86.425781 265.875 86.851562 266.300781 86.851562 266.824219" fill="#f3ed71"/></g><g><path d="M 82.679688 269.679688 C 82.679688 270.203125 82.253906 270.632812 81.730469 270.632812 C 81.203125 270.632812 80.777344 270.203125 80.777344 269.679688 C 80.777344 269.152344 81.203125 268.726562 81.730469 268.726562 C 82.253906 268.726562 82.679688 269.152344 82.679688 269.679688" fill="#f3ed71"/></g><g><path d="M 468.195312 228.726562 C 468.195312 228.726562 481.0625 256.789062 389.03125 255.457031 C 389.03125 255.457031 395.242188 259.660156 408.910156 257.332031 C 408.910156 257.332031 417.476562 255.816406 423.132812 258.035156 L 422.101562 256.171875 C 422.101562 256.171875 429.132812 257.359375 431.214844 255.222656 L 439.066406 257.332031 L 434.527344 254.941406 L 442.75 257.332031 L 437.898438 254.546875 C 437.898438 254.546875 447.242188 254.121094 453.117188 250.304688 C 453.117188 250.304688 458.429688 246.660156 460.140625 248.402344 L 464.769531 244.355469 C 464.769531 244.355469 466.914062 243.1875 468.808594 238.632812 L 468.808594 240.890625 C 468.808594 240.890625 470.925781 238.28125 469.730469 235.988281 L 473.164062 235.988281 L 468.195312 228.726562" fill="#9b9921"/></g><g><path d="M 219.757812 342.753906 L 214.980469 342.015625 C 219.757812 335.304688 247.371094 320.734375 256.925781 320.996094 L 260.855469 321.59375 L 259.652344 320.222656 L 264.140625 321.773438 L 261.960938 318.925781 C 261.960938 318.925781 273.179688 320.835938 287.648438 314.441406 C 287.648438 314.441406 292.503906 310.457031 288.765625 316.882812 C 288.765625 316.882812 292.195312 313.933594 292.527344 312.769531 C 292.527344 312.769531 294.539062 312.628906 292.527344 315.398438 C 292.527344 315.398438 294.628906 314.914062 297.710938 311.484375 C 297.710938 311.484375 298.535156 308.605469 311.65625 309.019531 C 311.65625 309.019531 314.207031 309.894531 315.382812 310.777344 C 315.382812 310.777344 315.582031 308.871094 313.421875 308.058594 C 313.421875 308.058594 319.671875 309.601562 323.339844 307.886719 C 323.339844 307.886719 319.632812 308.582031 317.238281 306.34375 C 317.238281 306.34375 326.953125 307.265625 328.378906 300.433594 C 328.378906 300.433594 330.34375 300.859375 329.53125 302.746094 C 329.53125 302.746094 331.011719 299.90625 331.679688 296.820312 C 337.355469 288.675781 349.957031 274.21875 367.957031 266.015625 C 367.957031 266.015625 373.519531 263.839844 378.386719 260.578125 C 378.386719 260.578125 384.648438 256.222656 393.265625 257.121094 L 389.03125 255.457031 L 363.824219 263.566406 C 356.871094 265.804688 350.5625 271.984375 345.683594 277.421875 C 338.75 285.144531 329.136719 293.992188 325.808594 298.707031 C 325.808594 298.707031 324.984375 303.5625 307.238281 306.859375 L 239.492188 322.5625 C 232.910156 324.085938 226.761719 327.09375 221.5625 331.40625 C 217.84375 334.484375 213.65625 338.5625 209.988281 343.609375 L 215.792969 343.609375 L 219.757812 342.753906" fill="#9b9921"/></g><g><path d="M 468.195312 228.726562 L 402.527344 217.34375 C 402.527344 217.34375 400.515625 206.148438 403.769531 216.496094 C 403.769531 216.496094 403.769531 209.132812 404.96875 216.871094 C 404.96875 216.871094 406.253906 200.222656 405.824219 216.871094 C 405.824219 216.871094 423.816406 221.691406 422.960938 219.296875 C 422.960938 219.296875 423.71875 219.691406 422.511719 220.144531 L 426.816406 219.296875 L 423.472656 220.328125 L 438.101562 222.609375 L 448.019531 224.347656 C 448.019531 224.347656 449.367188 223.894531 447.699219 223.417969 C 447.699219 223.417969 450.398438 223.394531 448.277344 224.613281 L 453.738281 222.429688 L 449.109375 224.550781 L 452.96875 224.035156 L 449.882812 224.804688 L 466.972656 228.339844 C 466.972656 228.339844 467.101562 223.585938 467.296875 228.277344 C 467.296875 228.277344 469.949219 219.089844 467.679688 228.425781 C 467.679688 228.425781 474.234375 223.628906 468.195312 228.726562" fill="#9b9921"/></g><g><path d="M 468.195312 228.726562 C 468.195312 228.726562 480.53125 258.539062 389.03125 255.457031 L 355.105469 268.308594 L 323.75 304.289062 L 227.113281 327.179688 L 213.679688 343.609375 L 492.617188 343.609375 L 480.019531 253.914062 L 468.195312 228.726562" fill="#553951"/></g><g><path d="M 468.195312 228.726562 L 469.222656 266.765625 L 464.199219 343.609375 L 492.617188 343.609375 L 480.019531 253.914062 L 468.195312 228.726562" fill="#4a3246"/></g><g><path d="M 355.105469 268.308594 L 323.75 304.289062 L 313.429688 343.609375 L 406.601562 343.609375 L 386.214844 256.523438 L 355.105469 268.308594" fill="#4a3246"/></g><g><path d="M 480.019531 253.914062 L 476.5 246.421875 L 464.082031 258.464844 L 442.75 264.703125 L 469.363281 264.371094 L 480.019531 253.914062" fill="#63415f"/></g><g><path d="M 365.820312 316.882812 L 400.902344 316.882812 L 421.757812 315.398438 L 428.613281 306.34375 L 422.667969 321.773438 L 402.019531 324.035156 L 365.820312 316.882812" fill="#63415f"/></g><g><path d="M 442.75 264.703125 C 438.5 266.015625 432 266.910156 432 266.910156 L 428.613281 306.34375 L 422.667969 321.773438 L 425.785156 343.609375 L 452.378906 343.609375 L 442.75 264.703125" fill="#4a3246"/></g><g><path d="M 363.449219 319.710938 C 363.4375 319.539062 363.179688 319.535156 363.179688 319.710938 C 363.167969 323.65625 363.234375 327.59375 363.148438 331.539062 C 363.0625 335.472656 362.628906 339.429688 362.640625 343.355469 C 362.644531 343.5625 362.984375 343.628906 363.015625 343.40625 C 363.546875 339.605469 363.488281 335.628906 363.5625 331.789062 C 363.644531 327.773438 363.675781 323.726562 363.449219 319.710938" fill="#ab909d"/></g><g><path d="M 404.757812 329.023438 C 406.085938 333.867188 407.316406 338.765625 408.695312 343.609375 L 409.230469 343.609375 C 407.902344 338.699219 406.410156 333.824219 405.035156 328.945312 C 404.984375 328.765625 404.707031 328.84375 404.757812 329.023438" fill="#ab909d"/></g><g><path d="M 423.992188 324.859375 C 423.980469 324.660156 423.671875 324.660156 423.683594 324.859375 C 423.933594 329.148438 424.238281 333.433594 424.632812 337.710938 C 424.8125 339.660156 424.960938 341.640625 425.15625 343.609375 L 425.703125 343.609375 C 425.464844 341.558594 425.203125 339.507812 425.011719 337.460938 C 424.617188 333.265625 424.273438 329.066406 423.992188 324.859375" fill="#ab909d"/></g><g><path d="M 428.097656 310.839844 C 426.933594 313.121094 425.980469 315.523438 424.953125 317.867188 C 424.515625 318.871094 424.125 320.207031 423.320312 321.003906 C 422.332031 321.980469 420.785156 321.886719 419.5 321.96875 C 414.496094 322.289062 409.496094 322.691406 404.492188 322.976562 C 399.472656 323.265625 394.71875 322.039062 389.839844 321.007812 C 384.96875 319.972656 380.09375 318.980469 375.214844 317.996094 C 375.101562 317.976562 375.054688 318.148438 375.167969 318.171875 C 380.441406 319.308594 385.722656 320.421875 391.011719 321.5 C 393.613281 322.03125 396.214844 322.660156 398.847656 323.015625 C 401.285156 323.34375 403.753906 323.289062 406.207031 323.132812 C 408.929688 322.957031 411.652344 322.769531 414.378906 322.589844 C 416.78125 322.429688 419.355469 322.5 421.722656 322.03125 C 423.832031 321.613281 424.386719 319.769531 425.167969 317.992188 C 426.207031 315.640625 427.335938 313.308594 428.238281 310.898438 L 428.097656 310.839844" fill="#ab909d"/></g><g><path d="M 445.074219 269.347656 C 445.054688 269.171875 444.773438 269.167969 444.792969 269.347656 C 445.609375 277.632812 445.996094 285.957031 445.929688 294.285156 C 445.859375 302.617188 445.238281 310.902344 444.507812 319.203125 C 444.5 319.300781 444.671875 319.328125 444.683594 319.226562 C 446.972656 302.78125 446.746094 285.835938 445.074219 269.347656" fill="#ab909d"/></g><g><path d="M 340.097656 209.570312 L 352.15625 203.027344 L 375.621094 200.480469 L 366.511719 223.417969 L 340.097656 209.570312" fill="#977c8a"/></g><g><path d="M 375.621094 200.480469 L 385.886719 200.480469 L 385.886719 219.296875 L 366.511719 223.417969 L 375.621094 200.480469" fill="#ab909d"/></g><g><path d="M 352.15625 203.027344 L 375.621094 200.480469 L 368.703125 217.066406 L 373.503906 201.210938 L 352.15625 203.027344" fill="#cfb4c1"/></g><g><path d="M 379.371094 200.480469 L 385.890625 200.480469 L 385.890625 219.296875 L 378.046875 220.144531 L 384.421875 218.660156 L 384.746094 201.390625 L 379.371094 200.480469" fill="#cfb4c1"/></g><g><path d="M 340.097656 209.570312 L 350.578125 208.359375 L 366.511719 223.417969 L 340.097656 209.570312" fill="#876e7c"/></g><g><path d="M 364.703125 217.128906 L 364.503906 217.035156 L 357.660156 208.550781 C 357.570312 208.441406 357.585938 208.277344 357.695312 208.191406 C 357.808594 208.101562 357.96875 208.117188 358.058594 208.230469 L 364.617188 216.355469 L 369.25 203.574219 L 355.914062 204.132812 C 355.769531 204.125 355.652344 204.027344 355.648438 203.886719 C 355.640625 203.746094 355.75 203.625 355.894531 203.617188 L 369.613281 203.042969 C 369.703125 203.046875 369.777344 203.078125 369.828125 203.148438 L 369.863281 203.386719 L 364.945312 216.960938 C 364.914062 217.046875 364.839844 217.113281 364.746094 217.128906 L 364.703125 217.128906" fill="#cfb4c1"/></g><g><path d="M 365.820312 214.042969 L 365.621094 213.945312 L 360.617188 207.546875 C 360.53125 207.4375 360.550781 207.273438 360.664062 207.1875 C 360.773438 207.101562 360.9375 207.121094 361.023438 207.230469 L 366.023438 213.628906 C 366.113281 213.738281 366.09375 213.902344 365.980469 213.988281 L 365.820312 214.042969" fill="#cfb4c1"/></g><g><path d="M 381.96875 217.128906 C 381.824219 217.128906 381.710938 217.015625 381.710938 216.871094 L 381.710938 203.144531 L 378.191406 202.410156 L 375.039062 209.136719 C 374.980469 209.265625 374.824219 209.320312 374.699219 209.257812 C 374.570312 209.199219 374.515625 209.046875 374.574219 208.917969 L 377.8125 202.007812 C 377.863281 201.902344 377.980469 201.839844 378.097656 201.867188 L 382.019531 202.683594 C 382.140625 202.710938 382.222656 202.816406 382.222656 202.9375 L 382.222656 216.871094 C 382.222656 217.015625 382.109375 217.128906 381.96875 217.128906" fill="#cfb4c1"/></g><g><path d="M 379.53125 214.042969 C 379.390625 214.042969 379.277344 213.929688 379.277344 213.785156 L 379.277344 205.027344 C 379.277344 204.886719 379.390625 204.769531 379.53125 204.769531 C 379.675781 204.769531 379.789062 204.886719 379.789062 205.027344 L 379.789062 213.785156 C 379.789062 213.929688 379.675781 214.042969 379.53125 214.042969" fill="#cfb4c1"/></g><g><path d="M 327.019531 213.140625 L 340.097656 209.570312 L 340.257812 209.65625 C 340.21875 209.652344 340.199219 209.652344 340.199219 209.652344 C 338.125 210.34375 333.488281 211.554688 327.019531 213.140625" fill="#cdd455"/></g><g><path d="M 350.089844 219.144531 L 327.019531 213.140625 C 333.488281 211.554688 338.125 210.34375 340.199219 209.652344 C 340.199219 209.652344 340.21875 209.652344 340.257812 209.65625 L 340.261719 209.65625 L 340.199219 209.652344 L 340.277344 209.664062 L 355.164062 217.46875 L 350.089844 219.144531" fill="#b7c219"/></g><g><path d="M 366.511719 223.417969 L 350.089844 219.144531 L 355.164062 217.46875 L 366.511719 223.417969 M 340.277344 209.664062 L 340.199219 209.652344 L 340.261719 209.65625 L 340.277344 209.664062" fill="#b3bd1b"/></g><g><path d="M 340.097656 209.570312 C 340.097656 209.570312 344.375 196.257812 339.429688 209.40625 C 339.429688 209.40625 336.730469 195.652344 338.722656 209.652344 C 338.722656 209.652344 334.171875 199.699219 337.988281 209.652344 L 337.117188 208.773438 C 337.117188 208.773438 333.578125 211.605469 323.339844 214.03125 L 340.097656 209.570312" fill="#a7b01f"/></g><g><path d="M 355.164062 217.46875 C 355.164062 217.46875 354.707031 202.640625 355.902344 217.226562 C 355.902344 217.226562 359.976562 206.671875 355.902344 217.828125 C 355.902344 217.828125 359.667969 211.683594 356.648438 217.828125 C 356.648438 217.828125 363.859375 209.941406 356.882812 218.371094 L 355.164062 217.46875" fill="#a7b01f"/></g><g><path d="M 385.890625 219.296875 C 385.890625 219.296875 395.722656 199.875 385.890625 218.636719 C 385.890625 218.636719 391.480469 202.109375 385.890625 217.828125 L 385.890625 219.296875" fill="#a7b01f"/></g></g></svg>