<?xml version="1.0" encoding="UTF-8" standalone="no"?><svg xmlns="http://www.w3.org/2000/svg" xmlns:xlink="http://www.w3.org/1999/xlink" fill="#000000" height="333.3" preserveAspectRatio="xMidYMid meet" version="1" viewBox="0.0 0.0 318.6 333.3" width="318.6" zoomAndPan="magnify"><g><g id="change1_1"><path d="M169.1,22.06c14.7-2.45,29.41-4.9,44.11-7.35c35.13,80.06,70.25,160.11,105.38,240.17 c-61.27,26.14-122.53,52.28-183.8,78.42c-8.99-3.27-17.97-6.54-26.96-9.8C128.25,223.01,148.67,122.53,169.1,22.06z" fill="#385522"/></g><g id="change2_1"><path d="M0 80.87L183.8 0 291.63 242.62 107.83 323.49z" fill="#425986"/></g><g id="change3_1"><path d="M0 80.87L19.78 72.17 128.91 313.95 107.83 323.49z" fill="#425986"/></g><g id="change4_1"><path d="M18.44,122.36l89.39,201.13l150.56-66.25C139.23,229.64,62.09,168.57,18.44,122.36z" fill="#425986" opacity="0.4"/></g><g id="change5_1"><path d="M115.47,320.13l19.32,7.38l176.45-75.09L208.5,15.49l-21.99-9.38c35.04,78.84,70.08,157.67,105.11,236.51 C232.91,268.45,174.19,294.29,115.47,320.13z" fill="#e9eaea"/></g></g></svg>