<?xml version="1.0" encoding="UTF-8"?><svg xmlns="http://www.w3.org/2000/svg" xmlns:xlink="http://www.w3.org/1999/xlink" height="465.8" preserveAspectRatio="xMidYMid meet" version="1.0" viewBox="-0.1 -0.5 232.8 465.8" width="232.8" zoomAndPan="magnify"><defs><clipPath id="a"><path d="M 1 119 L 224 119 L 224 465.269531 L 1 465.269531 Z M 1 119"/></clipPath><clipPath id="b"><path d="M 1 55 L 232.691406 55 L 232.691406 255 L 1 255 Z M 1 55"/></clipPath></defs><g><g clip-path="url(#a)" id="change1_1"><path d="M 221.960938 153.820312 C 221.960938 153.820312 221.96875 153.820312 221.980469 153.808594 L 223.753906 152.457031 L 223.550781 150.25 C 223.441406 149.03125 222.484375 146.914062 220.710938 146.019531 C 219.484375 145.398438 218.273438 144.746094 217.058594 144.09375 C 213.894531 142.390625 210.621094 140.628906 207.0625 139.390625 C 202.554688 137.820312 197.933594 136.691406 193.460938 135.597656 C 187.601562 134.164062 182.066406 132.8125 176.777344 130.558594 C 173.984375 129.363281 171.09375 129.03125 168.542969 128.738281 C 167.496094 128.621094 166.511719 128.507812 165.566406 128.34375 C 164.445312 128.152344 163.265625 127.808594 162.015625 127.445312 C 160.121094 126.894531 157.976562 126.273438 155.652344 126.089844 C 151.957031 125.796875 148.238281 125.671875 144.644531 125.550781 C 141.398438 125.4375 138.046875 125.324219 134.792969 125.089844 L 133.550781 124.996094 C 130.394531 124.746094 126.824219 124.464844 123.035156 125.378906 C 120.503906 125.992188 117.304688 125.992188 113.773438 125.382812 C 112.875 125.226562 111.949219 125.011719 110.972656 124.785156 C 108.808594 124.28125 106.570312 123.761719 104.074219 123.738281 C 103.976562 123.738281 103.882812 123.734375 103.804688 123.734375 C 103 121.007812 100.769531 119.449219 97.757812 119.527344 C 92.867188 119.65625 88.066406 120.300781 83.425781 120.925781 C 81.757812 121.148438 80.089844 121.375 78.417969 121.574219 C 76.089844 121.851562 73.894531 122.398438 71.769531 122.925781 C 68.609375 123.710938 65.625 124.449219 62.785156 124.148438 C 56.46875 123.472656 50.625 124.542969 44.925781 127.429688 C 42.136719 128.84375 40.46875 129.609375 38.578125 128.882812 C 36.445312 128.066406 34.25 128.753906 32.484375 129.304688 L 32.023438 129.445312 C 29.945312 130.074219 28.613281 131.40625 27.640625 132.375 C 27.421875 132.597656 27.105469 132.910156 26.910156 133.070312 C 21.664062 133.722656 17.625 136.386719 15.03125 138.351562 C 14.136719 139.023438 13.167969 139.667969 12.140625 140.351562 C 8.261719 142.929688 3.863281 145.847656 1.90625 151.671875 C -0.441406 158.667969 2.855469 160.929688 6.773438 162.335938 C 7.300781 162.523438 7.835938 162.699219 8.371094 162.878906 C 9.667969 163.3125 10.898438 163.722656 11.871094 164.265625 C 18.054688 167.71875 23.421875 169.925781 28.761719 171.210938 C 29.722656 171.441406 30.671875 171.574219 31.585938 171.707031 C 35.046875 172.199219 35.457031 172.519531 35.847656 173.785156 C 36.800781 176.867188 39.289062 177.671875 41.113281 177.421875 C 42.589844 177.226562 44.257812 177.484375 46.027344 177.757812 C 47.902344 178.050781 50.027344 178.386719 52.292969 178.222656 C 53.734375 178.125 55.28125 178.226562 56.921875 178.335938 C 58.414062 178.4375 59.953125 178.535156 61.546875 178.5 C 62.375 179.453125 64.339844 181.53125 67.636719 180.800781 C 68.460938 180.621094 69.535156 180.796875 70.78125 181.003906 C 71.769531 181.167969 72.894531 181.351562 74.097656 181.382812 C 75.960938 181.429688 77.824219 181.464844 79.691406 181.496094 C 82.296875 181.542969 84.90625 181.589844 87.511719 181.675781 C 88.785156 181.71875 90.09375 181.839844 91.472656 181.96875 C 93.296875 182.136719 95.15625 182.308594 97.046875 182.308594 C 98.246094 182.308594 99.460938 182.238281 100.6875 182.058594 C 103.441406 181.648438 106.285156 181.785156 109.289062 181.9375 C 111.410156 182.039062 113.601562 182.148438 115.847656 182.0625 L 118.636719 181.960938 C 123.421875 181.789062 128.367188 181.613281 133.246094 181.023438 C 135.171875 180.792969 137.089844 180.476562 138.941406 180.167969 C 143.257812 179.453125 147.71875 178.714844 152.613281 179.015625 L 152.855469 179.019531 C 153.023438 179.023438 153.519531 179.085938 153.882812 179.132812 C 155.789062 179.375 158.675781 179.742188 161.242188 178.378906 C 165.109375 176.324219 169.367188 175.496094 173.871094 174.617188 C 174.546875 174.488281 175.226562 174.355469 175.902344 174.21875 C 178.425781 173.714844 180.941406 173.1875 183.460938 172.664062 C 191.144531 171.066406 199.089844 169.414062 206.929688 168.328125 C 208.8125 168.066406 210.28125 167.21875 211.351562 166.601562 C 211.9375 166.265625 212.605469 165.875 212.820312 165.917969 C 214.261719 166.148438 219.160156 166.214844 222.1875 159.996094 C 223.121094 158.078125 221.980469 156.710938 221.933594 155.308594 C 221.917969 154.820312 221.894531 154.105469 221.960938 153.820312 Z M 220.445312 196.761719 C 219.027344 201.210938 217.421875 206.257812 215.597656 211.140625 C 214.582031 213.855469 214.480469 216.042969 215.246094 218.445312 C 216.84375 223.425781 216.164062 228.890625 213.429688 233.0625 C 212.71875 234.148438 212.03125 236.230469 212.097656 238.4375 C 212.210938 242.105469 211.269531 246.238281 209.21875 251.074219 C 208.613281 252.492188 208.351562 254.144531 208.070312 255.890625 C 207.78125 257.675781 207.488281 259.519531 206.816406 261.4375 C 206.757812 261.613281 206.695312 262.011719 206.644531 262.363281 C 206.457031 263.644531 206.148438 265.753906 204.425781 267.597656 C 204.375 267.765625 204.3125 268.066406 204.300781 268.4375 C 204.089844 274.15625 203.289062 279.3125 201.859375 284.1875 C 200.976562 287.199219 200.714844 289.128906 200.765625 289.9375 C 201.066406 294.914062 200.140625 299.4375 199.238281 303.8125 C 198.878906 305.578125 198.535156 307.253906 198.273438 308.9375 C 197.453125 314.222656 196.515625 319.503906 195.792969 323.511719 C 195.5 325.128906 195.257812 326.746094 195.003906 328.460938 C 194.589844 331.242188 194.160156 334.121094 193.5 336.960938 C 192.929688 339.417969 192.992188 342.054688 193.0625 344.84375 C 193.144531 348.148438 193.226562 351.570312 192.316406 355.199219 C 191.453125 358.644531 191.023438 362.21875 190.566406 366.007812 C 190.183594 369.183594 189.785156 372.464844 189.109375 375.730469 C 188.273438 379.753906 187.636719 383.945312 187.023438 388 C 186.511719 391.375 185.980469 394.863281 185.328125 398.308594 C 184.601562 402.171875 183.355469 405.179688 181.40625 407.773438 C 180.746094 408.65625 180.941406 410.707031 181.117188 412.519531 C 181.164062 412.996094 181.210938 413.460938 181.242188 413.910156 C 181.652344 419.4375 180.742188 424.613281 179.859375 429.621094 C 179.394531 432.261719 178.957031 434.75 178.707031 437.269531 C 178.582031 438.542969 178.285156 439.777344 178 440.972656 C 177.847656 441.617188 177.6875 442.269531 177.570312 442.917969 C 176.628906 448.027344 172.289062 449.050781 169.964844 449.601562 C 169.445312 449.722656 168.953125 449.839844 168.578125 449.964844 C 168.148438 450.113281 167.710938 450.253906 167.269531 450.394531 C 164.144531 451.398438 162.910156 451.941406 162.339844 453.664062 L 162.28125 453.859375 C 162.058594 454.640625 161.460938 456.710938 159.3125 457.59375 C 158.519531 457.917969 156.902344 458.304688 154.953125 457.210938 C 154.613281 457.019531 154.257812 457.074219 152.546875 457.792969 C 151.941406 458.046875 151.257812 458.332031 150.523438 458.5625 C 143.648438 460.714844 137.921875 462.003906 132.507812 462.617188 C 131.113281 462.773438 129.761719 462.84375 128.449219 462.90625 C 125.269531 463.066406 122.527344 463.199219 119.980469 464.507812 C 118.945312 465.035156 117.878906 465.269531 116.808594 465.269531 C 113.988281 465.269531 111.195312 463.640625 109.1875 461.535156 C 106.765625 462.128906 104.421875 462.113281 102.289062 462.09375 C 100.253906 462.078125 98.335938 462.0625 96.65625 462.585938 C 92.703125 463.808594 88.292969 462.597656 84.113281 461.109375 L 83.890625 461.03125 C 83.011719 460.71875 82.183594 460.421875 81.542969 460.363281 C 79.425781 460.179688 75.914062 459.867188 73.371094 455.953125 C 73.011719 455.828125 72.265625 455.703125 71.75 455.617188 C 70.820312 455.464844 69.769531 455.292969 68.710938 454.914062 L 68.125 454.703125 C 64.492188 453.417969 59.519531 451.652344 57.933594 446.535156 C 57.582031 445.398438 57.039062 444.261719 56.460938 443.058594 C 55.671875 441.410156 54.777344 439.542969 54.257812 437.386719 C 53.886719 435.835938 53.339844 434.273438 52.753906 432.625 C 51.824219 429.980469 50.859375 427.246094 50.476562 424.160156 C 50.464844 424.082031 50.441406 423.992188 50.421875 423.898438 C 50.261719 423.203125 50 422.078125 50.253906 420.644531 C 49.515625 418.359375 49.242188 416.023438 48.976562 413.75 C 48.78125 412.101562 48.597656 410.546875 48.253906 409.074219 C 47.4375 405.617188 48.109375 402.910156 50.25 401.023438 C 50.328125 400.953125 50.378906 400.898438 50.40625 400.867188 C 50.417969 400.492188 50.148438 399.519531 50.042969 399.140625 C 48.796875 394.636719 47.957031 390.050781 47.140625 385.617188 C 46.617188 382.765625 46.078125 379.8125 45.441406 376.976562 C 43.9375 370.265625 42.910156 363.429688 41.921875 356.816406 C 41.589844 354.617188 41.261719 352.417969 40.914062 350.222656 C 39.351562 340.34375 36.921875 330.660156 34.140625 319.929688 C 33.253906 316.511719 32.78125 313.039062 32.324219 309.6875 C 31.949219 306.941406 31.597656 304.347656 31.039062 301.8125 C 30.3125 298.523438 29.902344 295.246094 29.507812 292.078125 C 29.308594 290.46875 29.105469 288.855469 28.863281 287.246094 C 28.605469 285.550781 28.257812 283.867188 27.890625 282.082031 C 27.25 278.984375 26.589844 275.785156 26.40625 272.40625 C 26.378906 271.878906 26.363281 271.34375 26.347656 270.8125 C 26.324219 269.984375 26.300781 269.207031 26.222656 268.492188 C 25.707031 263.847656 25.542969 259.179688 25.382812 254.664062 L 25.351562 253.695312 C 25.328125 253.085938 24.839844 252.242188 24.277344 251.269531 C 23.523438 249.972656 22.585938 248.355469 22.222656 246.3125 C 21.902344 244.507812 21.457031 242.710938 20.984375 240.808594 C 20.402344 238.46875 19.800781 236.046875 19.429688 233.53125 C 18.746094 228.886719 17.730469 224.175781 16.75 219.617188 C 16.289062 217.480469 15.828125 215.34375 15.398438 213.199219 C 15.0625 211.527344 14.710938 209.859375 14.359375 208.191406 C 13.335938 203.347656 12.277344 198.339844 11.613281 193.28125 C 10.5 184.792969 12.511719 183.074219 20.023438 181.582031 L 20.539062 181.480469 C 24.734375 180.636719 27.566406 182.023438 30.003906 183.640625 C 31.179688 184.421875 32.988281 184.824219 34.902344 185.246094 C 35.671875 185.417969 36.433594 185.589844 37.179688 185.785156 C 39.707031 186.445312 42.316406 186.402344 45.707031 186.121094 C 50.441406 185.730469 54.378906 188.140625 56.046875 192.34375 C 56.988281 192.652344 57.855469 193.027344 58.65625 193.375 C 60.511719 194.175781 61.617188 194.617188 62.785156 194.34375 C 69.414062 192.796875 76.5 192.714844 85.078125 194.078125 C 86.753906 194.34375 88.417969 194.550781 90.179688 194.773438 C 94.117188 195.269531 98.191406 195.78125 102.261719 196.960938 C 102.40625 196.953125 103.09375 196.75 103.550781 196.613281 C 104.34375 196.375 105.246094 196.105469 106.289062 195.992188 C 111.160156 195.457031 115.910156 195.769531 120.5 196.074219 C 123.675781 196.28125 126.671875 196.480469 129.675781 196.414062 C 136.394531 196.261719 143.183594 196.320312 149.746094 196.378906 L 150.644531 196.386719 C 151.871094 196.398438 153.726562 196.503906 155.683594 197.285156 C 155.957031 197.394531 156.152344 197.46875 156.296875 197.511719 C 156.605469 197.210938 156.96875 196.765625 157.320312 196.332031 C 158.714844 194.621094 160.816406 192.03125 164.691406 191.8125 C 167.464844 191.652344 170.238281 191.214844 173.175781 190.753906 C 174.816406 190.496094 176.515625 190.226562 178.21875 190.011719 C 179.84375 189.808594 181.714844 188.859375 183.691406 187.859375 C 185.074219 187.160156 186.503906 186.433594 188.046875 185.851562 C 192.109375 184.320312 195.992188 184.105469 199.582031 184.101562 C 199.585938 184.101562 199.589844 184.101562 199.589844 184.101562 C 202.03125 184.101562 204.128906 185.152344 205.433594 186.847656 C 205.832031 186.667969 206.226562 186.488281 206.410156 186.359375 C 208.609375 184.796875 212.300781 183.480469 217.390625 186.070312 C 220.820312 187.8125 221.992188 191.910156 220.445312 196.761719" fill="#dfac63"/></g><g clip-path="url(#b)" id="change2_1"><path d="M 66.605469 156.679688 C 64.820312 156.113281 64.683594 158.199219 64.449219 158.863281 C 63.984375 160.183594 65.71875 161.25 67.828125 161.394531 C 69.148438 161.484375 70.695312 161.164062 71.1875 159.449219 C 69.390625 158.9375 68.382812 157.242188 66.605469 156.679688 Z M 102.523438 229.714844 C 101.140625 228.226562 97.414062 227.511719 95.453125 229.121094 C 93.640625 230.609375 93.449219 229.601562 92.347656 228.746094 C 90.492188 227.300781 88.769531 223.847656 86.078125 226.039062 C 83.402344 228.222656 81.132812 225.441406 78.878906 226.53125 C 78.328125 226.800781 77.914062 227.515625 77.617188 228.113281 C 76.148438 231.097656 74.765625 234.128906 73.289062 237.109375 C 72.667969 238.371094 72.929688 239.214844 74.03125 240.066406 C 75.675781 241.339844 74.855469 242.402344 76.1875 242.996094 C 78 243.8125 77.664062 243.695312 79.792969 245.183594 C 81.765625 246.5625 83.589844 248.066406 85.9375 248.855469 C 89.394531 250.019531 92.996094 250.621094 96.472656 251.8125 C 99.179688 252.742188 102 253.679688 104.792969 254.464844 C 105.550781 254.714844 106.160156 254.664062 106.625 253.925781 C 108.519531 250.902344 110.457031 247.90625 112.335938 244.871094 C 114.113281 242 110.644531 240.625 110.4375 238.726562 C 109.882812 233.621094 105.183594 232.585938 102.523438 229.714844 Z M 231.761719 172.511719 C 228.871094 170.671875 228.769531 168.214844 229.445312 165.335938 C 229.8125 163.785156 228.785156 162.417969 228.660156 160.921875 C 228.394531 157.761719 225.503906 158.0625 223.683594 157.714844 C 222.105469 157.414062 222.007812 159.554688 221.882812 160.914062 C 221.867188 161.070312 221.855469 161.234375 221.839844 161.394531 C 221.691406 161.285156 221.484375 161.152344 221.1875 160.996094 C 219.214844 159.984375 216.945312 162.9375 215.679688 163.875 C 213.644531 165.386719 211.554688 166.675781 208.910156 166.757812 C 203.6875 166.917969 198.460938 167.101562 193.300781 167.945312 C 191.792969 168.191406 190.40625 169.113281 188.902344 169.410156 C 185.140625 170.160156 181.296875 170.457031 177.71875 172.050781 C 176.085938 172.78125 173.847656 173.785156 172.652344 172.191406 C 170.800781 169.714844 168.761719 170.296875 166.621094 170.9375 C 154.859375 174.445312 143.039062 177.382812 130.578125 176.664062 C 121.726562 176.152344 113.023438 177.390625 104.242188 178.757812 C 96.554688 179.953125 88.457031 178.585938 80.808594 177.550781 C 70.851562 176.203125 60.84375 174.355469 50.929688 172.289062 C 43.46875 170.734375 36.246094 168.398438 28.828125 166.78125 C 27.597656 166.511719 26.21875 166.136719 25.308594 165.351562 C 21.796875 162.335938 17.980469 160.613281 13.21875 161.105469 C 10.671875 161.367188 8.691406 159.460938 7.101562 157.96875 C 5.988281 156.925781 5.246094 156.453125 3.953125 156.769531 C 2.554688 157.113281 1.945312 158.117188 1.894531 159.550781 C 1.800781 162.414062 1.492188 165.277344 1.554688 168.136719 C 1.648438 172.179688 3.191406 175.648438 6.175781 178.492188 C 8.773438 180.964844 11.332031 182.960938 14.953125 180.242188 C 15.957031 179.484375 17.335938 179.695312 17.5 180.910156 C 17.894531 183.816406 20.195312 184.480469 22.207031 185.589844 C 23.617188 186.367188 23.863281 188.730469 25.742188 188.683594 C 31.355469 188.542969 36.4375 191.945312 42.160156 191.03125 C 42.898438 190.914062 44.0625 190.808594 44.003906 192.371094 C 43.863281 196.179688 46.769531 196.355469 49.390625 196.4375 C 50.972656 196.484375 52.566406 195.796875 54.171875 195.644531 C 57.253906 195.359375 60.410156 193.589844 63.378906 195.058594 C 65.457031 196.085938 67.414062 196.566406 69.632812 196.480469 C 72.617188 196.367188 74.34375 197.449219 73.585938 200.769531 C 73.402344 201.582031 73.613281 202.46875 74.410156 202.226562 C 76.566406 201.570312 78.484375 202.761719 80.578125 202.726562 C 82.914062 202.683594 85.667969 202.003906 87.386719 204.765625 C 88.042969 205.816406 89.46875 205.601562 90.648438 205.472656 C 96.574219 204.84375 102.511719 205.996094 108.589844 204.929688 C 106.941406 209.933594 105.363281 214.476562 103.960938 219.078125 C 102.996094 222.234375 103.25 224.984375 106.796875 226.679688 C 108.085938 227.296875 109.855469 227.546875 110.273438 229.632812 C 110.90625 232.777344 113.390625 232.226562 114.878906 230.835938 C 117.964844 227.945312 121.386719 228.082031 124.511719 229.710938 C 127.6875 231.367188 130.328125 233.742188 134.285156 231.828125 C 134.992188 231.484375 136.359375 232.824219 137.457031 232.90625 C 139.371094 233.050781 142.210938 234.496094 143.039062 232.523438 C 144.097656 229.996094 146.726562 228.59375 147.34375 226.453125 C 148.976562 220.769531 152.261719 215.667969 153.195312 209.839844 C 153.679688 206.828125 156.558594 203.050781 151.292969 201.089844 C 153.691406 199.152344 155.695312 198.695312 157.75 200.6875 C 157.960938 200.894531 158.296875 200.507812 158.683594 199.882812 C 159.636719 199.519531 160.730469 198.914062 161.1875 198.996094 C 164.269531 199.578125 164.277344 198.539062 166.46875 197.753906 C 171.035156 196.109375 175.46875 194.011719 180.289062 193.09375 C 182.324219 192.707031 184.480469 192.503906 186.324219 191.652344 C 191.359375 189.332031 196.605469 187.589844 201.761719 185.597656 C 203.410156 184.960938 206.621094 188.378906 208.1875 187.996094 C 211.761719 187.125 213.59375 186.539062 217.242188 185.042969 C 222.589844 182.847656 226.960938 179.261719 231.578125 176.019531 C 232.839844 175.140625 233.195312 173.425781 231.761719 172.511719 Z M 5.871094 147.777344 C 3.945312 144.378906 4.609375 140.875 6.03125 137.40625 C 8.160156 132.21875 10.011719 126.917969 12.296875 121.804688 C 13.410156 119.308594 15.261719 117.144531 16.738281 114.808594 C 18.027344 112.773438 19.097656 110.679688 19.992188 108.390625 C 21.664062 104.113281 24.9375 100.765625 28.332031 97.765625 C 35.289062 91.613281 42.222656 85.4375 49.503906 79.632812 C 53.296875 76.605469 56.910156 73.210938 60.78125 70.210938 C 63.421875 68.164062 66.105469 66.160156 69.738281 65.875 C 75.515625 65.421875 80.21875 61.804688 85.582031 60.046875 C 89.277344 58.835938 92.710938 57 96.65625 58.984375 C 98.792969 60.058594 100.765625 58.460938 102.636719 58.058594 C 107.84375 56.9375 113.09375 56.117188 118.351562 55.613281 C 126.519531 54.828125 134.378906 56.703125 142.242188 58.941406 C 145.742188 59.9375 149.300781 61.148438 152.71875 62.21875 C 156.628906 63.4375 160.882812 64.414062 164.53125 66.625 C 165.179688 67.015625 165.4375 67.53125 165.734375 68.199219 C 167.246094 71.601562 169.621094 73.707031 173.230469 75.417969 C 178.140625 77.75 183.046875 80.851562 185.964844 85.765625 C 186.554688 86.757812 186.378906 88.441406 187.078125 89.9375 C 189.4375 95.007812 194.511719 97.359375 197.773438 101.484375 C 199.855469 104.125 204.40625 105.960938 206.1875 108.996094 C 210.308594 116.035156 210.300781 121.867188 216.1875 127.996094 C 218.023438 129.910156 216.984375 136.152344 218.917969 138.261719 C 219.925781 139.363281 220.199219 143.488281 220.1875 144.996094 C 220.144531 150.121094 212.496094 149.234375 208.097656 146.601562 C 203.554688 143.882812 199.074219 141.0625 194.613281 138.210938 C 193.214844 137.316406 191.75 136.769531 189.34375 136.402344 C 192.027344 140.121094 188.785156 141.292969 187.105469 142.34375 C 183.894531 144.355469 180.308594 145.8125 176.769531 147.230469 C 175.179688 147.863281 173.359375 148.78125 171.648438 146.953125 C 170.753906 145.996094 169.882812 146.644531 168.832031 147.445312 C 163.441406 151.5625 156.066406 150.386719 151.242188 147.042969 C 149.921875 146.128906 149.402344 145.5625 150.875 144.179688 C 154.433594 140.828125 157.234375 136.734375 161.488281 133.707031 C 158.003906 131.503906 154.234375 131.75 150.78125 131.160156 C 148.855469 130.832031 147.1875 129.886719 145.253906 129.707031 C 139.699219 129.195312 134.148438 128.605469 128.601562 127.984375 C 116.324219 126.613281 103.957031 126.511719 91.628906 127.191406 C 87.785156 127.40625 83.839844 128.449219 80.25 129.894531 C 76.449219 131.417969 72.964844 131.648438 69.390625 129.84375 C 68.53125 129.40625 68.050781 129.429688 67.265625 129.882812 C 61.207031 133.375 54.433594 135.332031 47.78125 136.695312 C 45.019531 137.261719 41.851562 137.402344 38.910156 138.179688 C 38.546875 138.277344 37.96875 138.058594 37.664062 137.789062 C 36.417969 136.6875 35.90625 134.742188 33.390625 135.445312 C 29.453125 136.542969 26.394531 138.636719 24.210938 142.023438 C 23.105469 143.742188 22.207031 145.59375 21.109375 147.320312 C 19.332031 150.105469 16.917969 151.453125 13.472656 150.734375 C 12.78125 150.589844 12.015625 149.9375 11.179688 150.519531 C 7.734375 152.914062 6.945312 149.667969 5.871094 147.777344" fill="#f6ddb9"/></g><g id="change3_1"><path d="M 141.941406 14.675781 C 139.726562 19.339844 137.054688 24.277344 136.519531 29.171875 C 135.730469 36.394531 130.332031 41.269531 129.007812 47.960938 C 127.914062 53.488281 126.964844 59.054688 125.570312 64.507812 C 123.765625 71.585938 122.574219 78.777344 120.03125 85.75 C 118.273438 90.574219 117.136719 95.863281 115.9375 101.003906 C 114.308594 108 111.542969 118.078125 107.1875 123.996094 C 105.449219 126.355469 105.433594 126.050781 104.953125 128.757812 C 104.046875 133.847656 100.925781 137.714844 98.625 142.039062 C 98.289062 142.671875 97.199219 143.496094 96.710938 143.355469 C 94.113281 142.613281 92.769531 144.753906 91.601562 145.988281 C 89.839844 147.847656 87.667969 147.925781 85.640625 148.695312 C 82.855469 149.757812 81.597656 148.886719 82.148438 145.367188 C 79.453125 137.648438 84.40625 130.105469 84.230469 122.359375 C 84.089844 116.09375 86.363281 110.789062 87.652344 105.164062 C 89.550781 96.875 92.691406 88.871094 95.332031 80.757812 C 97.214844 74.976562 100.441406 69.636719 101.957031 63.851562 C 103.304688 58.71875 105.984375 54.039062 105.664062 48.089844 C 105.402344 43.273438 108.265625 38.140625 109.574219 33.085938 C 111.578125 25.355469 114.214844 17.785156 116.699219 10.1875 C 117.921875 6.460938 119.441406 2.90625 123.847656 1.714844 C 124.496094 1.539062 125.027344 1.199219 125.722656 1.429688 C 128.226562 2.261719 130.535156 2.765625 133.3125 1.636719 C 135.476562 0.757812 137.507812 3.011719 138.925781 4.496094 C 141.539062 7.234375 144.160156 10.007812 141.941406 14.675781" fill="#bb2636"/></g><g id="change4_1"><path d="M 88.542969 383.0625 C 88.527344 385.46875 91.820312 388.351562 94.601562 388.125 C 97.226562 387.914062 98.195312 385.996094 98.53125 384.019531 C 98.578125 380.007812 96.691406 377.640625 93.734375 377.632812 C 91 377.625 88.566406 380.171875 88.542969 383.0625 Z M 69.457031 414.433594 C 69.625 411.367188 67.925781 409.261719 65.234375 409.207031 C 62.597656 409.152344 60.460938 411.730469 60.21875 415.257812 C 60.03125 418.015625 61.730469 420.097656 64.320312 420.28125 C 67.011719 420.472656 69.265625 417.90625 69.457031 414.433594 Z M 164.054688 437.824219 C 161.308594 437.808594 158.648438 441.1875 158.835938 444.507812 C 158.992188 447.363281 160.789062 448.617188 163.402344 448.695312 C 166.203125 448.777344 169.128906 445.542969 169.050781 442.695312 C 168.980469 440.285156 166.472656 437.839844 164.054688 437.824219 Z M 131.789062 421.070312 C 134.769531 421.21875 137.09375 418.3125 137.203125 413.902344 C 137.496094 411.480469 136.355469 409.835938 133.382812 409.785156 C 129.964844 409.730469 127.027344 412.472656 126.929688 415.746094 C 126.847656 418.324219 129.242188 420.945312 131.789062 421.070312 Z M 134.835938 373.398438 C 138.136719 373.3125 142.324219 369.820312 142.269531 367.203125 C 142.230469 365.285156 136.984375 360.117188 135.210938 360.238281 C 132.671875 360.417969 129.4375 364.8125 129.425781 368.105469 C 129.414062 370.667969 132.277344 373.46875 134.835938 373.398438 Z M 75.972656 442.703125 C 73.527344 443.175781 70.460938 443.261719 67.859375 445.09375 C 66.1875 446.273438 66.085938 447.730469 67.703125 448.746094 C 71.449219 451.101562 75.394531 453.132812 79.941406 453.488281 C 81.863281 453.640625 83.046875 452.6875 83.394531 450.796875 C 84.046875 447.246094 80.136719 442.679688 75.972656 442.703125 Z M 65 388.925781 C 66.5 390.601562 67.851562 392.542969 70.484375 391.550781 C 73.152344 390.542969 73.6875 388.128906 74.015625 385.246094 C 73.71875 383.894531 73.542969 382.132812 72.933594 380.535156 C 72.097656 378.359375 70.417969 376.957031 67.964844 376.863281 C 65.65625 376.777344 64.609375 378.324219 63.542969 380.140625 C 61.511719 383.585938 62.625 386.269531 65 388.925781 Z M 175.84375 367.082031 C 178.640625 367.082031 182.242188 362.6875 182.394531 359.085938 C 182.488281 356.902344 178.773438 352.019531 176.949219 351.921875 C 174.074219 351.769531 169.699219 357.664062 169.589844 361.835938 C 169.515625 364.617188 172.457031 367.085938 175.84375 367.082031 Z M 95.175781 404.246094 C 95.25 407.410156 96.046875 408.316406 100.566406 411.515625 C 103.4375 413.542969 105.933594 412.492188 108.171875 410.761719 C 110.304688 409.113281 110.539062 405.230469 108.414062 403.300781 C 106.507812 401.566406 104.566406 400.066406 103.25 397.730469 C 102.613281 396.597656 100.722656 396.269531 99.476562 397.179688 C 97.113281 398.902344 95.035156 400.941406 95.175781 404.246094 Z M 109.136719 451.25 C 107.898438 450.707031 106.960938 450.0625 106.210938 448.980469 C 103.214844 444.648438 101.71875 444.074219 96.636719 445.644531 C 94.789062 446.210938 93.351562 447.5625 93.175781 449.605469 C 92.953125 452.175781 91.617188 455.105469 94.167969 457.136719 C 95.957031 458.5625 98.375 458.113281 101.3125 458.195312 C 104.171875 459.050781 106.554688 456.066406 109.601562 455.191406 C 111.453125 454.660156 111.179688 452.140625 109.136719 451.25 Z M 80.882812 390.398438 C 77.839844 391.617188 75.769531 394.460938 74.429688 397.429688 C 72.824219 400.992188 75.078125 403.796875 79.042969 403.972656 C 80.925781 404.058594 82.488281 402.902344 84.464844 403.25 C 87.863281 403.851562 90.679688 401.007812 90.605469 397.457031 C 90.507812 393.03125 84.988281 388.753906 80.882812 390.398438 Z M 153.433594 444.964844 C 152.066406 443.152344 149.320312 444.160156 147.238281 443.78125 C 143.6875 443.132812 139.300781 449.136719 139.246094 453.957031 C 139.21875 456.5 141.46875 458.421875 144.453125 458.402344 C 149.808594 458.375 156.480469 454.730469 155.605469 452.066406 C 154.828125 449.6875 154.894531 446.898438 153.433594 444.964844 Z M 94 424.085938 C 94.238281 422.96875 94.207031 421.789062 94.375 419.671875 C 95.28125 416.808594 92.652344 413.964844 91.234375 410.992188 C 89.710938 407.796875 79.296875 408.648438 77.488281 411.785156 C 76.28125 413.875 77.101562 415.425781 79.710938 415.957031 C 80.675781 416.152344 82.335938 415.710938 82.363281 416.96875 C 82.480469 421.894531 86.902344 423.007812 89.640625 425.574219 C 91.441406 427.269531 93.472656 426.527344 94 424.085938 Z M 75.867188 439.152344 C 78.84375 439.1875 82.457031 435.53125 82.554688 432.390625 C 82.710938 427.410156 79.203125 423.039062 74.921875 422.886719 C 71.429688 422.761719 66.675781 428.011719 66.472656 432.21875 C 66.296875 435.894531 70.636719 439.097656 75.867188 439.152344 Z M 146.671875 390.796875 C 149.15625 391.457031 152.316406 388.71875 153.070312 385.183594 C 153.285156 384.167969 153.335938 383.117188 153.382812 382.753906 C 153.382812 381.492188 153.5 380.878906 153.359375 380.339844 C 152.886719 378.546875 152.300781 376.789062 151.796875 375.007812 C 150.703125 371.105469 147.875 370.277344 144.789062 372.957031 C 142.03125 375.355469 140.847656 378.664062 139.828125 381.96875 C 138.289062 386.9375 140.011719 389.027344 146.671875 390.796875 Z M 77.222656 373.179688 C 78.507812 372.863281 79.363281 373.140625 80.46875 373.585938 C 83.363281 374.757812 85.867188 373.933594 88.101562 371.816406 C 90.796875 369.265625 91.371094 366.25 90.007812 362.957031 C 88.925781 360.351562 86.667969 359.601562 83.953125 359.882812 C 83.160156 359.964844 82.335938 359.726562 81.289062 359.609375 C 77.125 359.476562 72.234375 364.980469 72.585938 369.683594 C 72.800781 372.546875 74.355469 373.878906 77.222656 373.179688 Z M 174.707031 384.535156 C 176.625 383.066406 178.746094 381.660156 178.550781 379.371094 C 178.605469 377.667969 178.460938 376.199219 177.351562 376.1875 C 174.960938 376.160156 174.039062 374.3125 172.648438 373.0625 C 170.1875 370.855469 165.53125 370.285156 163.59375 372.070312 C 160.527344 374.894531 159.414062 381.496094 161.5625 384.113281 C 164.882812 388.164062 169.730469 388.351562 174.707031 384.535156 Z M 133.222656 400.917969 C 132.757812 396.664062 130.246094 393.640625 126.644531 391.84375 C 121.511719 389.285156 119.261719 390.351562 117.023438 395.738281 C 116.3125 397.449219 115.800781 399.242188 115.191406 400.996094 C 114.699219 402.417969 115.253906 403.410156 116.363281 404.320312 C 119.625 406.992188 123.6875 407.007812 127.523438 407.785156 C 129.570312 407.777344 133.46875 403.164062 133.222656 400.917969 Z M 111.914062 383.6875 C 114.800781 385.816406 118.605469 385.90625 121.101562 387.710938 C 126.148438 387.597656 131.816406 380.703125 130.960938 376.332031 C 130.667969 374.832031 130.117188 373.226562 128.277344 373.109375 C 126.09375 372.972656 124.085938 372.335938 122.128906 371.480469 C 121.148438 371.054688 120.308594 371.175781 119.5 371.707031 C 116.273438 373.824219 113.585938 376.515625 111.339844 379.640625 C 110.261719 381.140625 110.652344 382.761719 111.914062 383.6875 Z M 64.140625 398.785156 C 64.929688 395.65625 61.046875 390.050781 58.144531 389.019531 C 56.113281 388.300781 54.175781 388.542969 53.03125 390.660156 C 51.832031 392.886719 50.417969 395.082031 49.710938 397.46875 C 48.707031 400.84375 50.183594 403.972656 51.621094 407.015625 C 52.945312 409.824219 55.351562 408.277344 57.230469 408.292969 C 59.132812 409.300781 60.085938 408.089844 61.472656 407.164062 C 64.742188 404.992188 63.445312 401.550781 64.140625 398.785156 Z M 142.789062 399.445312 C 142.894531 401.460938 142.699219 403.03125 143.113281 404.421875 C 143.929688 407.15625 145.574219 409.25 148.472656 410.273438 C 151.175781 411.226562 153.078125 410.878906 154.460938 408.117188 C 154.839844 407.359375 156.152344 406.75 157.101562 406.648438 C 160.710938 406.269531 162.644531 404.546875 162.480469 400.792969 C 162.410156 399.203125 157.667969 393.367188 156.214844 393.199219 C 155.660156 393.136719 155.066406 393.324219 154.511719 393.460938 C 153.691406 393.664062 152.992188 393.53125 152.175781 393.222656 C 148.480469 391.816406 142.796875 395.960938 142.789062 399.445312 Z M 63.757812 372.4375 C 66.164062 367.394531 62.695312 361.523438 57.222656 361.199219 C 55.511719 361.097656 53.792969 360.65625 52.136719 360.171875 C 47.296875 358.761719 44.546875 360.945312 44.804688 366.617188 C 44.628906 369.5 45.78125 372.183594 48.238281 374.6875 C 49.941406 376.425781 51.90625 375.726562 53.652344 376.441406 C 55.914062 377.375 62.726562 374.601562 63.757812 372.4375 Z M 156.449219 415.988281 C 154.269531 413.574219 149.5625 413.324219 147.324219 415.507812 C 142.597656 420.125 140.21875 427.414062 143.214844 429.171875 C 146.199219 430.921875 147.765625 433.867188 150.457031 435.753906 C 152.988281 437.527344 155.65625 437.257812 157.328125 434.644531 C 159.070312 431.929688 159.734375 428.90625 159.671875 425.703125 C 159.707031 423.429688 157.703125 417.382812 156.449219 415.988281 Z M 111.027344 420.484375 C 105.269531 421.136719 101.765625 424.863281 98.855469 429.355469 C 97.933594 430.777344 98.0625 432.386719 99.398438 433.457031 C 100.492188 434.335938 101.332031 435.773438 102.398438 436.222656 C 104.574219 437.140625 105.402344 439.910156 107.945312 440.023438 C 114.46875 440.308594 119.65625 435.269531 119.730469 428.652344 C 119.773438 424.691406 114.792969 420.058594 111.027344 420.484375 Z M 179.648438 392.878906 C 178.515625 393.503906 178.214844 393.6875 177.265625 392.625 C 175.140625 390.25 172.324219 390.285156 170.507812 392.90625 C 167.515625 397.210938 165.117188 401.855469 164.542969 407.425781 C 164.488281 409.054688 164.691406 410.972656 166.78125 411.378906 C 168.222656 411.65625 168.53125 412.140625 168.800781 413.46875 C 169.277344 415.835938 171.222656 417.039062 173.191406 415.746094 C 175.410156 414.285156 177.730469 412.828125 179.179688 410.179688 C 181.710938 405.539062 181.757812 400.355469 183.089844 395.472656 C 183.679688 393.328125 181.59375 391.804688 179.648438 392.878906 Z M 140.125 441.460938 C 138.417969 443.527344 137.015625 445.765625 135.605469 448.015625 C 133.449219 451.46875 130.472656 453.300781 126.699219 452.667969 C 124.046875 452.847656 121.9375 452.738281 120.007812 451.269531 C 116.410156 448.53125 115.984375 446.691406 118.890625 443.257812 C 120.421875 441.441406 120.78125 439.085938 122.363281 437.289062 C 125.574219 433.65625 128.675781 432.558594 133.363281 433.980469 C 134.097656 434.199219 134.679688 434.121094 135.359375 433.90625 C 137.207031 433.320312 138.539062 434.148438 139.429688 435.6875 C 140.46875 437.492188 141.777344 439.460938 140.125 441.460938" fill="#60322b"/></g><g id="change5_1"><path d="M 13.804688 118.738281 C 14.5625 119.136719 15.386719 118.894531 15.855469 118.199219 C 17.203125 116.210938 18.546875 114.222656 19.890625 112.230469 C 20.332031 111.582031 20.039062 110.539062 19.355469 110.179688 C 18.59375 109.777344 17.773438 110.023438 17.300781 110.71875 C 15.957031 112.707031 14.609375 114.695312 13.265625 116.683594 C 12.824219 117.335938 13.117188 118.375 13.804688 118.738281 Z M 124.605469 308.855469 C 122.480469 311.824219 119.707031 314.328125 119.039062 318.34375 C 121.234375 315.425781 123.433594 312.511719 125.628906 309.59375 C 125.289062 309.347656 124.949219 309.101562 124.605469 308.855469 Z M 117.589844 331.949219 C 119.078125 330.386719 121.515625 329.28125 120.789062 326.445312 C 116.664062 331.128906 112.054688 335.34375 107.78125 339.910156 C 111.746094 338.070312 114.675781 335.007812 117.589844 331.949219 Z M 113.445312 245.503906 C 110.097656 248.566406 110.179688 253.21875 108.175781 256.945312 C 112.3125 254.273438 111.765625 249.382812 113.445312 245.503906 Z M 78.339844 360.933594 C 75.214844 360.496094 73.289062 362.199219 72.863281 365.332031 C 72.316406 369.339844 76.109375 374.382812 80.652344 375.691406 C 84.800781 376.890625 90.195312 374.484375 91.785156 370.730469 C 93.957031 365.621094 90.898438 359.273438 85.539062 357.824219 C 83.285156 357.21875 81.753906 357.855469 81.25 360.46875 C 85.078125 359.113281 88.191406 360.445312 89.765625 363.960938 C 91.289062 367.355469 90.238281 371.171875 87.335938 372.789062 C 83.421875 374.96875 78.617188 373.691406 75.996094 369.769531 C 73.886719 366.621094 74.511719 363.9375 78.339844 360.933594 Z M 178.53125 353.625 C 177.902344 353.144531 177.152344 352.675781 176.300781 352.902344 C 174.433594 353.40625 170.59375 358.703125 170.546875 360.757812 C 170.460938 364.488281 174.253906 367.472656 177.234375 366.023438 C 181.667969 363.871094 182.445312 356.578125 178.53125 353.625 Z M 174.09375 368.164062 C 168.675781 366.78125 166.605469 360.6875 170.023438 356.253906 C 171.53125 354.300781 174.367188 353.6875 175.144531 350.898438 C 175.34375 350.1875 176.808594 350.59375 177.703125 350.941406 C 180.953125 352.214844 183.042969 355.664062 182.898438 359.589844 C 182.683594 365.417969 178.664062 369.332031 174.09375 368.164062 Z M 100.757812 382.046875 C 100.53125 379.535156 96.707031 376.3125 94.332031 376.613281 C 93.703125 376.695312 93.128906 376.949219 93.125 377.601562 C 93.121094 377.9375 93.53125 378.433594 93.875 378.59375 C 94.917969 379.074219 96.097656 379.171875 97.042969 379.957031 C 99.59375 382.070312 99.226562 385.617188 96.207031 386.65625 C 93.90625 387.449219 91.769531 386.472656 90.136719 385.027344 C 88.578125 383.648438 89.824219 382.054688 90.628906 380.644531 C 90.902344 380.160156 91.109375 379.640625 91.785156 378.207031 C 88.898438 379.378906 87.761719 380.644531 87.664062 382.914062 C 87.507812 386.664062 90.261719 388.808594 95.359375 388.757812 C 98.765625 388.722656 101.101562 385.820312 100.757812 382.046875 Z M 75.242188 398.144531 C 75.28125 400.253906 78.878906 402.328125 82.445312 402.292969 C 86.933594 402.25 89.179688 400.632812 89.125 397.484375 C 89.0625 393.878906 85.523438 390.957031 81.503906 391.199219 C 79.707031 391.308594 75.210938 396.296875 75.242188 398.144531 Z M 82.476562 389.398438 C 87.636719 389.417969 91.539062 392.953125 91.421875 397.507812 C 91.308594 401.859375 88.027344 404.453125 82.675781 404.414062 C 77.660156 404.378906 72.867188 401.371094 72.917969 398.289062 C 72.972656 394.746094 78.734375 389.386719 82.476562 389.398438 Z M 169.753906 266.414062 C 168.5625 265.789062 168.3125 267.199219 167.945312 267.960938 C 160.882812 282.707031 151.96875 296.328125 142.816406 309.835938 C 136.539062 319.105469 129.59375 327.8125 122.273438 336.242188 C 116.832031 342.511719 111.074219 348.425781 101.40625 349.664062 C 103.511719 351.324219 104.929688 350.882812 106.550781 350.359375 C 115.089844 347.621094 120.570312 341.09375 126.277344 334.796875 C 134.644531 325.558594 141.605469 315.261719 148.664062 305.046875 C 156.609375 293.550781 163.371094 281.351562 169.71875 268.921875 C 170.140625 268.089844 170.734375 266.929688 169.753906 266.414062 Z M 91.316406 235.527344 C 94.613281 237.132812 97.480469 239.164062 99.832031 241.945312 C 100.867188 243.171875 102.183594 243.816406 103.765625 243.914062 C 104.355469 243.949219 105.011719 243.898438 105.175781 243.195312 C 105.355469 242.421875 104.703125 242.304688 104.152344 242.113281 C 102.613281 241.585938 100.949219 241.171875 99.988281 239.742188 C 98.0625 236.871094 95.253906 235.277344 92.085938 234.371094 C 89.847656 233.730469 89.308594 232.582031 89.988281 230.433594 C 87.835938 232.835938 89.308594 234.546875 91.316406 235.527344 Z M 76.601562 225.515625 C 76.667969 225.820312 76.734375 226.128906 76.796875 226.4375 C 79.453125 226.089844 82.105469 225.738281 84.757812 225.390625 C 81.746094 223.484375 79.050781 223.628906 76.601562 225.515625 Z M 120.757812 326.3125 C 120.773438 326.359375 120.777344 326.402344 120.789062 326.445312 C 120.804688 326.429688 120.816406 326.414062 120.828125 326.398438 C 120.816406 326.386719 120.757812 326.3125 120.757812 326.3125 Z M 102.769531 225.75 C 101.222656 226.148438 101.878906 227.828125 102.128906 229.042969 C 102.546875 231.082031 104.058594 231.777344 106.011719 232.144531 C 107.019531 231.8125 108.289062 231.679688 109.164062 231.023438 C 110.25 230.214844 113.0625 230.980469 112.378906 228.941406 C 111.773438 227.144531 110.234375 229.664062 108.875 229.4375 C 107.230469 229.160156 104.917969 231.519531 104.140625 228.117188 C 103.917969 227.140625 104 225.433594 102.769531 225.75 Z M 120.824219 326.371094 C 120.804688 326.351562 120.78125 326.339844 120.757812 326.3125 L 120.816406 326.386719 C 120.820312 326.382812 120.824219 326.375 120.824219 326.371094 Z M 103.292969 222.859375 C 105.621094 218.632812 105.289062 213.746094 106.164062 209.117188 C 104.820312 213.585938 102.921875 217.914062 103.292969 222.859375 Z M 123.617188 325.769531 C 128.511719 319.03125 133.90625 312.644531 138.019531 305.359375 C 138.667969 304.207031 139.394531 303.007812 139.085938 301.328125 C 137.644531 302.179688 136.769531 303.234375 136.070312 304.441406 C 134.507812 307.152344 133.148438 309.96875 131.214844 312.472656 C 127.679688 317.050781 124.28125 321.734375 120.824219 326.371094 C 122.023438 327.554688 122.941406 326.699219 123.617188 325.769531 Z M 98.691406 409.953125 C 100.867188 412.195312 103.773438 413.089844 106.984375 412.042969 C 109.316406 411.28125 109.402344 409.183594 109.921875 407.257812 C 109.367188 405.910156 109.773438 404.039062 107.578125 403.625 C 105.554688 403.238281 105.019531 401.515625 104.5 399.8125 C 104.257812 399.015625 104.515625 397.589844 103.152344 397.792969 C 100.742188 398.152344 98.03125 397.972656 96.859375 401.035156 C 95.539062 404.472656 96.332031 407.523438 98.691406 409.953125 Z M 94.6875 404.5625 C 94.683594 399.507812 95.796875 397.910156 100.414062 396.335938 C 103.378906 395.324219 105.574219 396.375 106.523438 399.410156 C 106.859375 400.488281 107.355469 401.199219 108.386719 401.71875 C 111.566406 403.316406 111.199219 406.632812 111.34375 409.277344 C 111.496094 412.09375 109.027344 413.703125 106.511719 414.523438 C 101.140625 416.269531 94.691406 410.769531 94.6875 404.5625 Z M 106.671875 422.941406 C 109.664062 423.128906 112.027344 422.40625 114.59375 423.847656 C 112.617188 420.636719 110.292969 420.332031 106.671875 422.941406 Z M 159.039062 426.472656 C 159.429688 419.171875 153.515625 414.652344 147.761719 416.882812 C 145.097656 417.917969 144.675781 420.753906 143.277344 422.773438 C 141.648438 425.144531 142.035156 427.429688 144.675781 428.988281 C 146.339844 429.976562 147.527344 431.375 148.390625 433.058594 C 150.023438 436.261719 152.164062 436.753906 155.234375 434.738281 C 158.632812 432.507812 158.816406 429.011719 159.039062 426.472656 Z M 153.816406 437.445312 C 150.710938 438.417969 148.734375 437.429688 147.105469 434.878906 C 146.425781 433.8125 145.605469 432.796875 144.671875 431.949219 C 139.066406 426.859375 138.949219 423.097656 144.316406 417.679688 C 150.097656 411.847656 157.347656 413.390625 160.367188 421.042969 C 160.816406 422.1875 161.140625 423.207031 160.503906 424.304688 C 161.105469 426.488281 160.273438 428.605469 160.277344 430.757812 C 160.289062 434.679688 157.320312 436.347656 153.816406 437.445312 Z M 116.816406 407.054688 C 119.480469 407.429688 122.015625 408.265625 124.601562 408.914062 C 126.101562 409.289062 128.453125 410.160156 128.683594 407.144531 C 124.484375 408.019531 120.9375 405.300781 116.925781 404.902344 C 114.855469 404.699219 115.144531 402.515625 116.214844 401.015625 C 117.15625 399.691406 118.253906 398.480469 119.328125 397.257812 C 119.730469 396.800781 120.203125 396.355469 119.761719 395.78125 C 119.179688 395.023438 118.488281 395.421875 117.96875 395.917969 C 116.179688 397.613281 114.46875 399.464844 113.851562 401.878906 C 113.222656 404.359375 113.6875 406.613281 116.816406 407.054688 Z M 112.929688 375.621094 C 111.746094 377.585938 110.039062 379.609375 111.390625 383.019531 C 113.007812 380.601562 112.976562 378.230469 114.40625 376.457031 C 116.855469 373.414062 121.90625 372.25 125.484375 374.109375 C 128.691406 375.777344 130.144531 379.507812 128.96875 383.054688 C 128.0625 385.78125 123.902344 387.433594 119.683594 386.660156 C 118.089844 386.371094 116.53125 385.882812 114.945312 385.546875 C 114.234375 385.394531 113.464844 385.460938 113.328125 386.378906 C 113.230469 387.070312 113.757812 387.34375 114.394531 387.46875 C 117.457031 388.074219 120.4375 389.296875 123.640625 388.890625 C 126.636719 388.507812 129.4375 387.445312 130.726562 384.539062 C 132.667969 380.171875 130.601562 374.3125 126.746094 372.394531 C 122.21875 370.144531 115.324219 371.640625 112.929688 375.621094 Z M 104.894531 440.445312 C 111.867188 442.925781 120.296875 436.0625 120.101562 428.121094 C 119.6875 427 119.871094 425.476562 118.75 424.429688 C 118.179688 423.898438 117.546875 422.945312 116.738281 423.472656 C 115.746094 424.125 116.699219 424.902344 117.078125 425.539062 C 118.8125 428.476562 119.394531 430.976562 116.53125 433.949219 C 110.570312 440.136719 106.523438 441.234375 101.25 435.238281 C 98.390625 431.988281 98.40625 429.859375 101.824219 427.148438 C 103.007812 426.207031 105.363281 424.632812 104.726562 424.113281 C 103.25 422.914062 101.855469 425.050781 100.632812 425.945312 C 98.613281 427.421875 96.003906 429.292969 97.042969 432.097656 C 98.414062 435.808594 101.007812 439.0625 104.894531 440.445312 Z M 128.785156 407.125 C 128.8125 407.105469 128.832031 407.082031 128.855469 407.0625 C 128.800781 407.050781 128.75 407.046875 128.691406 407.03125 C 128.691406 407.070312 128.683594 407.105469 128.683594 407.144531 C 128.71875 407.136719 128.753906 407.132812 128.789062 407.125 Z M 126.894531 416.769531 C 127.265625 419.246094 128.644531 420.707031 131.417969 420.546875 C 134.789062 420.347656 137.484375 418.515625 137.105469 416.175781 C 136.765625 414.085938 135.84375 412.082031 132.648438 412.527344 C 129.429688 412.59375 126.558594 414.507812 126.894531 416.769531 Z M 124.871094 417.015625 C 124.730469 413.351562 128.613281 410.480469 133.996094 410.265625 C 136.171875 410.179688 138.945312 413.585938 139.046875 416.460938 C 139.15625 419.671875 135.484375 422.542969 131.152344 422.632812 C 127.6875 422.703125 125 420.300781 124.871094 417.015625 Z M 151.242188 392.980469 C 146.210938 392.617188 142.484375 395.5 141.351562 401.09375 C 140.621094 404.679688 143.835938 410.058594 147.390625 411.191406 C 147.863281 411.339844 148.296875 411.257812 148.742188 410.601562 C 147.632812 409.429688 146.585938 408.078125 145.296875 407.019531 C 142.625 404.824219 142.773438 402.277344 144.054688 399.503906 C 145.964844 395.355469 152.144531 393.316406 156.238281 395.519531 C 159.464844 397.253906 160.773438 400.011719 160.34375 403.621094 C 159.996094 406.550781 157.941406 407.628906 155.394531 408.210938 C 154.40625 408.4375 153.3125 408.605469 153.015625 410.394531 C 156.492188 409.890625 159.933594 409.710938 161.648438 406.273438 C 163.335938 402.90625 162.820312 399.683594 160.550781 396.476562 C 158.117188 393.042969 154.757812 393.234375 151.242188 392.980469 Z M 92.042969 426.464844 C 95.21875 425.503906 96.640625 423.21875 96.457031 419.742188 C 94.992188 420.058594 94.917969 421.003906 94.496094 421.648438 C 91.96875 425.488281 89.757812 425.695312 86.410156 422.4375 C 85.300781 421.351562 84.511719 420.089844 83.988281 418.648438 C 83.539062 417.402344 82.894531 416.367188 81.613281 415.789062 C 80.535156 415.304688 78.652344 415.492188 78.789062 413.816406 C 78.925781 412.148438 80.734375 411.824219 82.007812 411.019531 C 84.398438 409.5 86.722656 409.792969 89.003906 410.730469 C 91.648438 411.8125 92.117188 414.609375 93.175781 416.894531 C 93.460938 417.5 93.484375 418.414062 94.429688 418.21875 C 95.347656 418.023438 95.164062 417.175781 95.09375 416.496094 C 94.679688 412.527344 92.132812 409.382812 88.507812 408.347656 C 84.507812 407.207031 79.847656 408.679688 77.480469 411.746094 C 75.765625 413.972656 76.316406 415.890625 78.664062 416.8125 C 81.097656 417.769531 82.140625 419.429688 83.121094 421.671875 C 84.578125 425 89.164062 427.335938 92.042969 426.464844 Z M 68.644531 377.910156 C 66.644531 379.027344 64.671875 380.347656 63.363281 382.3125 C 62.511719 383.601562 62.597656 384.9375 63.804688 386.066406 C 64.566406 386.773438 65.40625 387.414062 66.058594 388.210938 C 67.246094 389.65625 68.28125 391.382812 70.5625 390.394531 C 72.863281 389.394531 74.203125 387.640625 74.292969 384.972656 C 74.25 382.742188 73.203125 380.851562 71.9375 379.027344 C 71.097656 377.820312 69.796875 377.265625 68.644531 377.910156 Z M 75.464844 380.957031 C 76.082031 382.351562 76.308594 383.839844 76.332031 385.390625 C 76.015625 388.597656 74.59375 391.109375 71.46875 392.3125 C 68.214844 393.566406 66.15625 392.109375 64.210938 389.398438 C 59.792969 383.230469 59.699219 382.121094 64.609375 378.179688 C 69.402344 374.335938 72.9375 375.230469 75.464844 380.957031 Z M 60.679688 415.773438 C 60.589844 418.425781 61.929688 420.144531 64.929688 420.078125 C 68 420.015625 70.179688 418.242188 70.15625 415.679688 C 70.132812 412.816406 66.992188 409.472656 64.382812 410.082031 C 61.683594 410.714844 60.761719 413.289062 60.679688 415.773438 Z M 58.6875 416.066406 C 58.65625 412.316406 61.84375 408.113281 64.636719 408.226562 C 69.050781 408.394531 72.0625 411.445312 72.035156 415.707031 C 72.007812 419.613281 68.894531 422.46875 64.730469 422.402344 C 61.34375 422.355469 58.714844 419.597656 58.6875 416.066406 Z M 134.132812 402.75 C 134.347656 401.921875 133.984375 400.960938 134.089844 400.085938 C 134.535156 396.222656 131.785156 394.390625 129.105469 392.929688 C 126.230469 391.367188 123.046875 389.742188 119.707031 392.128906 C 119.605469 392.203125 119.695312 392.554688 119.695312 393.097656 C 122.253906 392.742188 124.714844 393.265625 127.085938 394.246094 C 133.667969 396.96875 134.4375 402.625 128.855469 407.0625 C 132.34375 407.820312 133.429688 405.449219 134.132812 402.75 Z M 74.347656 230.46875 C 71.828125 233.589844 71.664062 237.425781 71.042969 241.113281 C 70.820312 242.441406 72.074219 242.765625 72.867188 243.390625 C 80.304688 249.246094 89.171875 252.167969 97.816406 255.542969 C 98.457031 255.792969 99.144531 255.957031 99.824219 256.066406 C 100.269531 256.140625 100.863281 256.078125 100.882812 255.492188 C 100.894531 255.101562 100.671875 254.484375 100.371094 254.332031 C 99.550781 253.914062 98.617188 253.730469 97.757812 253.386719 C 90.015625 250.265625 82.167969 247.394531 75.128906 242.738281 C 73.195312 241.460938 72.65625 240.25 73.058594 237.894531 C 73.480469 235.429688 74.382812 233.058594 74.347656 230.46875 Z M 145.398438 375.832031 C 146.65625 374.882812 147.308594 373.664062 147.347656 372.074219 C 146.882812 372.027344 146.550781 371.898438 146.464844 371.996094 C 144.222656 374.464844 142 376.949219 139.789062 379.445312 C 136.855469 382.761719 137.269531 385.992188 140.945312 388.554688 C 145.042969 391.40625 149.339844 390.957031 152.476562 387.351562 C 154.335938 385.214844 154.777344 375.640625 153.078125 373.847656 C 152.589844 373.328125 151.882812 372.785156 151.246094 373.195312 C 150.25 373.835938 150.972656 374.496094 151.457031 375.1875 C 153.816406 378.542969 153.414062 382.003906 151.480469 385.320312 C 149.648438 388.457031 145.300781 389.292969 142.296875 387.289062 C 139.300781 385.289062 139.246094 383.605469 141.945312 379.703125 C 142.941406 378.261719 143.992188 376.894531 145.398438 375.832031 Z M 133.75 363.699219 C 133.464844 363.5 133.179688 363.304688 132.894531 363.105469 C 132.351562 363.1875 131.765625 363.164062 131.28125 363.375 C 129.484375 364.152344 127.921875 365.300781 128.0625 367.46875 C 128.265625 370.511719 131.761719 375.3125 133.605469 375.402344 C 137.882812 375.609375 142.515625 371.179688 142.542969 366.847656 C 142.5625 364.144531 139.507812 360.726562 136.945312 360.601562 C 136.113281 360.558594 135.132812 360.546875 134.859375 361.464844 C 134.519531 362.605469 135.511719 362.726562 136.332031 362.855469 C 136.675781 362.910156 137.03125 362.921875 137.363281 363.019531 C 140.035156 363.84375 141.011719 365.832031 140.027344 368.425781 C 138.816406 371.628906 135.230469 374.070312 133.140625 373.054688 C 132.675781 372.832031 132.261719 372.300781 132.050781 371.8125 C 130.78125 368.894531 129.277344 365.910156 133.75 363.699219 Z M 163.195312 440.191406 C 163.753906 439.96875 164.296875 439.589844 164.089844 438.921875 C 163.832031 438.085938 163.070312 438.089844 162.363281 438.261719 C 159.203125 439.039062 158.710938 441.882812 157.820312 444.324219 C 157.109375 446.273438 158.605469 447.363281 159.964844 448.242188 C 163.667969 450.644531 169.941406 448.238281 171.074219 444.003906 C 171.621094 441.964844 171.152344 440.070312 169.679688 438.542969 C 168.414062 437.230469 166.929688 436.5625 164.886719 437.714844 C 165.304688 438.242188 165.425781 438.546875 165.589844 438.578125 C 168.011719 439.003906 169.394531 440.523438 169.109375 442.871094 C 168.8125 445.300781 167.007812 446.78125 164.578125 446.964844 C 162.945312 447.089844 160.539062 447.53125 160.105469 445.40625 C 159.652344 443.1875 160.832031 441.152344 163.195312 440.191406 Z M 177.285156 189.25 C 173.105469 190.230469 168.917969 191.222656 164.609375 190.109375 C 164.085938 189.976562 163.574219 189.339844 163.226562 190.136719 C 162.894531 190.894531 162.839844 191.875 163.742188 192.277344 C 164.675781 192.695312 165.746094 192.8125 166.765625 193.0625 C 170.699219 192.472656 174.609375 191.925781 178.503906 191.300781 C 181.105469 190.882812 180.9375 189.054688 180.65625 187.050781 C 180.367188 184.953125 179.480469 183.785156 177.242188 184.175781 C 173.585938 184.808594 169.9375 185.488281 166.292969 186.164062 C 165.605469 186.292969 164.789062 186.511719 164.960938 187.40625 C 165.140625 188.332031 166.011719 188.152344 166.675781 188.042969 C 169.882812 187.511719 173.078125 186.921875 176.285156 186.394531 C 177.113281 186.257812 178.261719 185.511719 178.640625 186.84375 C 178.9375 187.871094 178.625 188.9375 177.285156 189.25 Z M 190.78125 149.75 C 190.648438 154.792969 190.617188 154.742188 186.015625 157.902344 C 179.894531 162.105469 172.664062 162.421875 165.765625 163.050781 C 157.511719 163.804688 149.128906 163.082031 140.8125 163.347656 C 138.109375 163.433594 135.300781 164.15625 132.964844 165.902344 C 132.027344 166.601562 131.28125 167.230469 132.292969 168.402344 C 133.683594 170.019531 138.695312 170.171875 140.777344 168.597656 C 138.828125 167.160156 136.117188 169.003906 134.027344 166.953125 C 137.527344 165.675781 140.820312 164.371094 144.28125 164.640625 C 154.367188 165.429688 164.402344 165.160156 174.386719 163.6875 C 180.921875 162.722656 187.089844 160.769531 191.257812 155.078125 C 193.085938 152.585938 192.960938 151.527344 190.78125 149.75 Z M 88.328125 126.871094 C 93.328125 126.785156 98.335938 126.578125 103.332031 126.679688 C 105.289062 126.71875 105.648438 125.691406 106.066406 124.261719 C 107.328125 119.90625 108.671875 115.570312 109.960938 111.222656 C 111.507812 106.015625 113.035156 100.800781 114.757812 94.957031 C 111.128906 97.761719 111.128906 97.75 106.484375 96.542969 C 106.058594 96.433594 105.503906 96.402344 105.125 96.578125 C 102.902344 97.601562 101.039062 96.296875 99.089844 95.691406 C 98.09375 95.382812 97.027344 94.863281 97.320312 93.5 C 97.5625 92.363281 98.242188 91.671875 99.519531 91.949219 C 99.667969 95.410156 102.195312 95.058594 104.402344 94.683594 C 105.535156 94.492188 106.636719 93.652344 107.597656 94.730469 C 109.335938 96.683594 110.757812 95.722656 111.921875 94.257812 C 115.710938 89.488281 117.839844 83.886719 119.632812 78.148438 C 119.914062 77.242188 119.710938 76.390625 118.5625 76.496094 C 115.460938 76.78125 112.195312 76.675781 109.910156 79.410156 C 109.203125 80.261719 108.808594 81.480469 107.40625 81.527344 C 106.171875 79.628906 109.363281 79.375 108.757812 77.628906 C 106.46875 77.445312 104.109375 77.507812 101.875 77.015625 C 99.472656 76.484375 98.5 77.398438 97.925781 79.539062 C 96.394531 85.246094 94.800781 90.9375 93.171875 96.617188 C 90.652344 105.429688 88.082031 114.222656 85.53125 123.027344 C 84.414062 126.878906 84.457031 126.9375 88.328125 126.871094 Z M 99.585938 66.523438 C 99.796875 65.746094 100.136719 65 100.367188 64.222656 C 101.070312 61.824219 101.511719 60.328125 101.429688 59.433594 C 96.75 59.863281 92.117188 60.667969 87.570312 61.863281 C 86.71875 62.089844 86.09375 61.605469 85.839844 60.96875 C 83.996094 61.726562 82.195312 62.605469 80.417969 63.539062 C 79.0625 64.253906 77.589844 65.175781 77.613281 66.820312 C 77.636719 68.6875 79.644531 68.929688 80.90625 69.429688 C 84.714844 70.933594 88.765625 71.351562 92.835938 71.484375 C 98.203125 71.65625 98.195312 71.65625 99.585938 66.523438 Z M 101.863281 66.175781 C 100.445312 71.105469 100.449219 71.101562 105.050781 72.675781 C 105.117188 72.695312 105.128906 72.875 105.191406 73.066406 C 103.761719 74.542969 101.390625 72.648438 100.019531 74.585938 C 104.03125 74.621094 108.105469 77.082031 112.359375 74.230469 C 110.804688 72.964844 109.167969 74.191406 107.570312 72.621094 C 111.929688 72.289062 115.8125 71.949219 119.699219 71.722656 C 121.019531 71.648438 121.902344 71.25 122.304688 69.921875 C 123.3125 66.597656 124.355469 63.28125 125.394531 59.964844 C 125.871094 58.433594 125.53125 57.523438 123.730469 57.410156 C 120.601562 57.21875 117.472656 56.734375 114.34375 56.726562 C 104.566406 56.707031 104.566406 56.773438 101.863281 66.175781 Z M 125.886719 65.558594 C 124.804688 70.835938 124.800781 70.835938 130.214844 71.058594 C 131.152344 71.484375 131.800781 70.976562 132.222656 70.230469 C 133.066406 68.722656 134.515625 68.453125 136.011719 68.101562 C 137.828125 67.671875 140.207031 67.886719 141.015625 65.882812 C 139.28125 65.625 139.1875 63.011719 140.761719 62.886719 C 139.941406 61.78125 138.328125 61.238281 137.273438 60.316406 C 136.847656 59.941406 136.253906 59.769531 135.757812 59.472656 C 133.34375 58.027344 130.582031 60.050781 128.164062 58.695312 C 127.472656 60.523438 126.757812 62.34375 126.097656 64.179688 C 125.941406 64.609375 125.980469 65.105469 125.886719 65.558594 Z M 7.882812 155.941406 C 7.816406 152.964844 9.394531 151.53125 10.929688 150.359375 C 26.589844 138.359375 43.949219 130.476562 63.84375 128.847656 C 69.183594 128.414062 74.511719 127.832031 79.855469 127.464844 C 81.835938 127.328125 82.699219 126.378906 83.199219 124.597656 C 87.46875 109.402344 91.746094 94.214844 96.128906 79.054688 C 96.738281 76.941406 96.109375 76.492188 94.148438 76.226562 C 89.773438 75.632812 85.429688 74.789062 81.078125 74.011719 C 77.554688 73.382812 74.84375 71.839844 74.839844 67.757812 C 74.839844 67.75 74.835938 67.742188 74.835938 67.734375 C 70.25 68.925781 66 70.988281 61.972656 73.476562 C 58.34375 75.71875 54.914062 78.261719 51.496094 80.8125 C 47.984375 83.433594 44.476562 86.054688 41.058594 88.792969 C 38.820312 90.585938 36.621094 92.441406 34.488281 94.367188 C 34.058594 94.878906 33.628906 95.390625 33.210938 95.914062 C 32.929688 96.261719 32.601562 96.410156 32.277344 96.421875 C 28.835938 99.699219 25.617188 103.199219 22.8125 107.046875 C 21.683594 108.59375 19.085938 107.09375 20.222656 105.53125 C 23.195312 101.453125 26.5625 97.695312 30.21875 94.222656 C 30.941406 93.535156 31.671875 92.867188 32.40625 92.203125 C 34.558594 89.636719 36.835938 87.179688 39.253906 84.859375 C 48.054688 76.414062 58.464844 69.726562 69.773438 65.1875 C 75.867188 62.257812 82.191406 59.847656 88.710938 57.925781 C 92.019531 56.949219 95.5625 56.625 99.027344 56.355469 C 101.761719 56.140625 103.027344 55.042969 103.753906 52.335938 C 106.394531 42.472656 109.292969 32.675781 112.148438 22.871094 C 112.671875 21.085938 112.898438 19.101562 115.15625 17.992188 C 114.832031 19.496094 114.582031 21.019531 114.167969 22.496094 C 111.367188 32.488281 108.585938 42.484375 105.675781 52.441406 C 104.953125 54.910156 105.582031 55.535156 108.050781 55.265625 C 113.605469 54.65625 119.183594 54.09375 124.730469 55.417969 C 126.8125 55.914062 126.992188 54.246094 127.378906 52.984375 C 128.992188 47.695312 130.339844 42.3125 132.15625 37.097656 C 135.136719 28.5625 136.933594 19.683594 139.910156 11.164062 C 140.925781 8.257812 139.960938 8.039062 137.488281 8.375 C 132.851562 9 128.472656 7.742188 124.265625 5.96875 C 123.265625 5.546875 121.121094 5.273438 121.683594 3.820312 C 122.335938 2.132812 123.890625 3.667969 124.894531 4.0625 C 132.300781 6.960938 135.324219 7.257812 142.5 5.148438 C 134.863281 2.710938 128.140625 0.667969 120.734375 1.769531 C 121.597656 0.0507812 123.085938 0.339844 124.289062 0.195312 C 130.191406 -0.511719 135.855469 0.792969 141.464844 2.429688 C 143.945312 3.152344 144.566406 5.214844 143.75 7.066406 C 140.3125 14.851562 138.6875 23.183594 136.09375 31.21875 C 133.773438 38.390625 131.894531 45.703125 129.5 52.851562 C 128.4375 56.023438 129.753906 57.171875 132.402344 57.574219 C 135.761719 58.078125 138.949219 59.105469 142.117188 60.222656 C 142.527344 59.964844 143.050781 59.875 143.597656 60.105469 C 145.847656 61.066406 148.097656 62.023438 150.34375 62.984375 C 150.761719 63.09375 151.164062 63.285156 151.5625 63.503906 C 157.753906 66.140625 163.941406 68.78125 170.128906 71.421875 C 171.691406 72.085938 170.539062 74.777344 168.972656 74.160156 C 161.339844 71.164062 153.589844 68.117188 145.507812 66.578125 C 144.117188 71.007812 139.496094 71.933594 135.617188 73.578125 C 133.496094 74.476562 131.152344 75.078125 128.863281 75.292969 C 124.351562 75.71875 122.621094 79.101562 121.082031 82.421875 C 118.222656 88.601562 116.648438 95.246094 114.761719 101.769531 C 112.761719 108.691406 110.730469 115.605469 108.683594 122.515625 C 107.457031 126.652344 107.429688 126.652344 111.859375 126.652344 C 127.691406 126.664062 143.449219 127.558594 158.992188 130.78125 C 161.464844 131.292969 162.605469 129.933594 163.871094 128.324219 C 168.71875 122.175781 173.308594 115.855469 176.9375 108.109375 C 176.972656 111.535156 174.394531 117.296875 171.5 121.03125 C 169.308594 123.863281 167.730469 127.128906 165.222656 129.738281 C 164.320312 130.683594 164.195312 131.511719 165.875 131.867188 C 173.230469 133.410156 180.609375 134.878906 187.757812 137.28125 C 189.296875 137.796875 190.355469 137.089844 191.417969 135.988281 C 193.144531 134.199219 194.429688 131.894531 197.335938 130.675781 C 196.71875 133.234375 195.351562 134.929688 193.859375 136.394531 C 192.265625 137.957031 192.230469 138.699219 194.511719 139.292969 C 195.574219 139.570312 196.539062 140.210938 197.820312 140.8125 C 196.414062 141.496094 195.304688 141.320312 194.480469 140.890625 C 190.855469 139.019531 188.875 141.019531 187.019531 143.726562 C 185.921875 145.332031 184.882812 146.972656 183.5625 148.460938 C 180.660156 151.734375 177.9375 152.316406 174.628906 149.433594 C 172.863281 147.898438 171.597656 148.238281 170 149.253906 C 165.460938 152.128906 160.613281 153.925781 155.128906 153.324219 C 150.632812 152.835938 148.511719 150.898438 148.257812 146.71875 C 155.152344 154.460938 162.144531 151.390625 169.035156 147.304688 C 171.660156 145.75 173.777344 145.253906 176.097656 147.878906 C 177.886719 149.894531 180.03125 149.675781 181.742188 147.492188 C 183.535156 145.203125 185.207031 142.824219 187.023438 140.5625 C 188.140625 139.175781 187.285156 138.84375 186.15625 138.414062 C 181.785156 136.773438 177.058594 136.308594 172.730469 134.808594 C 164.828125 132.0625 159.339844 134.394531 154.390625 140.679688 C 151.554688 144.28125 150.773438 144.082031 147.550781 144.1875 C 151.515625 140.21875 155.929688 137.238281 159.4375 132.765625 C 154.644531 131.324219 149.980469 130.800781 145.335938 130.292969 C 134.453125 129.101562 123.546875 128.308594 112.59375 128.164062 C 109.011719 128.117188 105.910156 128.191406 105.425781 132.929688 C 105.210938 135.046875 103.902344 136.839844 101.109375 136.96875 C 101.398438 134.796875 103.738281 133.746094 104.203125 131.414062 C 104.789062 128.472656 104.097656 128.070312 101.503906 128.21875 C 96.753906 128.488281 91.980469 128.738281 87.230469 128.589844 C 84.613281 128.507812 83.765625 129.726562 83.195312 131.839844 C 82.226562 135.425781 81.199219 139.003906 80.109375 142.554688 C 79.910156 143.203125 79.933594 144.484375 78.730469 144.136719 C 77.695312 143.839844 78.121094 142.898438 78.222656 142.070312 C 78.664062 138.445312 80.785156 135.296875 81.101562 131.617188 C 81.234375 130.066406 81.273438 129.238281 79.3125 129.292969 C 54.496094 129.976562 31.355469 135.660156 11.707031 151.789062 C 10.421875 152.847656 9.421875 154.25 7.882812 155.941406 Z M 189.140625 161.703125 C 189.035156 161.679688 188.898438 161.707031 188.800781 161.757812 C 182.136719 165.175781 174.804688 165.722656 167.570312 166.710938 C 163.160156 167.3125 158.757812 167.984375 154.035156 168.675781 C 155.085938 170.046875 156.144531 169.796875 157.140625 169.746094 C 164.699219 169.371094 172.15625 168.328125 179.574219 166.816406 C 183.019531 166.113281 186.433594 165.367188 189.421875 163.546875 C 190.5 162.890625 193.050781 162.316406 192.035156 160.601562 C 190.964844 158.789062 190.4375 162.023438 189.140625 161.703125 Z M 91.429688 148.097656 C 89.859375 147.695312 88.25 147.445312 86.699219 146.984375 C 84.925781 146.460938 83.207031 145.75 81.449219 145.164062 C 80.910156 144.984375 80.242188 144.839844 79.957031 145.542969 C 79.6875 146.21875 80.191406 146.710938 80.730469 146.886719 C 84.246094 148.03125 87.507812 149.964844 91.253906 150.335938 C 92.472656 149.996094 94.546875 150.265625 94.503906 148.902344 C 94.445312 146.953125 92.503906 148.371094 91.429688 148.097656 Z M 102.074219 141.933594 C 104.816406 142.089844 107.238281 142.039062 109.691406 142.128906 C 115.71875 142.339844 121.75 142.464844 127.78125 142.566406 C 129.414062 142.59375 131.007812 142.234375 132.492188 141.496094 C 133.058594 141.21875 133.460938 140.824219 133.40625 140.171875 C 133.347656 139.441406 132.734375 139.320312 132.15625 139.214844 C 131.355469 139.066406 130.546875 138.773438 129.753906 138.804688 C 124.796875 139.019531 119.820312 139.089844 114.898438 139.632812 C 110.59375 140.109375 106.347656 141.144531 102.074219 141.933594 Z M 94.492188 144.644531 C 93.566406 144.675781 92.628906 144.601562 91.707031 144.507812 C 91.117188 144.445312 90.515625 144.234375 90.53125 143.492188 C 90.542969 142.667969 91.089844 142.285156 91.867188 142.1875 C 103.902344 140.703125 115.746094 137.785156 127.925781 137.417969 C 129.664062 137.363281 131.425781 137.316406 133.140625 137.527344 C 134.351562 137.675781 135.675781 137.949219 135.734375 139.757812 C 135.792969 141.449219 135.433594 142.769531 133.703125 143.339844 C 131.265625 144.136719 128.816406 144.675781 126.1875 144.507812 C 122.246094 144.261719 118.28125 144.96875 115.515625 144.484375 C 107.710938 143.757812 101.105469 144.40625 94.492188 144.644531 Z M 231.09375 174.597656 C 229.855469 169.632812 228.882812 164.601562 227.539062 159.667969 C 226.84375 157.121094 225.886719 154.515625 223.117188 153.296875 C 222.925781 153.214844 222.773438 153.113281 222.640625 153.011719 C 222.691406 148.910156 222.542969 144.867188 221.648438 140.796875 C 220.515625 135.628906 218.597656 130.664062 216.632812 125.765625 C 213.136719 117.058594 209.066406 108.171875 202.046875 101.699219 C 200.851562 100.601562 199.472656 99.558594 198.136719 98.457031 C 196.851562 96.816406 195.453125 95.273438 193.875 93.890625 C 193.414062 93.117188 193.050781 92.289062 192.828125 91.382812 C 192.363281 89.507812 189.46875 90.300781 189.933594 92.179688 C 190.953125 96.296875 194.214844 99.046875 197.355469 101.628906 C 200.910156 104.550781 203.949219 107.816406 206.441406 111.699219 C 208.980469 115.65625 210.996094 119.929688 212.800781 124.265625 C 214.789062 129.046875 216.730469 133.894531 218.09375 138.898438 C 218.867188 141.742188 219.441406 144.644531 219.628906 147.589844 C 219.777344 149.984375 219.703125 152.390625 219.621094 154.789062 C 218.402344 150.167969 207.542969 143.019531 200.296875 142.074219 C 206.238281 147.101562 214.875 148.074219 219.613281 154.917969 C 219.597656 155.476562 219.574219 156.039062 219.558594 156.601562 C 219.515625 158.089844 221.277344 158.421875 222.121094 157.621094 C 221.957031 159.148438 220.503906 159.757812 218.835938 160.578125 C 217.484375 161.246094 216.085938 161.828125 214.671875 162.339844 C 206.875 165.15625 198.738281 166.601562 190.660156 168.269531 C 178.28125 170.828125 165.734375 172.441406 153.199219 173.726562 C 139.835938 175.097656 126.375 175.679688 112.925781 176.125 C 99.070312 176.582031 85.257812 176.746094 71.527344 174.445312 C 69.398438 174.089844 65.71875 174.347656 64.410156 174.839844 C 64.554688 175.011719 64.683594 175.3125 64.851562 175.332031 C 77.65625 176.996094 90.347656 179.445312 103.382812 179.1875 C 112.136719 179.015625 120.777344 177.78125 129.507812 177.457031 C 136.234375 177.207031 142.953125 176.496094 149.664062 175.871094 C 166.558594 174.289062 183.378906 172.074219 199.945312 168.417969 C 208.703125 166.484375 217.765625 164.9375 225.621094 158.902344 C 226.976562 164.367188 228.308594 169.632812 229.550781 174.917969 C 229.757812 175.792969 229.574219 176.65625 228.59375 177.3125 C 222.6875 181.269531 216.492188 184.550781 209.589844 186.511719 C 206.847656 187.289062 206.0625 186.351562 205.800781 183.910156 C 205.535156 181.484375 205.058594 179.078125 204.738281 176.65625 C 204.441406 174.394531 203.246094 173.382812 200.945312 173.617188 C 198.847656 173.828125 197.289062 174.667969 197.339844 177.003906 C 197.410156 180.140625 197.640625 183.273438 197.855469 186.402344 C 197.90625 187.179688 197.96875 188.261719 199.125 188.070312 C 200.523438 187.839844 200.023438 186.695312 199.882812 185.824219 C 199.476562 183.300781 198.996094 180.789062 198.621094 178.261719 C 198.457031 177.15625 198.078125 175.855469 199.960938 175.714844 C 201.394531 175.605469 202.402344 175.714844 202.59375 177.558594 C 202.875 180.328125 203.117188 183.175781 203.960938 185.800781 C 204.675781 188.027344 203.632812 188.257812 202.0625 188.886719 C 195.828125 191.378906 189.101562 191.636719 182.699219 193.347656 C 166.679688 197.632812 150.375 200.148438 133.828125 201.125 C 131.566406 201.257812 129.25 200.796875 126.722656 201.8125 C 127.714844 203.144531 128.734375 202.800781 129.597656 202.796875 C 145.046875 202.6875 160.191406 200.179688 175.242188 196.917969 C 180.972656 195.679688 186.734375 194.351562 192.46875 193.421875 C 199.207031 192.328125 205.425781 190.058594 211.757812 187.90625 C 213.769531 187.222656 216.070312 184.707031 217.574219 185.949219 C 219.164062 187.261719 217.917969 190.261719 217.523438 192.503906 C 214.816406 207.976562 212.074219 223.441406 209.382812 238.914062 C 205.808594 259.441406 202.273438 279.972656 198.714844 300.503906 C 195.414062 319.546875 192.09375 338.589844 188.789062 357.636719 C 185.742188 375.183594 182.710938 392.734375 179.675781 410.28125 C 179.453125 411.558594 178.988281 412.160156 177.539062 412.84375 C 173.054688 414.953125 170.507812 411.628906 167.484375 409.859375 C 164.355469 408.023438 164.015625 405.125 166.339844 402.253906 C 167.722656 400.539062 169.460938 399.113281 170.847656 397.402344 C 174.269531 393.175781 174.226562 393.140625 179.011719 393.171875 C 177.175781 390.96875 174.035156 390.324219 172.667969 392.3125 C 170.589844 395.339844 167.632812 397.453125 165.371094 400.242188 C 161.328125 405.226562 162.359375 409.511719 168.078125 411.730469 C 168.546875 411.910156 168.820312 412.546875 169.242188 412.894531 C 171.996094 415.195312 174.902344 416.882812 178.867188 414.519531 C 178.753906 415.699219 178.726562 416.371094 178.617188 417.027344 C 177.011719 426.554688 175.351562 436.074219 173.824219 445.613281 C 173.515625 447.542969 172.300781 448.257812 170.835938 449.101562 C 164.808594 452.558594 158.21875 454.734375 151.730469 457.246094 C 152.203125 458.0625 152.652344 457.898438 153.085938 457.789062 C 159.449219 456.160156 165.390625 453.511719 171.121094 450.34375 C 174.449219 448.507812 176.105469 445.519531 176.730469 441.988281 C 180.34375 421.496094 183.890625 400.988281 187.414062 380.480469 C 193.1875 346.90625 198.917969 313.328125 204.675781 279.753906 C 209.761719 250.070312 214.890625 220.394531 219.917969 190.703125 C 220.628906 186.503906 221.175781 182.453125 226.359375 181.410156 C 227.105469 181.261719 227.703125 180.46875 228.453125 180.183594 C 231.160156 179.148438 231.765625 177.273438 231.09375 174.597656 Z M 117.445312 10.515625 C 118.074219 8.558594 118.523438 6.542969 119.222656 4.613281 C 119.40625 4.105469 120.667969 3.804688 119.851562 3.082031 C 118.855469 2.207031 118.386719 3.4375 118.101562 4.019531 C 116.335938 7.621094 115.710938 11.566406 114.835938 15.476562 C 116.882812 14.351562 116.878906 12.289062 117.445312 10.515625 Z M 178.949219 145.351562 C 177.371094 144.042969 175.570312 143.496094 173.457031 144.03125 C 175.230469 144.679688 176.804688 146 178.949219 145.351562 Z M 181.09375 131.839844 C 183.792969 129.949219 185.839844 127.433594 187.675781 124.730469 C 188.101562 124.109375 188.308594 123.441406 187.511719 122.9375 C 186.472656 122.277344 186.0625 123.089844 185.65625 123.804688 C 184.808594 125.289062 184.1875 126.984375 182.109375 127.8125 C 182.949219 124.46875 185.832031 122.597656 186.25 119.515625 C 185.988281 119.339844 185.726562 119.160156 185.464844 118.984375 C 183.21875 122.570312 180.957031 126.144531 178.746094 129.753906 C 178.351562 130.398438 177.691406 131.179688 178.527344 131.941406 C 179.363281 132.703125 180.316406 132.386719 181.09375 131.839844 Z M 182.605469 106.015625 C 185.339844 110.972656 189.429688 110.738281 194.269531 109.871094 C 200.1875 108.8125 203.8125 113.421875 202.207031 119.183594 C 201.511719 121.679688 200.316406 123.894531 198.855469 126.007812 C 198.382812 126.695312 197.484375 127.773438 198.78125 128.34375 C 199.835938 128.8125 200.574219 127.65625 200.640625 126.824219 C 200.742188 125.5 201.632812 124.816406 202.28125 123.894531 C 205.300781 119.589844 205.308594 113.242188 202.160156 110.394531 C 199.621094 108.097656 196.507812 107.21875 193.132812 107.976562 C 189.78125 108.730469 186.730469 109.203125 184.796875 105.339844 C 183.960938 103.675781 182.136719 103.777344 179.671875 103.957031 C 181.148438 104.964844 182.210938 105.304688 182.605469 106.015625 Z M 190.304688 183.851562 C 190.449219 185.003906 190.488281 186.171875 190.707031 187.304688 C 190.835938 187.964844 191.160156 188.789062 192.015625 188.660156 C 192.949219 188.515625 192.75 187.742188 192.644531 187.011719 C 192.328125 184.722656 192.03125 182.421875 191.84375 180.117188 C 191.707031 178.492188 191.324219 176.808594 189.574219 176.664062 C 187.628906 176.503906 185.472656 176.753906 184.429688 179.230469 C 189.621094 178.566406 189.628906 178.5625 190.304688 183.851562 Z M 106.015625 82.792969 C 103.582031 85.582031 99.796875 87.433594 99.605469 91.785156 C 102.472656 89.308594 104.640625 86.332031 106.015625 82.792969 Z M 99.605469 91.785156 C 99.570312 91.8125 99.539062 91.84375 99.507812 91.871094 C 99.507812 91.871094 99.511719 91.878906 99.511719 91.878906 C 99.511719 91.902344 99.515625 91.925781 99.519531 91.949219 C 99.542969 91.953125 99.566406 91.953125 99.589844 91.960938 C 99.59375 91.898438 99.601562 91.84375 99.605469 91.785156 Z M 184.121094 184.230469 C 184.363281 186.183594 184.589844 188.136719 184.859375 190.082031 C 184.949219 190.699219 185.34375 191.175781 186.011719 191.125 C 186.761719 191.0625 186.871094 190.445312 186.8125 189.84375 C 186.539062 187.199219 186.257812 184.558594 185.953125 181.917969 C 185.882812 181.3125 185.582031 180.757812 184.890625 180.816406 C 184.132812 180.886719 184.148438 181.578125 184.125 182.144531 C 184.101562 182.835938 184.117188 183.53125 184.121094 184.230469 Z M 149.257812 220.007812 C 148.230469 223.328125 147.179688 226.644531 146.078125 229.941406 C 144.675781 234.152344 143.878906 234.414062 139.429688 234.089844 C 132.984375 233.621094 126.886719 231.960938 120.902344 229.664062 C 119.207031 229.015625 117.433594 228.445312 115.695312 229.675781 C 119.6875 230.84375 123.328125 232.613281 127.148438 233.875 C 132.617188 235.683594 138.195312 236.402344 143.941406 235.851562 C 145.144531 235.734375 146.34375 235.664062 146.734375 234.28125 C 148.171875 229.222656 149.5625 224.152344 151.105469 218.613281 C 149.691406 218.738281 149.476562 219.308594 149.257812 220.007812 Z M 155.304688 453.089844 C 156.546875 452.785156 156.117188 451.339844 155.898438 450.355469 C 154.996094 446.3125 151.023438 443.832031 146.851562 444.660156 C 142.417969 445.535156 139.441406 449.34375 140.046875 453.382812 C 140.167969 454.195312 140.292969 455.027344 141.472656 455.101562 C 142.222656 454.09375 141.625 452.902344 141.824219 451.8125 C 142.355469 448.964844 144.941406 446.664062 147.917969 446.496094 C 150.914062 446.324219 153.347656 448.117188 154.023438 450.96875 C 154.230469 451.828125 153.570312 453.511719 155.304688 453.089844 Z M 55.523438 146.753906 C 57.230469 146.5625 58.910156 145.914062 59.160156 144.105469 C 59.386719 142.480469 57.929688 142.0625 56.519531 142.136719 C 51.527344 142.402344 46.824219 143.804688 43.003906 147.007812 C 38.445312 150.835938 37.996094 154.464844 40.890625 158.75 C 42.203125 160.695312 45.863281 161.59375 48.164062 160.410156 C 50.925781 158.988281 48.925781 157.316406 48.285156 155.753906 C 47.644531 154.195312 47.835938 152.847656 49.003906 151.578125 C 50.328125 150.136719 51.742188 148.804688 53.253906 147.527344 C 46.855469 149.363281 45.4375 151.636719 46.878906 157.472656 C 47.3125 159.234375 46.5 159.984375 44.992188 159.871094 C 42.054688 159.644531 39.855469 155.03125 41.167969 152.417969 C 43.324219 148.105469 47.015625 145.90625 51.453125 144.820312 C 52.589844 144.542969 55.507812 141.523438 54.800781 146.226562 C 54.777344 146.371094 55.292969 146.78125 55.523438 146.753906 Z M 174.378906 383.667969 C 173.867188 384.082031 173.140625 384.398438 173.472656 385.292969 C 177.863281 385.042969 180.429688 381.726562 179.078125 378.050781 C 175.976562 369.574219 166.890625 367.792969 161.039062 374.507812 C 158.09375 377.886719 158.042969 382.777344 160.925781 385.488281 C 164.941406 389.265625 169.273438 389.734375 172.746094 386.503906 C 171.507812 385.871094 170.683594 386.46875 169.800781 386.589844 C 166.695312 387.023438 164.179688 385.800781 162.039062 383.609375 C 160.464844 382 160.261719 380.039062 160.972656 378.136719 C 163.371094 371.675781 170.480469 370.394531 175.066406 375.5 C 178.316406 379.125 178.191406 380.574219 174.378906 383.667969 Z M 108.105469 456.585938 C 109.664062 455.652344 110.351562 454.890625 109.140625 453.085938 C 107.480469 450.617188 101.371094 447.433594 98.433594 447.945312 C 97.332031 448.136719 96.179688 448.585938 95.257812 449.214844 C 92.0625 451.402344 92.175781 453.804688 95.125 456.261719 C 96.832031 457.679688 98.8125 457.433594 101.144531 458.050781 C 103.066406 457.09375 105.753906 457.992188 108.105469 456.585938 Z M 44.1875 190.929688 C 44.546875 188.144531 45.785156 185.339844 44.1875 182.554688 C 44.1875 185.347656 44.1875 188.136719 44.1875 190.929688 Z M 129.167969 459.960938 C 135.824219 459.867188 142.285156 458.742188 148.863281 457.835938 C 146.347656 459.898438 143.230469 460.398438 140.28125 460.683594 C 115.984375 463.019531 92.050781 461.8125 69.164062 452.289062 C 65.316406 450.6875 61.628906 448.585938 58.101562 446.351562 C 55.335938 444.597656 55.121094 441.015625 54.6875 438.347656 C 53.382812 430.347656 51.648438 422.429688 50.363281 414.425781 C 46.820312 392.367188 42.730469 370.398438 38.917969 348.386719 C 35.246094 327.183594 31.621094 305.96875 28.027344 284.746094 C 23.152344 255.945312 18.324219 227.136719 13.492188 198.328125 C 12.761719 193.964844 12.042969 189.59375 11.476562 185.207031 C 11.269531 183.601562 10.601562 182.6875 9.128906 182.121094 C 7.515625 181.496094 6.035156 180.507812 4.507812 179.789062 C 0.917969 178.105469 0.242188 175.125 0.09375 171.824219 C -0.0664062 168.339844 0.015625 164.84375 0.078125 161.351562 C 0.101562 160.128906 0.117188 158.808594 2.140625 157.238281 C 1.074219 163.121094 1.640625 168.183594 1.972656 173.269531 C 2.171875 176.28125 3.175781 178.210938 6.269531 178.535156 C 7.285156 178.640625 7.542969 179.964844 8.914062 179.644531 C 9.039062 177.589844 9.160156 175.449219 9.308594 173.308594 C 9.359375 172.585938 8.867188 171.402344 10.164062 171.480469 C 11.257812 171.546875 11.011719 172.691406 11.050781 173.460938 C 11.148438 175.449219 11.035156 177.433594 10.441406 179.339844 C 9.96875 180.847656 9.894531 181.449219 11.988281 181.585938 C 14.683594 181.761719 17.117188 183.441406 19.886719 183.855469 C 20.679688 183.976562 21.378906 184.800781 21.621094 183.449219 C 22.175781 180.320312 22.128906 177.179688 21.785156 173.128906 C 19.058594 176.25 21.421875 179.757812 19.40625 182.15625 C 18.511719 180.664062 18.363281 173.257812 19.207031 172.285156 C 20.117188 171.230469 21.351562 171.453125 22.453125 171.777344 C 23.863281 172.195312 24.546875 173.339844 24.273438 174.761719 C 23.800781 177.1875 24.160156 179.6875 23.742188 182.054688 C 23.203125 185.113281 24.515625 186.324219 27.164062 186.867188 C 28.746094 187.191406 30.316406 187.570312 32.214844 187.996094 C 31.855469 183.859375 33.660156 179.886719 31.910156 175.910156 C 33.96875 176.792969 34.371094 177.433594 34.398438 180.242188 C 34.421875 182.449219 34.261719 184.660156 34.339844 186.863281 C 34.488281 191.339844 38.328125 189.839844 40.652344 190.433594 C 43.148438 191.070312 42.441406 188.660156 42.652344 187.394531 C 42.992188 185.339844 43.039062 183.238281 43.371094 181.183594 C 43.539062 180.140625 44.066406 179.105469 45.394531 179.160156 C 46.886719 179.222656 46.867188 180.449219 46.910156 181.472656 C 47.015625 184.144531 47.257812 186.835938 47.035156 189.480469 C 46.851562 191.628906 47.699219 192.585938 49.597656 192.742188 C 52.554688 192.992188 55.25 195.261719 58.542969 193.542969 C 59.535156 193.023438 60.09375 195.46875 61.96875 195.480469 C 70.335938 195.539062 78.4375 197.863281 86.726562 198.8125 C 93.285156 199.558594 99.769531 201.054688 106.421875 201.148438 C 111.53125 201.226562 116.640625 201.292969 121.75 201.355469 C 122.75 201.371094 123.839844 200.96875 124.636719 201.984375 C 119.992188 204.175781 89.480469 202.425781 68.496094 198.542969 C 49.902344 195.097656 31.566406 190.554688 13.050781 184.046875 C 14.183594 190.441406 15.210938 196.125 16.195312 201.8125 C 20.785156 228.316406 25.371094 254.816406 29.949219 281.320312 C 37.378906 324.355469 44.816406 367.382812 52.207031 410.421875 C 53.980469 420.753906 55.617188 431.105469 57.242188 441.464844 C 57.558594 443.464844 58.464844 444.675781 60.179688 445.851562 C 69.027344 451.917969 79.34375 454.105469 89.320312 457.195312 C 90.191406 457.464844 91.109375 457.769531 92.019531 457.257812 C 90.273438 453.140625 90.664062 449.957031 93.171875 447.828125 C 95.878906 445.53125 101.109375 445.1875 104.339844 447.101562 C 105.71875 447.917969 107.203125 448.605469 108.449219 449.59375 C 113.671875 453.738281 113.691406 454.328125 108.828125 459.328125 C 115.847656 460.179688 122.480469 460.050781 129.167969 459.960938 Z M 81.59375 424.511719 C 78.753906 421.9375 74.519531 421.890625 71.367188 424.402344 C 66.792969 428.046875 65.3125 432.007812 67.128906 435.75 C 68.96875 439.546875 72.933594 440.984375 78.039062 439.585938 C 77.074219 438.160156 75.882812 438.210938 74.734375 438.089844 C 70.902344 437.683594 68.675781 435.800781 68.433594 432.796875 C 68.15625 429.347656 70.453125 426.589844 74.722656 425.085938 C 77.957031 423.945312 80.128906 425.34375 81.773438 427.9375 C 83.972656 431.402344 83.304688 433.878906 79.019531 438.328125 C 81.878906 439.71875 82.78125 437.375 83.761719 435.8125 C 86 432.25 85.015625 427.617188 81.59375 424.511719 Z M 57.226562 405.945312 C 56.707031 406.210938 56.097656 406.441406 56.246094 407.15625 C 56.40625 407.921875 57.117188 407.789062 57.65625 407.773438 C 59.859375 407.710938 61.382812 406.503906 62.316406 404.640625 C 63.300781 402.664062 64.050781 400.582031 63.875 398.289062 C 63.828125 397.597656 63.835938 396.898438 63.726562 396.21875 C 63.050781 391.960938 59.195312 389.433594 55.023438 390.476562 C 53.925781 390.75 53.164062 391.398438 52.804688 392.449219 C 52.714844 392.710938 52.828125 393.199219 53.027344 393.371094 C 54.074219 394.269531 54.640625 393.105469 55.410156 392.757812 C 58.238281 391.472656 59.992188 392.199219 61.175781 395.125 C 63.019531 399.691406 61.546875 403.730469 57.226562 405.945312 Z M 71.253906 443.097656 C 70.40625 443.375 69.652344 443.980469 68.921875 444.527344 C 68.734375 444.667969 68.683594 445.1875 68.777344 445.464844 C 68.949219 445.953125 69.347656 446.0625 69.875 445.859375 C 74.601562 444.035156 78.378906 445.167969 81.113281 449.503906 C 81.445312 450.023438 81.894531 450.386719 82.546875 450.046875 C 83 449.8125 83.191406 449.417969 83.03125 448.820312 C 82.90625 448.582031 82.746094 448.277344 82.59375 447.964844 C 81.03125 444.777344 74.640625 441.984375 71.253906 443.097656 Z M 138.878906 447.085938 C 142.261719 440.714844 138.886719 433.898438 131.804688 432.769531 C 131.3125 432.691406 130.828125 432.613281 130.585938 433.078125 C 130.28125 433.667969 130.5 434.269531 131.042969 434.589844 C 132.039062 435.175781 133.105469 435.652344 134.128906 436.195312 C 136.316406 437.347656 137.863281 439.050781 138.09375 441.570312 C 138.566406 446.765625 131.285156 453.597656 126.203125 452.628906 C 122.632812 451.945312 120.359375 449.78125 119.144531 446.179688 C 117.960938 442.667969 120.238281 440.972656 122.160156 439.058594 C 123.582031 437.640625 125.277344 436.496094 127.355469 434.824219 C 122.6875 435.113281 118.328125 438.460938 116.828125 442.570312 C 115.578125 445.992188 117.363281 448.691406 119.484375 451.070312 C 125.222656 457.503906 134.359375 455.589844 138.878906 447.085938 Z M 142.707031 222.9375 C 136.523438 217.976562 129.085938 219.953125 122.582031 217.90625 C 123.503906 218.84375 141.066406 223.230469 142.707031 222.9375 Z M 62.398438 173.871094 C 51.445312 171.542969 40.550781 168.933594 29.625 166.488281 C 34.890625 169.324219 59.003906 174.679688 62.398438 173.871094 Z M 59.316406 191.558594 C 62.941406 190.472656 66.042969 191.097656 69.15625 192.929688 C 69.816406 193.316406 70.765625 193.5 71.523438 193.386719 C 75.5625 192.789062 79.519531 193.558594 83.496094 193.953125 C 85.832031 194.1875 87.003906 193.136719 87.148438 190.84375 C 87.289062 188.578125 88.109375 185.996094 84.519531 185.570312 C 81.632812 185.230469 78.765625 184.722656 75.875 184.496094 C 73.332031 184.300781 71.023438 183.855469 68.578125 182.796875 C 65.886719 181.632812 62.628906 180.753906 59.488281 182.628906 C 65.101562 182.460938 69.675781 186.132812 75.082031 186.496094 C 77.632812 186.664062 80.1875 186.894531 82.71875 187.261719 C 83.914062 187.433594 85.742188 186.984375 85.507812 189.335938 C 85.3125 191.269531 84.355469 191.886719 82.488281 191.703125 C 76.789062 191.148438 70.855469 192.261719 65.519531 189.214844 C 64.183594 188.453125 62.878906 188.808594 61.5 189.261719 C 57.957031 190.421875 56.554688 189.246094 56.78125 185.453125 C 56.8125 184.929688 57.195312 184.273438 56.125 184.019531 C 54.601562 185.226562 54.273438 186.804688 55.136719 188.554688 C 55.984375 190.265625 57.292969 192.167969 59.316406 191.558594 Z M 150.398438 216.820312 C 150.738281 216.855469 151.082031 216.894531 151.421875 216.929688 C 152.15625 213.617188 152.886719 210.304688 153.617188 206.988281 C 153.320312 206.929688 153.019531 206.871094 152.722656 206.808594 C 152.425781 210.253906 149.863281 213.195312 150.398438 216.820312 Z M 66.140625 165.191406 C 69.472656 165.191406 74.585938 160.886719 75.195312 157.339844 C 75.457031 155.835938 75.207031 154.382812 73.476562 154.023438 C 69.09375 153.113281 65.136719 155.050781 61.1875 156.398438 C 59.957031 156.816406 58.214844 159.015625 59.578125 160.394531 C 61.402344 162.234375 62.476562 165.425781 66.140625 165.191406 Z M 65.832031 167.339844 C 63.664062 167.359375 57.152344 162.3125 56.867188 160.394531 C 56.601562 158.59375 60.796875 153.257812 62.6875 153.3125 C 64.519531 153.359375 66.097656 152.910156 67.710938 152.160156 C 68.636719 151.726562 69.71875 151.523438 70.75 151.4375 C 75.882812 150.992188 78.105469 153.820312 76.492188 158.648438 C 74.84375 163.570312 70.273438 167.296875 65.832031 167.339844 Z M 54.570312 376.050781 C 53.902344 376.035156 53.113281 375.6875 52.78125 376.578125 C 52.519531 377.277344 53.058594 377.578125 53.609375 377.851562 C 57.03125 379.550781 63.539062 376.5625 64.460938 372.859375 C 66.179688 365.957031 63.742188 361.589844 57.054688 359.582031 C 52.796875 358.308594 48.054688 360.386719 47.277344 364.226562 C 50.175781 362.605469 52.148438 362.03125 55.421875 361.757812 C 58.863281 361.472656 61.300781 363.066406 62.367188 366.308594 C 64.339844 372.285156 61.199219 376.214844 54.570312 376.050781 Z M 22.523438 163.863281 C 17.210938 163 12.636719 160.0625 7.507812 158.679688 C 12.820312 159.539062 17.6875 161.65625 22.523438 163.863281" fill="#402721"/></g></g></svg>